G04 #@! TF.GenerationSoftware,KiCad,Pcbnew,5.0.2+dfsg1-1*
G04 #@! TF.CreationDate,2021-01-08T16:21:55+01:00*
G04 #@! TF.ProjectId,TTGO_weatherboard,5454474f-5f77-4656-9174-686572626f61,rev?*
G04 #@! TF.SameCoordinates,Original*
G04 #@! TF.FileFunction,Copper,L1,Top*
G04 #@! TF.FilePolarity,Positive*
%FSLAX46Y46*%
G04 Gerber Fmt 4.6, Leading zero omitted, Abs format (unit mm)*
G04 Created by KiCad (PCBNEW 5.0.2+dfsg1-1) date Fr 08 Jan 2021 16:21:55 CET*
%MOMM*%
%LPD*%
G01*
G04 APERTURE LIST*
G04 #@! TA.AperFunction,NonConductor*
%ADD10C,0.300000*%
G04 #@! TD*
G04 #@! TA.AperFunction,Conductor*
%ADD11C,0.100000*%
G04 #@! TD*
G04 #@! TA.AperFunction,SMDPad,CuDef*
%ADD12C,1.150000*%
G04 #@! TD*
G04 #@! TA.AperFunction,SMDPad,CuDef*
%ADD13R,1.200000X0.900000*%
G04 #@! TD*
G04 #@! TA.AperFunction,ComponentPad*
%ADD14R,1.700000X1.700000*%
G04 #@! TD*
G04 #@! TA.AperFunction,ComponentPad*
%ADD15O,1.700000X1.700000*%
G04 #@! TD*
G04 #@! TA.AperFunction,ComponentPad*
%ADD16C,2.400000*%
G04 #@! TD*
G04 #@! TA.AperFunction,ComponentPad*
%ADD17C,2.000000*%
G04 #@! TD*
G04 #@! TA.AperFunction,ViaPad*
%ADD18C,0.800000*%
G04 #@! TD*
G04 #@! TA.AperFunction,Conductor*
%ADD19C,0.200000*%
G04 #@! TD*
G04 #@! TA.AperFunction,Conductor*
%ADD20C,0.300000*%
G04 #@! TD*
G04 #@! TA.AperFunction,Conductor*
%ADD21C,0.350000*%
G04 #@! TD*
G04 #@! TA.AperFunction,Conductor*
%ADD22C,0.250000*%
G04 #@! TD*
G04 #@! TA.AperFunction,Conductor*
%ADD23C,0.254000*%
G04 #@! TD*
G04 APERTURE END LIST*
D10*
X136239600Y-60951371D02*
X137096742Y-60951371D01*
X136668171Y-62451371D02*
X136668171Y-60951371D01*
X137382457Y-60951371D02*
X138239600Y-60951371D01*
X137811028Y-62451371D02*
X137811028Y-60951371D01*
X139525314Y-61022800D02*
X139382457Y-60951371D01*
X139168171Y-60951371D01*
X138953885Y-61022800D01*
X138811028Y-61165657D01*
X138739600Y-61308514D01*
X138668171Y-61594228D01*
X138668171Y-61808514D01*
X138739600Y-62094228D01*
X138811028Y-62237085D01*
X138953885Y-62379942D01*
X139168171Y-62451371D01*
X139311028Y-62451371D01*
X139525314Y-62379942D01*
X139596742Y-62308514D01*
X139596742Y-61808514D01*
X139311028Y-61808514D01*
X140525314Y-60951371D02*
X140811028Y-60951371D01*
X140953885Y-61022800D01*
X141096742Y-61165657D01*
X141168171Y-61451371D01*
X141168171Y-61951371D01*
X141096742Y-62237085D01*
X140953885Y-62379942D01*
X140811028Y-62451371D01*
X140525314Y-62451371D01*
X140382457Y-62379942D01*
X140239600Y-62237085D01*
X140168171Y-61951371D01*
X140168171Y-61451371D01*
X140239600Y-61165657D01*
X140382457Y-61022800D01*
X140525314Y-60951371D01*
X142811028Y-60951371D02*
X143168171Y-62451371D01*
X143453885Y-61379942D01*
X143739600Y-62451371D01*
X144096742Y-60951371D01*
X145239600Y-62379942D02*
X145096742Y-62451371D01*
X144811028Y-62451371D01*
X144668171Y-62379942D01*
X144596742Y-62237085D01*
X144596742Y-61665657D01*
X144668171Y-61522800D01*
X144811028Y-61451371D01*
X145096742Y-61451371D01*
X145239600Y-61522800D01*
X145311028Y-61665657D01*
X145311028Y-61808514D01*
X144596742Y-61951371D01*
X146596742Y-62451371D02*
X146596742Y-61665657D01*
X146525314Y-61522800D01*
X146382457Y-61451371D01*
X146096742Y-61451371D01*
X145953885Y-61522800D01*
X146596742Y-62379942D02*
X146453885Y-62451371D01*
X146096742Y-62451371D01*
X145953885Y-62379942D01*
X145882457Y-62237085D01*
X145882457Y-62094228D01*
X145953885Y-61951371D01*
X146096742Y-61879942D01*
X146453885Y-61879942D01*
X146596742Y-61808514D01*
X147096742Y-61451371D02*
X147668171Y-61451371D01*
X147311028Y-60951371D02*
X147311028Y-62237085D01*
X147382457Y-62379942D01*
X147525314Y-62451371D01*
X147668171Y-62451371D01*
X148168171Y-62451371D02*
X148168171Y-60951371D01*
X148811028Y-62451371D02*
X148811028Y-61665657D01*
X148739600Y-61522800D01*
X148596742Y-61451371D01*
X148382457Y-61451371D01*
X148239600Y-61522800D01*
X148168171Y-61594228D01*
X150096742Y-62379942D02*
X149953885Y-62451371D01*
X149668171Y-62451371D01*
X149525314Y-62379942D01*
X149453885Y-62237085D01*
X149453885Y-61665657D01*
X149525314Y-61522800D01*
X149668171Y-61451371D01*
X149953885Y-61451371D01*
X150096742Y-61522800D01*
X150168171Y-61665657D01*
X150168171Y-61808514D01*
X149453885Y-61951371D01*
X150811028Y-62451371D02*
X150811028Y-61451371D01*
X150811028Y-61737085D02*
X150882457Y-61594228D01*
X150953885Y-61522800D01*
X151096742Y-61451371D01*
X151239600Y-61451371D01*
X151739600Y-62451371D02*
X151739600Y-60951371D01*
X151739600Y-61522800D02*
X151882457Y-61451371D01*
X152168171Y-61451371D01*
X152311028Y-61522800D01*
X152382457Y-61594228D01*
X152453885Y-61737085D01*
X152453885Y-62165657D01*
X152382457Y-62308514D01*
X152311028Y-62379942D01*
X152168171Y-62451371D01*
X151882457Y-62451371D01*
X151739600Y-62379942D01*
X153311028Y-62451371D02*
X153168171Y-62379942D01*
X153096742Y-62308514D01*
X153025314Y-62165657D01*
X153025314Y-61737085D01*
X153096742Y-61594228D01*
X153168171Y-61522800D01*
X153311028Y-61451371D01*
X153525314Y-61451371D01*
X153668171Y-61522800D01*
X153739600Y-61594228D01*
X153811028Y-61737085D01*
X153811028Y-62165657D01*
X153739600Y-62308514D01*
X153668171Y-62379942D01*
X153525314Y-62451371D01*
X153311028Y-62451371D01*
X155096742Y-62451371D02*
X155096742Y-61665657D01*
X155025314Y-61522800D01*
X154882457Y-61451371D01*
X154596742Y-61451371D01*
X154453885Y-61522800D01*
X155096742Y-62379942D02*
X154953885Y-62451371D01*
X154596742Y-62451371D01*
X154453885Y-62379942D01*
X154382457Y-62237085D01*
X154382457Y-62094228D01*
X154453885Y-61951371D01*
X154596742Y-61879942D01*
X154953885Y-61879942D01*
X155096742Y-61808514D01*
X155811028Y-62451371D02*
X155811028Y-61451371D01*
X155811028Y-61737085D02*
X155882457Y-61594228D01*
X155953885Y-61522800D01*
X156096742Y-61451371D01*
X156239600Y-61451371D01*
X157382457Y-62451371D02*
X157382457Y-60951371D01*
X157382457Y-62379942D02*
X157239600Y-62451371D01*
X156953885Y-62451371D01*
X156811028Y-62379942D01*
X156739600Y-62308514D01*
X156668171Y-62165657D01*
X156668171Y-61737085D01*
X156739600Y-61594228D01*
X156811028Y-61522800D01*
X156953885Y-61451371D01*
X157239600Y-61451371D01*
X157382457Y-61522800D01*
X159239600Y-62451371D02*
X159239600Y-60951371D01*
X159596742Y-60951371D01*
X159811028Y-61022800D01*
X159953885Y-61165657D01*
X160025314Y-61308514D01*
X160096742Y-61594228D01*
X160096742Y-61808514D01*
X160025314Y-62094228D01*
X159953885Y-62237085D01*
X159811028Y-62379942D01*
X159596742Y-62451371D01*
X159239600Y-62451371D01*
X161453885Y-62451371D02*
X160739600Y-62451371D01*
X160739600Y-60951371D01*
X162739600Y-62451371D02*
X161882457Y-62451371D01*
X162311028Y-62451371D02*
X162311028Y-60951371D01*
X162168171Y-61165657D01*
X162025314Y-61308514D01*
X161882457Y-61379942D01*
X163882457Y-61665657D02*
X164096742Y-61737085D01*
X164168171Y-61808514D01*
X164239600Y-61951371D01*
X164239600Y-62165657D01*
X164168171Y-62308514D01*
X164096742Y-62379942D01*
X163953885Y-62451371D01*
X163382457Y-62451371D01*
X163382457Y-60951371D01*
X163882457Y-60951371D01*
X164025314Y-61022800D01*
X164096742Y-61094228D01*
X164168171Y-61237085D01*
X164168171Y-61379942D01*
X164096742Y-61522800D01*
X164025314Y-61594228D01*
X163882457Y-61665657D01*
X163382457Y-61665657D01*
X165882457Y-62594228D02*
X165739600Y-62522800D01*
X165596742Y-62379942D01*
X165382457Y-62165657D01*
X165239600Y-62094228D01*
X165096742Y-62094228D01*
X165168171Y-62451371D02*
X165025314Y-62379942D01*
X164882457Y-62237085D01*
X164811028Y-61951371D01*
X164811028Y-61451371D01*
X164882457Y-61165657D01*
X165025314Y-61022800D01*
X165168171Y-60951371D01*
X165453885Y-60951371D01*
X165596742Y-61022800D01*
X165739600Y-61165657D01*
X165811028Y-61451371D01*
X165811028Y-61951371D01*
X165739600Y-62237085D01*
X165596742Y-62379942D01*
X165453885Y-62451371D01*
X165168171Y-62451371D01*
X166953885Y-61665657D02*
X166453885Y-61665657D01*
X166453885Y-62451371D02*
X166453885Y-60951371D01*
X167168171Y-60951371D01*
D11*
G04 #@! TO.N,Net-(C1-Pad1)*
G04 #@! TO.C,C1*
G36*
X108475305Y-71908804D02*
X108499573Y-71912404D01*
X108523372Y-71918365D01*
X108546471Y-71926630D01*
X108568650Y-71937120D01*
X108589693Y-71949732D01*
X108609399Y-71964347D01*
X108627577Y-71980823D01*
X108644053Y-71999001D01*
X108658668Y-72018707D01*
X108671280Y-72039750D01*
X108681770Y-72061929D01*
X108690035Y-72085028D01*
X108695996Y-72108827D01*
X108699596Y-72133095D01*
X108700800Y-72157599D01*
X108700800Y-72807601D01*
X108699596Y-72832105D01*
X108695996Y-72856373D01*
X108690035Y-72880172D01*
X108681770Y-72903271D01*
X108671280Y-72925450D01*
X108658668Y-72946493D01*
X108644053Y-72966199D01*
X108627577Y-72984377D01*
X108609399Y-73000853D01*
X108589693Y-73015468D01*
X108568650Y-73028080D01*
X108546471Y-73038570D01*
X108523372Y-73046835D01*
X108499573Y-73052796D01*
X108475305Y-73056396D01*
X108450801Y-73057600D01*
X107550799Y-73057600D01*
X107526295Y-73056396D01*
X107502027Y-73052796D01*
X107478228Y-73046835D01*
X107455129Y-73038570D01*
X107432950Y-73028080D01*
X107411907Y-73015468D01*
X107392201Y-73000853D01*
X107374023Y-72984377D01*
X107357547Y-72966199D01*
X107342932Y-72946493D01*
X107330320Y-72925450D01*
X107319830Y-72903271D01*
X107311565Y-72880172D01*
X107305604Y-72856373D01*
X107302004Y-72832105D01*
X107300800Y-72807601D01*
X107300800Y-72157599D01*
X107302004Y-72133095D01*
X107305604Y-72108827D01*
X107311565Y-72085028D01*
X107319830Y-72061929D01*
X107330320Y-72039750D01*
X107342932Y-72018707D01*
X107357547Y-71999001D01*
X107374023Y-71980823D01*
X107392201Y-71964347D01*
X107411907Y-71949732D01*
X107432950Y-71937120D01*
X107455129Y-71926630D01*
X107478228Y-71918365D01*
X107502027Y-71912404D01*
X107526295Y-71908804D01*
X107550799Y-71907600D01*
X108450801Y-71907600D01*
X108475305Y-71908804D01*
X108475305Y-71908804D01*
G37*
D12*
G04 #@! TD*
G04 #@! TO.P,C1,1*
G04 #@! TO.N,Net-(C1-Pad1)*
X108000800Y-72482600D03*
D11*
G04 #@! TO.N,GND*
G04 #@! TO.C,C1*
G36*
X108475305Y-73958804D02*
X108499573Y-73962404D01*
X108523372Y-73968365D01*
X108546471Y-73976630D01*
X108568650Y-73987120D01*
X108589693Y-73999732D01*
X108609399Y-74014347D01*
X108627577Y-74030823D01*
X108644053Y-74049001D01*
X108658668Y-74068707D01*
X108671280Y-74089750D01*
X108681770Y-74111929D01*
X108690035Y-74135028D01*
X108695996Y-74158827D01*
X108699596Y-74183095D01*
X108700800Y-74207599D01*
X108700800Y-74857601D01*
X108699596Y-74882105D01*
X108695996Y-74906373D01*
X108690035Y-74930172D01*
X108681770Y-74953271D01*
X108671280Y-74975450D01*
X108658668Y-74996493D01*
X108644053Y-75016199D01*
X108627577Y-75034377D01*
X108609399Y-75050853D01*
X108589693Y-75065468D01*
X108568650Y-75078080D01*
X108546471Y-75088570D01*
X108523372Y-75096835D01*
X108499573Y-75102796D01*
X108475305Y-75106396D01*
X108450801Y-75107600D01*
X107550799Y-75107600D01*
X107526295Y-75106396D01*
X107502027Y-75102796D01*
X107478228Y-75096835D01*
X107455129Y-75088570D01*
X107432950Y-75078080D01*
X107411907Y-75065468D01*
X107392201Y-75050853D01*
X107374023Y-75034377D01*
X107357547Y-75016199D01*
X107342932Y-74996493D01*
X107330320Y-74975450D01*
X107319830Y-74953271D01*
X107311565Y-74930172D01*
X107305604Y-74906373D01*
X107302004Y-74882105D01*
X107300800Y-74857601D01*
X107300800Y-74207599D01*
X107302004Y-74183095D01*
X107305604Y-74158827D01*
X107311565Y-74135028D01*
X107319830Y-74111929D01*
X107330320Y-74089750D01*
X107342932Y-74068707D01*
X107357547Y-74049001D01*
X107374023Y-74030823D01*
X107392201Y-74014347D01*
X107411907Y-73999732D01*
X107432950Y-73987120D01*
X107455129Y-73976630D01*
X107478228Y-73968365D01*
X107502027Y-73962404D01*
X107526295Y-73958804D01*
X107550799Y-73957600D01*
X108450801Y-73957600D01*
X108475305Y-73958804D01*
X108475305Y-73958804D01*
G37*
D12*
G04 #@! TD*
G04 #@! TO.P,C1,2*
G04 #@! TO.N,GND*
X108000800Y-74532600D03*
D11*
G04 #@! TO.N,Net-(C2-Pad2)*
G04 #@! TO.C,C2*
G36*
X101261705Y-71705604D02*
X101285973Y-71709204D01*
X101309772Y-71715165D01*
X101332871Y-71723430D01*
X101355050Y-71733920D01*
X101376093Y-71746532D01*
X101395799Y-71761147D01*
X101413977Y-71777623D01*
X101430453Y-71795801D01*
X101445068Y-71815507D01*
X101457680Y-71836550D01*
X101468170Y-71858729D01*
X101476435Y-71881828D01*
X101482396Y-71905627D01*
X101485996Y-71929895D01*
X101487200Y-71954399D01*
X101487200Y-72604401D01*
X101485996Y-72628905D01*
X101482396Y-72653173D01*
X101476435Y-72676972D01*
X101468170Y-72700071D01*
X101457680Y-72722250D01*
X101445068Y-72743293D01*
X101430453Y-72762999D01*
X101413977Y-72781177D01*
X101395799Y-72797653D01*
X101376093Y-72812268D01*
X101355050Y-72824880D01*
X101332871Y-72835370D01*
X101309772Y-72843635D01*
X101285973Y-72849596D01*
X101261705Y-72853196D01*
X101237201Y-72854400D01*
X100337199Y-72854400D01*
X100312695Y-72853196D01*
X100288427Y-72849596D01*
X100264628Y-72843635D01*
X100241529Y-72835370D01*
X100219350Y-72824880D01*
X100198307Y-72812268D01*
X100178601Y-72797653D01*
X100160423Y-72781177D01*
X100143947Y-72762999D01*
X100129332Y-72743293D01*
X100116720Y-72722250D01*
X100106230Y-72700071D01*
X100097965Y-72676972D01*
X100092004Y-72653173D01*
X100088404Y-72628905D01*
X100087200Y-72604401D01*
X100087200Y-71954399D01*
X100088404Y-71929895D01*
X100092004Y-71905627D01*
X100097965Y-71881828D01*
X100106230Y-71858729D01*
X100116720Y-71836550D01*
X100129332Y-71815507D01*
X100143947Y-71795801D01*
X100160423Y-71777623D01*
X100178601Y-71761147D01*
X100198307Y-71746532D01*
X100219350Y-71733920D01*
X100241529Y-71723430D01*
X100264628Y-71715165D01*
X100288427Y-71709204D01*
X100312695Y-71705604D01*
X100337199Y-71704400D01*
X101237201Y-71704400D01*
X101261705Y-71705604D01*
X101261705Y-71705604D01*
G37*
D12*
G04 #@! TD*
G04 #@! TO.P,C2,2*
G04 #@! TO.N,Net-(C2-Pad2)*
X100787200Y-72279400D03*
D11*
G04 #@! TO.N,GND*
G04 #@! TO.C,C2*
G36*
X101261705Y-73755604D02*
X101285973Y-73759204D01*
X101309772Y-73765165D01*
X101332871Y-73773430D01*
X101355050Y-73783920D01*
X101376093Y-73796532D01*
X101395799Y-73811147D01*
X101413977Y-73827623D01*
X101430453Y-73845801D01*
X101445068Y-73865507D01*
X101457680Y-73886550D01*
X101468170Y-73908729D01*
X101476435Y-73931828D01*
X101482396Y-73955627D01*
X101485996Y-73979895D01*
X101487200Y-74004399D01*
X101487200Y-74654401D01*
X101485996Y-74678905D01*
X101482396Y-74703173D01*
X101476435Y-74726972D01*
X101468170Y-74750071D01*
X101457680Y-74772250D01*
X101445068Y-74793293D01*
X101430453Y-74812999D01*
X101413977Y-74831177D01*
X101395799Y-74847653D01*
X101376093Y-74862268D01*
X101355050Y-74874880D01*
X101332871Y-74885370D01*
X101309772Y-74893635D01*
X101285973Y-74899596D01*
X101261705Y-74903196D01*
X101237201Y-74904400D01*
X100337199Y-74904400D01*
X100312695Y-74903196D01*
X100288427Y-74899596D01*
X100264628Y-74893635D01*
X100241529Y-74885370D01*
X100219350Y-74874880D01*
X100198307Y-74862268D01*
X100178601Y-74847653D01*
X100160423Y-74831177D01*
X100143947Y-74812999D01*
X100129332Y-74793293D01*
X100116720Y-74772250D01*
X100106230Y-74750071D01*
X100097965Y-74726972D01*
X100092004Y-74703173D01*
X100088404Y-74678905D01*
X100087200Y-74654401D01*
X100087200Y-74004399D01*
X100088404Y-73979895D01*
X100092004Y-73955627D01*
X100097965Y-73931828D01*
X100106230Y-73908729D01*
X100116720Y-73886550D01*
X100129332Y-73865507D01*
X100143947Y-73845801D01*
X100160423Y-73827623D01*
X100178601Y-73811147D01*
X100198307Y-73796532D01*
X100219350Y-73783920D01*
X100241529Y-73773430D01*
X100264628Y-73765165D01*
X100288427Y-73759204D01*
X100312695Y-73755604D01*
X100337199Y-73754400D01*
X101237201Y-73754400D01*
X101261705Y-73755604D01*
X101261705Y-73755604D01*
G37*
D12*
G04 #@! TD*
G04 #@! TO.P,C2,1*
G04 #@! TO.N,GND*
X100787200Y-74329400D03*
D13*
G04 #@! TO.P,D3,1*
G04 #@! TO.N,+5V*
X140309600Y-84429600D03*
G04 #@! TO.P,D3,2*
G04 #@! TO.N,GND*
X140309600Y-87729600D03*
G04 #@! TD*
D14*
G04 #@! TO.P,J1,1*
G04 #@! TO.N,+3V3*
X164388800Y-59182000D03*
D15*
G04 #@! TO.P,J1,2*
G04 #@! TO.N,Net-(J1-Pad2)*
X166928800Y-59182000D03*
G04 #@! TO.P,J1,3*
G04 #@! TO.N,Net-(J1-Pad3)*
X169468800Y-59182000D03*
G04 #@! TO.P,J1,4*
G04 #@! TO.N,Net-(J1-Pad4)*
X172008800Y-59182000D03*
G04 #@! TO.P,J1,5*
G04 #@! TO.N,GND*
X174548800Y-59182000D03*
G04 #@! TO.P,J1,6*
G04 #@! TO.N,+3V3*
X177088800Y-59182000D03*
G04 #@! TD*
D14*
G04 #@! TO.P,J3,1*
G04 #@! TO.N,Net-(J3-Pad1)*
X135432800Y-59385200D03*
D15*
G04 #@! TO.P,J3,2*
G04 #@! TO.N,Net-(J3-Pad2)*
X132892800Y-59385200D03*
G04 #@! TO.P,J3,3*
G04 #@! TO.N,+3V3*
X130352800Y-59385200D03*
G04 #@! TO.P,J3,4*
G04 #@! TO.N,Net-(J1-Pad3)*
X127812800Y-59385200D03*
G04 #@! TO.P,J3,5*
G04 #@! TO.N,Net-(J1-Pad4)*
X125272800Y-59385200D03*
G04 #@! TO.P,J3,6*
G04 #@! TO.N,GND*
X122732800Y-59385200D03*
G04 #@! TO.P,J3,7*
G04 #@! TO.N,+3V3*
X120192800Y-59385200D03*
G04 #@! TO.P,J3,8*
G04 #@! TO.N,GND*
X117652800Y-59385200D03*
G04 #@! TO.P,J3,9*
G04 #@! TO.N,Net-(C2-Pad2)*
X115112800Y-59385200D03*
G04 #@! TO.P,J3,10*
G04 #@! TO.N,Net-(C1-Pad1)*
X112572800Y-59385200D03*
G04 #@! TO.P,J3,11*
G04 #@! TO.N,Net-(J2-PadR)*
X110032800Y-59385200D03*
G04 #@! TO.P,J3,12*
G04 #@! TO.N,Net-(J3-Pad12)*
X107492800Y-59385200D03*
G04 #@! TO.P,J3,13*
G04 #@! TO.N,Net-(J3-Pad13)*
X104952800Y-59385200D03*
G04 #@! TD*
G04 #@! TO.P,J4,13*
G04 #@! TO.N,+5V*
X135483600Y-85700000D03*
G04 #@! TO.P,J4,12*
G04 #@! TO.N,GND*
X132943600Y-85700000D03*
G04 #@! TO.P,J4,11*
G04 #@! TO.N,Net-(J4-Pad11)*
X130403600Y-85700000D03*
G04 #@! TO.P,J4,10*
G04 #@! TO.N,Net-(J4-Pad10)*
X127863600Y-85700000D03*
G04 #@! TO.P,J4,9*
G04 #@! TO.N,Net-(J4-Pad9)*
X125323600Y-85700000D03*
G04 #@! TO.P,J4,8*
G04 #@! TO.N,Net-(J4-Pad8)*
X122783600Y-85700000D03*
G04 #@! TO.P,J4,7*
G04 #@! TO.N,Net-(J4-Pad7)*
X120243600Y-85700000D03*
G04 #@! TO.P,J4,6*
G04 #@! TO.N,Net-(J4-Pad6)*
X117703600Y-85700000D03*
G04 #@! TO.P,J4,5*
G04 #@! TO.N,Net-(J4-Pad5)*
X115163600Y-85700000D03*
G04 #@! TO.P,J4,4*
G04 #@! TO.N,Net-(J4-Pad4)*
X112623600Y-85700000D03*
G04 #@! TO.P,J4,3*
G04 #@! TO.N,Net-(J4-Pad3)*
X110083600Y-85700000D03*
G04 #@! TO.P,J4,2*
G04 #@! TO.N,Net-(J4-Pad2)*
X107543600Y-85700000D03*
D14*
G04 #@! TO.P,J4,1*
G04 #@! TO.N,Net-(J4-Pad1)*
X105003600Y-85700000D03*
G04 #@! TD*
G04 #@! TO.P,J5,1*
G04 #@! TO.N,Net-(J4-Pad10)*
X186690000Y-86461600D03*
D15*
G04 #@! TO.P,J5,2*
G04 #@! TO.N,GND*
X189230000Y-86461600D03*
G04 #@! TD*
G04 #@! TO.P,J6,5*
G04 #@! TO.N,Net-(J6-Pad5)*
X181457600Y-59283600D03*
G04 #@! TO.P,J6,4*
G04 #@! TO.N,Net-(J1-Pad3)*
X183997600Y-59283600D03*
G04 #@! TO.P,J6,3*
G04 #@! TO.N,Net-(J1-Pad4)*
X186537600Y-59283600D03*
G04 #@! TO.P,J6,2*
G04 #@! TO.N,GND*
X189077600Y-59283600D03*
D14*
G04 #@! TO.P,J6,1*
G04 #@! TO.N,+3V3*
X191617600Y-59283600D03*
G04 #@! TD*
D16*
G04 #@! TO.P,L1,1*
G04 #@! TO.N,Net-(C3-Pad2)*
X165658800Y-84886800D03*
G04 #@! TO.P,L1,2*
G04 #@! TO.N,GND*
X178658800Y-84886800D03*
G04 #@! TD*
D17*
G04 #@! TO.P,SW1,2*
G04 #@! TO.N,Net-(C1-Pad1)*
X100736400Y-81766800D03*
G04 #@! TO.P,SW1,1*
G04 #@! TO.N,GND*
X100736400Y-77266800D03*
G04 #@! TO.P,SW1,2*
G04 #@! TO.N,Net-(C1-Pad1)*
X107236400Y-81766800D03*
G04 #@! TO.P,SW1,1*
G04 #@! TO.N,GND*
X107236400Y-77266800D03*
G04 #@! TD*
G04 #@! TO.P,SW2,1*
G04 #@! TO.N,GND*
X107236400Y-63957200D03*
G04 #@! TO.P,SW2,2*
G04 #@! TO.N,Net-(C2-Pad2)*
X107236400Y-68457200D03*
G04 #@! TO.P,SW2,1*
G04 #@! TO.N,GND*
X100736400Y-63957200D03*
G04 #@! TO.P,SW2,2*
G04 #@! TO.N,Net-(C2-Pad2)*
X100736400Y-68457200D03*
G04 #@! TD*
D14*
G04 #@! TO.P,U1,1*
G04 #@! TO.N,+3V3*
X149047200Y-85801200D03*
D15*
G04 #@! TO.P,U1,2*
G04 #@! TO.N,Net-(J4-Pad8)*
X151587200Y-85801200D03*
G04 #@! TO.P,U1,3*
G04 #@! TO.N,Net-(U1-Pad3)*
X154127200Y-85801200D03*
G04 #@! TO.P,U1,4*
G04 #@! TO.N,GND*
X156667200Y-85801200D03*
G04 #@! TD*
D18*
G04 #@! TO.N,Net-(C1-Pad1)*
X104902000Y-70002400D03*
G04 #@! TO.N,GND*
X108204000Y-66040000D03*
X112217200Y-66548000D03*
X112217200Y-66548000D03*
X112217200Y-66548000D03*
X118008400Y-65735200D03*
X127304800Y-64617600D03*
X128473200Y-67208400D03*
X133807200Y-64719200D03*
X129794000Y-72644000D03*
X129438400Y-74777600D03*
X126796800Y-77165200D03*
X124256800Y-75641200D03*
X125831600Y-73609200D03*
X112979200Y-81584800D03*
G04 #@! TO.N,Net-(C2-Pad2)*
X102311200Y-77622400D03*
G04 #@! TO.N,Net-(C3-Pad2)*
X131826000Y-80111600D03*
G04 #@! TO.N,Net-(J1-Pad3)*
X131826000Y-77317600D03*
G04 #@! TD*
D19*
G04 #@! TO.N,Net-(C1-Pad1)*
X107377428Y-71859228D02*
X106555628Y-71859228D01*
X108000800Y-72482600D02*
X107377428Y-71859228D01*
X106555628Y-71859228D02*
X104902000Y-70205600D01*
X104902000Y-70205600D02*
X104902000Y-70002400D01*
X103886000Y-81766800D02*
X103886000Y-74269600D01*
X103886000Y-81766800D02*
X107236400Y-81766800D01*
X100736400Y-81766800D02*
X103886000Y-81766800D01*
X105673000Y-72482600D02*
X108000800Y-72482600D01*
X103886000Y-74269600D02*
X105673000Y-72482600D01*
G04 #@! TO.N,Net-(C2-Pad2)*
X107236400Y-68457200D02*
X100736400Y-68457200D01*
X100736400Y-72228600D02*
X100787200Y-72279400D01*
X100736400Y-68457200D02*
X100736400Y-72228600D01*
X101587200Y-72279400D02*
X102311200Y-73003400D01*
X100787200Y-72279400D02*
X101587200Y-72279400D01*
X102311200Y-73003400D02*
X102311200Y-77622400D01*
X109626400Y-66067200D02*
X107236400Y-68457200D01*
X109626400Y-61569600D02*
X109626400Y-66067200D01*
X115112800Y-59385200D02*
X113030000Y-61468000D01*
X109728000Y-61468000D02*
X109626400Y-61569600D01*
X113030000Y-61468000D02*
X109728000Y-61468000D01*
G04 #@! TO.N,Net-(C3-Pad2)*
X160883600Y-80111600D02*
X165658800Y-84886800D01*
X131826000Y-80111600D02*
X160883600Y-80111600D01*
D20*
G04 #@! TO.N,+3V3*
X164388800Y-60332000D02*
X164864400Y-60807600D01*
X164388800Y-59182000D02*
X164388800Y-60332000D01*
X175463200Y-60807600D02*
X177088800Y-59182000D01*
X164864400Y-60807600D02*
X175463200Y-60807600D01*
X179113610Y-61206810D02*
X191065990Y-61206810D01*
X177088800Y-59182000D02*
X179113610Y-61206810D01*
X191617600Y-60655200D02*
X191617600Y-59283600D01*
X191065990Y-61206810D02*
X191617600Y-60655200D01*
D21*
G04 #@! TO.N,+5V*
X136754000Y-84429600D02*
X140309600Y-84429600D01*
X135483600Y-85700000D02*
X136754000Y-84429600D01*
D19*
G04 #@! TO.N,Net-(J1-Pad3)*
X127812800Y-60655200D02*
X127812800Y-59385200D01*
X131927600Y-64770000D02*
X127812800Y-60655200D01*
X131927600Y-74066400D02*
X131927600Y-64770000D01*
X131826000Y-77317600D02*
X131826000Y-74168000D01*
X131826000Y-74168000D02*
X131927600Y-74066400D01*
X169468800Y-59182000D02*
X171297600Y-57353200D01*
X183997600Y-57607200D02*
X183997600Y-59283600D01*
X183743600Y-57353200D02*
X183997600Y-57607200D01*
X171297600Y-57353200D02*
X183743600Y-57353200D01*
G04 #@! TO.N,Net-(J1-Pad4)*
X185064400Y-60756800D02*
X186537600Y-59283600D01*
X173431200Y-57759600D02*
X178917600Y-57759600D01*
X172008800Y-59182000D02*
X173431200Y-57759600D01*
X178917600Y-57759600D02*
X179679600Y-58521600D01*
X179679600Y-58521600D02*
X179679600Y-60147200D01*
X179679600Y-60147200D02*
X180289200Y-60756800D01*
X180289200Y-60756800D02*
X185064400Y-60756800D01*
D22*
G04 #@! TO.N,Net-(J4-Pad10)*
X129038601Y-86875001D02*
X137610199Y-86875001D01*
X127863600Y-85700000D02*
X129038601Y-86875001D01*
X137610199Y-86875001D02*
X138430000Y-86055200D01*
X138430000Y-86055200D02*
X144932400Y-86055200D01*
X144932400Y-86055200D02*
X146253200Y-87376000D01*
X185590000Y-86461600D02*
X186690000Y-86461600D01*
X184675600Y-87376000D02*
X185590000Y-86461600D01*
X146253200Y-87376000D02*
X184675600Y-87376000D01*
G04 #@! TO.N,Net-(J4-Pad8)*
X150737201Y-84951201D02*
X151587200Y-85801200D01*
X149440599Y-83654599D02*
X150737201Y-84951201D01*
X123626920Y-83654599D02*
X149440599Y-83654599D01*
X122783600Y-84497919D02*
X123626920Y-83654599D01*
X122783600Y-85700000D02*
X122783600Y-84497919D01*
G04 #@! TD*
D23*
G04 #@! TO.N,GND*
G36*
X169864697Y-57746657D02*
X169615056Y-57697000D01*
X169322544Y-57697000D01*
X168889382Y-57783161D01*
X168398175Y-58111375D01*
X168198800Y-58409761D01*
X167999425Y-58111375D01*
X167508218Y-57783161D01*
X167075056Y-57697000D01*
X166782544Y-57697000D01*
X166349382Y-57783161D01*
X165858175Y-58111375D01*
X165845984Y-58129619D01*
X165836957Y-58084235D01*
X165696609Y-57874191D01*
X165486565Y-57733843D01*
X165238800Y-57684560D01*
X163538800Y-57684560D01*
X163291035Y-57733843D01*
X163080991Y-57874191D01*
X162940643Y-58084235D01*
X162891360Y-58332000D01*
X162891360Y-59982800D01*
X136930240Y-59982800D01*
X136930240Y-58535200D01*
X136880957Y-58287435D01*
X136740609Y-58077391D01*
X136530565Y-57937043D01*
X136282800Y-57887760D01*
X134582800Y-57887760D01*
X134335035Y-57937043D01*
X134124991Y-58077391D01*
X133984643Y-58287435D01*
X133975616Y-58332819D01*
X133963425Y-58314575D01*
X133472218Y-57986361D01*
X133039056Y-57900200D01*
X132746544Y-57900200D01*
X132313382Y-57986361D01*
X131822175Y-58314575D01*
X131622800Y-58612961D01*
X131423425Y-58314575D01*
X130932218Y-57986361D01*
X130499056Y-57900200D01*
X130206544Y-57900200D01*
X129773382Y-57986361D01*
X129282175Y-58314575D01*
X129082800Y-58612961D01*
X128883425Y-58314575D01*
X128392218Y-57986361D01*
X127959056Y-57900200D01*
X127666544Y-57900200D01*
X127233382Y-57986361D01*
X126742175Y-58314575D01*
X126542800Y-58612961D01*
X126343425Y-58314575D01*
X125852218Y-57986361D01*
X125419056Y-57900200D01*
X125126544Y-57900200D01*
X124693382Y-57986361D01*
X124202175Y-58314575D01*
X123988957Y-58633678D01*
X123927983Y-58503842D01*
X123499724Y-58113555D01*
X123089690Y-57943724D01*
X122859800Y-58065045D01*
X122859800Y-59258200D01*
X122879800Y-59258200D01*
X122879800Y-59512200D01*
X122859800Y-59512200D01*
X122859800Y-60705355D01*
X123089690Y-60826676D01*
X123499724Y-60656845D01*
X123927983Y-60266558D01*
X123988957Y-60136722D01*
X124202175Y-60455825D01*
X124693382Y-60784039D01*
X125126544Y-60870200D01*
X125419056Y-60870200D01*
X125852218Y-60784039D01*
X126343425Y-60455825D01*
X126542800Y-60157439D01*
X126742175Y-60455825D01*
X127066903Y-60672801D01*
X127077800Y-60727584D01*
X127077800Y-60727587D01*
X127120446Y-60941982D01*
X127282895Y-61185105D01*
X127344265Y-61226111D01*
X131192601Y-65074448D01*
X131192600Y-73792987D01*
X131133646Y-73881218D01*
X131076602Y-74168000D01*
X131091001Y-74240389D01*
X131091000Y-76588889D01*
X130948569Y-76731320D01*
X130791000Y-77111726D01*
X130791000Y-77523474D01*
X130948569Y-77903880D01*
X131239720Y-78195031D01*
X131620126Y-78352600D01*
X132031874Y-78352600D01*
X132412280Y-78195031D01*
X132703431Y-77903880D01*
X132861000Y-77523474D01*
X132861000Y-77111726D01*
X132703431Y-76731320D01*
X132561000Y-76588889D01*
X132561000Y-74441414D01*
X132619954Y-74353183D01*
X132662600Y-74138788D01*
X132662600Y-74138785D01*
X132676998Y-74066401D01*
X132662600Y-73994017D01*
X132662600Y-71281815D01*
X185378600Y-71281815D01*
X185378600Y-71872585D01*
X185604678Y-72418385D01*
X186022415Y-72836122D01*
X186568215Y-73062200D01*
X187158985Y-73062200D01*
X187704785Y-72836122D01*
X188122522Y-72418385D01*
X188348600Y-71872585D01*
X188348600Y-71281815D01*
X192378600Y-71281815D01*
X192378600Y-71872585D01*
X192604678Y-72418385D01*
X193022415Y-72836122D01*
X193568215Y-73062200D01*
X194158985Y-73062200D01*
X194704785Y-72836122D01*
X195122522Y-72418385D01*
X195348600Y-71872585D01*
X195348600Y-71281815D01*
X195122522Y-70736015D01*
X194704785Y-70318278D01*
X194158985Y-70092200D01*
X193568215Y-70092200D01*
X193022415Y-70318278D01*
X192604678Y-70736015D01*
X192378600Y-71281815D01*
X188348600Y-71281815D01*
X188122522Y-70736015D01*
X187704785Y-70318278D01*
X187158985Y-70092200D01*
X186568215Y-70092200D01*
X186022415Y-70318278D01*
X185604678Y-70736015D01*
X185378600Y-71281815D01*
X132662600Y-71281815D01*
X132662600Y-64842384D01*
X132676998Y-64770000D01*
X132662600Y-64697616D01*
X132662600Y-64697612D01*
X132619954Y-64483217D01*
X132457505Y-64240095D01*
X132396138Y-64199091D01*
X128745218Y-60548172D01*
X128883425Y-60455825D01*
X129082800Y-60157439D01*
X129282175Y-60455825D01*
X129773382Y-60784039D01*
X130206544Y-60870200D01*
X130499056Y-60870200D01*
X130932218Y-60784039D01*
X131423425Y-60455825D01*
X131622800Y-60157439D01*
X131822175Y-60455825D01*
X132313382Y-60784039D01*
X132746544Y-60870200D01*
X133039056Y-60870200D01*
X133472218Y-60784039D01*
X133963425Y-60455825D01*
X133975616Y-60437581D01*
X133984643Y-60482965D01*
X134124991Y-60693009D01*
X134335035Y-60833357D01*
X134582800Y-60882640D01*
X135311743Y-60882640D01*
X135311743Y-63802800D01*
X168167457Y-63802800D01*
X168167457Y-61592600D01*
X175385888Y-61592600D01*
X175463200Y-61607978D01*
X175540512Y-61592600D01*
X175540516Y-61592600D01*
X175769492Y-61547054D01*
X176029153Y-61373553D01*
X176072949Y-61308008D01*
X176751882Y-60629075D01*
X176942544Y-60667000D01*
X177235056Y-60667000D01*
X177425718Y-60629075D01*
X178503861Y-61707218D01*
X178547657Y-61772763D01*
X178807318Y-61946264D01*
X179036294Y-61991810D01*
X179036298Y-61991810D01*
X179113610Y-62007188D01*
X179190922Y-61991810D01*
X190988678Y-61991810D01*
X191065990Y-62007188D01*
X191143302Y-61991810D01*
X191143306Y-61991810D01*
X191372282Y-61946264D01*
X191631943Y-61772763D01*
X191675739Y-61707218D01*
X192118011Y-61264947D01*
X192183553Y-61221153D01*
X192227347Y-61155611D01*
X192227349Y-61155609D01*
X192357053Y-60961493D01*
X192357054Y-60961492D01*
X192392948Y-60781040D01*
X192467600Y-60781040D01*
X192715365Y-60731757D01*
X192925409Y-60591409D01*
X192938600Y-60571667D01*
X192938600Y-60591769D01*
X193278859Y-61413226D01*
X193907574Y-62041941D01*
X194729031Y-62382200D01*
X195618169Y-62382200D01*
X196439626Y-62041941D01*
X197068341Y-61413226D01*
X197265000Y-60938449D01*
X197265001Y-88664600D01*
X195483508Y-88664600D01*
X195982426Y-88457941D01*
X196611141Y-87829226D01*
X196951400Y-87007769D01*
X196951400Y-86118631D01*
X196611141Y-85297174D01*
X195982426Y-84668459D01*
X195160969Y-84328200D01*
X194271831Y-84328200D01*
X193450374Y-84668459D01*
X192821659Y-85297174D01*
X192481400Y-86118631D01*
X192481400Y-87007769D01*
X192821659Y-87829226D01*
X193450374Y-88457941D01*
X193949292Y-88664600D01*
X141322626Y-88664600D01*
X141447927Y-88539298D01*
X141544600Y-88305909D01*
X141544600Y-88015350D01*
X141385850Y-87856600D01*
X140436600Y-87856600D01*
X140436600Y-87876600D01*
X140182600Y-87876600D01*
X140182600Y-87856600D01*
X139233350Y-87856600D01*
X139074600Y-88015350D01*
X139074600Y-88305909D01*
X139171273Y-88539298D01*
X139296574Y-88664600D01*
X102163908Y-88664600D01*
X102662826Y-88457941D01*
X103291541Y-87829226D01*
X103631800Y-87007769D01*
X103631800Y-86912040D01*
X103695791Y-87007809D01*
X103905835Y-87148157D01*
X104153600Y-87197440D01*
X105853600Y-87197440D01*
X106101365Y-87148157D01*
X106311409Y-87007809D01*
X106451757Y-86797765D01*
X106460784Y-86752381D01*
X106472975Y-86770625D01*
X106964182Y-87098839D01*
X107397344Y-87185000D01*
X107689856Y-87185000D01*
X108123018Y-87098839D01*
X108614225Y-86770625D01*
X108813600Y-86472239D01*
X109012975Y-86770625D01*
X109504182Y-87098839D01*
X109937344Y-87185000D01*
X110229856Y-87185000D01*
X110663018Y-87098839D01*
X111154225Y-86770625D01*
X111353600Y-86472239D01*
X111552975Y-86770625D01*
X112044182Y-87098839D01*
X112477344Y-87185000D01*
X112769856Y-87185000D01*
X113203018Y-87098839D01*
X113694225Y-86770625D01*
X113893600Y-86472239D01*
X114092975Y-86770625D01*
X114584182Y-87098839D01*
X115017344Y-87185000D01*
X115309856Y-87185000D01*
X115743018Y-87098839D01*
X116234225Y-86770625D01*
X116433600Y-86472239D01*
X116632975Y-86770625D01*
X117124182Y-87098839D01*
X117557344Y-87185000D01*
X117849856Y-87185000D01*
X118283018Y-87098839D01*
X118774225Y-86770625D01*
X118973600Y-86472239D01*
X119172975Y-86770625D01*
X119664182Y-87098839D01*
X120097344Y-87185000D01*
X120389856Y-87185000D01*
X120823018Y-87098839D01*
X121314225Y-86770625D01*
X121513600Y-86472239D01*
X121712975Y-86770625D01*
X122204182Y-87098839D01*
X122637344Y-87185000D01*
X122929856Y-87185000D01*
X123363018Y-87098839D01*
X123854225Y-86770625D01*
X124053600Y-86472239D01*
X124252975Y-86770625D01*
X124744182Y-87098839D01*
X125177344Y-87185000D01*
X125469856Y-87185000D01*
X125903018Y-87098839D01*
X126394225Y-86770625D01*
X126593600Y-86472239D01*
X126792975Y-86770625D01*
X127284182Y-87098839D01*
X127717344Y-87185000D01*
X128009856Y-87185000D01*
X128230007Y-87141209D01*
X128448274Y-87359477D01*
X128490672Y-87422930D01*
X128554125Y-87465328D01*
X128554127Y-87465330D01*
X128679503Y-87549103D01*
X128742064Y-87590905D01*
X128963749Y-87635001D01*
X128963753Y-87635001D01*
X129038600Y-87649889D01*
X129113447Y-87635001D01*
X137535352Y-87635001D01*
X137610199Y-87649889D01*
X137685046Y-87635001D01*
X137685051Y-87635001D01*
X137906736Y-87590905D01*
X138158128Y-87422930D01*
X138200530Y-87359471D01*
X138744802Y-86815200D01*
X139275974Y-86815200D01*
X139171273Y-86919902D01*
X139074600Y-87153291D01*
X139074600Y-87443850D01*
X139233350Y-87602600D01*
X140182600Y-87602600D01*
X140182600Y-87582600D01*
X140436600Y-87582600D01*
X140436600Y-87602600D01*
X141385850Y-87602600D01*
X141544600Y-87443850D01*
X141544600Y-87153291D01*
X141447927Y-86919902D01*
X141343226Y-86815200D01*
X144617599Y-86815200D01*
X145662871Y-87860473D01*
X145705271Y-87923929D01*
X145956663Y-88091904D01*
X146178348Y-88136000D01*
X146178352Y-88136000D01*
X146253199Y-88150888D01*
X146328046Y-88136000D01*
X184600753Y-88136000D01*
X184675600Y-88150888D01*
X184750447Y-88136000D01*
X184750452Y-88136000D01*
X184972137Y-88091904D01*
X185223529Y-87923929D01*
X185265931Y-87860470D01*
X185372098Y-87754303D01*
X185382191Y-87769409D01*
X185592235Y-87909757D01*
X185840000Y-87959040D01*
X187540000Y-87959040D01*
X187787765Y-87909757D01*
X187997809Y-87769409D01*
X188138157Y-87559365D01*
X188158739Y-87455892D01*
X188463076Y-87733245D01*
X188873110Y-87903076D01*
X189103000Y-87781755D01*
X189103000Y-86588600D01*
X189357000Y-86588600D01*
X189357000Y-87781755D01*
X189586890Y-87903076D01*
X189996924Y-87733245D01*
X190425183Y-87342958D01*
X190671486Y-86818492D01*
X190550819Y-86588600D01*
X189357000Y-86588600D01*
X189103000Y-86588600D01*
X189083000Y-86588600D01*
X189083000Y-86334600D01*
X189103000Y-86334600D01*
X189103000Y-85141445D01*
X189357000Y-85141445D01*
X189357000Y-86334600D01*
X190550819Y-86334600D01*
X190671486Y-86104708D01*
X190425183Y-85580242D01*
X189996924Y-85189955D01*
X189586890Y-85020124D01*
X189357000Y-85141445D01*
X189103000Y-85141445D01*
X188873110Y-85020124D01*
X188463076Y-85189955D01*
X188158739Y-85467308D01*
X188138157Y-85363835D01*
X187997809Y-85153791D01*
X187787765Y-85013443D01*
X187540000Y-84964160D01*
X185840000Y-84964160D01*
X185592235Y-85013443D01*
X185382191Y-85153791D01*
X185241843Y-85363835D01*
X185192560Y-85611600D01*
X185192560Y-85813117D01*
X185042071Y-85913671D01*
X184999671Y-85977127D01*
X184360799Y-86616000D01*
X179304594Y-86616000D01*
X179653235Y-86471588D01*
X179776370Y-86183975D01*
X178658800Y-85066405D01*
X177541230Y-86183975D01*
X177664365Y-86471588D01*
X178043381Y-86616000D01*
X166279228Y-86616000D01*
X166698244Y-86442438D01*
X167214438Y-85926244D01*
X167493800Y-85251804D01*
X167493800Y-84574534D01*
X176814093Y-84574534D01*
X176835014Y-85304243D01*
X177074012Y-85881235D01*
X177361625Y-86004370D01*
X178479195Y-84886800D01*
X178838405Y-84886800D01*
X179955975Y-86004370D01*
X180243588Y-85881235D01*
X180503507Y-85199066D01*
X180482586Y-84469357D01*
X180243588Y-83892365D01*
X179955975Y-83769230D01*
X178838405Y-84886800D01*
X178479195Y-84886800D01*
X177361625Y-83769230D01*
X177074012Y-83892365D01*
X176814093Y-84574534D01*
X167493800Y-84574534D01*
X167493800Y-84521796D01*
X167214438Y-83847356D01*
X166956707Y-83589625D01*
X177541230Y-83589625D01*
X178658800Y-84707195D01*
X179776370Y-83589625D01*
X179653235Y-83302012D01*
X178971066Y-83042093D01*
X178241357Y-83063014D01*
X177664365Y-83302012D01*
X177541230Y-83589625D01*
X166956707Y-83589625D01*
X166698244Y-83331162D01*
X166023804Y-83051800D01*
X165293796Y-83051800D01*
X164989352Y-83177905D01*
X161454511Y-79643065D01*
X161413505Y-79581695D01*
X161170383Y-79419246D01*
X160955988Y-79376600D01*
X160955984Y-79376600D01*
X160883600Y-79362202D01*
X160811216Y-79376600D01*
X132554711Y-79376600D01*
X132412280Y-79234169D01*
X132031874Y-79076600D01*
X131620126Y-79076600D01*
X131239720Y-79234169D01*
X130948569Y-79525320D01*
X130791000Y-79905726D01*
X130791000Y-80317474D01*
X130948569Y-80697880D01*
X131239720Y-80989031D01*
X131620126Y-81146600D01*
X132031874Y-81146600D01*
X132412280Y-80989031D01*
X132554711Y-80846600D01*
X160579154Y-80846600D01*
X163949905Y-84217352D01*
X163823800Y-84521796D01*
X163823800Y-85251804D01*
X164103162Y-85926244D01*
X164619356Y-86442438D01*
X165038372Y-86616000D01*
X157893640Y-86616000D01*
X158108686Y-86158092D01*
X157988019Y-85928200D01*
X156794200Y-85928200D01*
X156794200Y-85948200D01*
X156540200Y-85948200D01*
X156540200Y-85928200D01*
X156520200Y-85928200D01*
X156520200Y-85674200D01*
X156540200Y-85674200D01*
X156540200Y-84481045D01*
X156794200Y-84481045D01*
X156794200Y-85674200D01*
X157988019Y-85674200D01*
X158108686Y-85444308D01*
X157862383Y-84919842D01*
X157434124Y-84529555D01*
X157024090Y-84359724D01*
X156794200Y-84481045D01*
X156540200Y-84481045D01*
X156310310Y-84359724D01*
X155900276Y-84529555D01*
X155472017Y-84919842D01*
X155411043Y-85049678D01*
X155197825Y-84730575D01*
X154706618Y-84402361D01*
X154273456Y-84316200D01*
X153980944Y-84316200D01*
X153547782Y-84402361D01*
X153056575Y-84730575D01*
X152857200Y-85028961D01*
X152657825Y-84730575D01*
X152166618Y-84402361D01*
X151733456Y-84316200D01*
X151440944Y-84316200D01*
X151220793Y-84359991D01*
X150030930Y-83170129D01*
X149988528Y-83106670D01*
X149737136Y-82938695D01*
X149515451Y-82894599D01*
X149515446Y-82894599D01*
X149440599Y-82879711D01*
X149365752Y-82894599D01*
X123701768Y-82894599D01*
X123626920Y-82879711D01*
X123552072Y-82894599D01*
X123552068Y-82894599D01*
X123330383Y-82938695D01*
X123078991Y-83106670D01*
X123036591Y-83170126D01*
X122299128Y-83907590D01*
X122235672Y-83949990D01*
X122193272Y-84013446D01*
X122193271Y-84013447D01*
X122067697Y-84201382D01*
X122023887Y-84421630D01*
X121712975Y-84629375D01*
X121513600Y-84927761D01*
X121314225Y-84629375D01*
X120823018Y-84301161D01*
X120389856Y-84215000D01*
X120097344Y-84215000D01*
X119664182Y-84301161D01*
X119172975Y-84629375D01*
X118973600Y-84927761D01*
X118774225Y-84629375D01*
X118283018Y-84301161D01*
X117849856Y-84215000D01*
X117557344Y-84215000D01*
X117124182Y-84301161D01*
X116632975Y-84629375D01*
X116433600Y-84927761D01*
X116234225Y-84629375D01*
X115743018Y-84301161D01*
X115309856Y-84215000D01*
X115017344Y-84215000D01*
X114584182Y-84301161D01*
X114092975Y-84629375D01*
X113893600Y-84927761D01*
X113694225Y-84629375D01*
X113203018Y-84301161D01*
X112769856Y-84215000D01*
X112477344Y-84215000D01*
X112044182Y-84301161D01*
X111552975Y-84629375D01*
X111353600Y-84927761D01*
X111154225Y-84629375D01*
X110663018Y-84301161D01*
X110229856Y-84215000D01*
X109937344Y-84215000D01*
X109504182Y-84301161D01*
X109012975Y-84629375D01*
X108813600Y-84927761D01*
X108614225Y-84629375D01*
X108123018Y-84301161D01*
X107689856Y-84215000D01*
X107397344Y-84215000D01*
X106964182Y-84301161D01*
X106472975Y-84629375D01*
X106460784Y-84647619D01*
X106451757Y-84602235D01*
X106311409Y-84392191D01*
X106101365Y-84251843D01*
X105853600Y-84202560D01*
X104153600Y-84202560D01*
X103905835Y-84251843D01*
X103695791Y-84392191D01*
X103555443Y-84602235D01*
X103506160Y-84850000D01*
X103506160Y-85815310D01*
X103291541Y-85297174D01*
X102662826Y-84668459D01*
X101841369Y-84328200D01*
X100952231Y-84328200D01*
X100130774Y-84668459D01*
X99502059Y-85297174D01*
X99185400Y-86061656D01*
X99185400Y-82294816D01*
X99350314Y-82692953D01*
X99810247Y-83152886D01*
X100411178Y-83401800D01*
X101061622Y-83401800D01*
X101662553Y-83152886D01*
X102122486Y-82692953D01*
X102201664Y-82501800D01*
X103813612Y-82501800D01*
X103886000Y-82516199D01*
X103958388Y-82501800D01*
X105771136Y-82501800D01*
X105850314Y-82692953D01*
X106310247Y-83152886D01*
X106911178Y-83401800D01*
X107561622Y-83401800D01*
X108162553Y-83152886D01*
X108622486Y-82692953D01*
X108871400Y-82092022D01*
X108871400Y-81441578D01*
X108622486Y-80840647D01*
X108162553Y-80380714D01*
X107561622Y-80131800D01*
X106911178Y-80131800D01*
X106310247Y-80380714D01*
X105850314Y-80840647D01*
X105771136Y-81031800D01*
X104621000Y-81031800D01*
X104621000Y-78419332D01*
X106263473Y-78419332D01*
X106362136Y-78686187D01*
X106971861Y-78912708D01*
X107621860Y-78888656D01*
X108110664Y-78686187D01*
X108209327Y-78419332D01*
X107236400Y-77446405D01*
X106263473Y-78419332D01*
X104621000Y-78419332D01*
X104621000Y-77002261D01*
X105590492Y-77002261D01*
X105614544Y-77652260D01*
X105817013Y-78141064D01*
X106083868Y-78239727D01*
X107056795Y-77266800D01*
X107416005Y-77266800D01*
X108388932Y-78239727D01*
X108655787Y-78141064D01*
X108882308Y-77531339D01*
X108858256Y-76881340D01*
X108655787Y-76392536D01*
X108388932Y-76293873D01*
X107416005Y-77266800D01*
X107056795Y-77266800D01*
X106083868Y-76293873D01*
X105817013Y-76392536D01*
X105590492Y-77002261D01*
X104621000Y-77002261D01*
X104621000Y-76114268D01*
X106263473Y-76114268D01*
X107236400Y-77087195D01*
X108209327Y-76114268D01*
X108110664Y-75847413D01*
X107745792Y-75711858D01*
X107873800Y-75583850D01*
X107873800Y-74659600D01*
X108127800Y-74659600D01*
X108127800Y-75583850D01*
X108286550Y-75742600D01*
X108827110Y-75742600D01*
X109060499Y-75645927D01*
X109239127Y-75467298D01*
X109335800Y-75233909D01*
X109335800Y-74818350D01*
X109177050Y-74659600D01*
X108127800Y-74659600D01*
X107873800Y-74659600D01*
X106824550Y-74659600D01*
X106665800Y-74818350D01*
X106665800Y-75233909D01*
X106762473Y-75467298D01*
X106936936Y-75641762D01*
X106850940Y-75644944D01*
X106362136Y-75847413D01*
X106263473Y-76114268D01*
X104621000Y-76114268D01*
X104621000Y-74574046D01*
X105977447Y-73217600D01*
X106766150Y-73217600D01*
X106916214Y-73442186D01*
X106917397Y-73442977D01*
X106762473Y-73597902D01*
X106665800Y-73831291D01*
X106665800Y-74246850D01*
X106824550Y-74405600D01*
X107873800Y-74405600D01*
X107873800Y-74385600D01*
X108127800Y-74385600D01*
X108127800Y-74405600D01*
X109177050Y-74405600D01*
X109335800Y-74246850D01*
X109335800Y-73831291D01*
X109239127Y-73597902D01*
X109084203Y-73442977D01*
X109085386Y-73442186D01*
X109279927Y-73151036D01*
X109348240Y-72807601D01*
X109348240Y-72157599D01*
X109279927Y-71814164D01*
X109085386Y-71523014D01*
X108794236Y-71328473D01*
X108450801Y-71260160D01*
X107803823Y-71260160D01*
X107664211Y-71166874D01*
X107449816Y-71124228D01*
X107449812Y-71124228D01*
X107377428Y-71109830D01*
X107305044Y-71124228D01*
X106860075Y-71124228D01*
X105937000Y-70201154D01*
X105937000Y-69796526D01*
X105779431Y-69416120D01*
X105555511Y-69192200D01*
X105771136Y-69192200D01*
X105850314Y-69383353D01*
X106310247Y-69843286D01*
X106911178Y-70092200D01*
X107561622Y-70092200D01*
X108162553Y-69843286D01*
X108622486Y-69383353D01*
X108871400Y-68782422D01*
X108871400Y-68131978D01*
X108792222Y-67940825D01*
X110094937Y-66638109D01*
X110156305Y-66597105D01*
X110318754Y-66353983D01*
X110361400Y-66139588D01*
X110361400Y-66139585D01*
X110375798Y-66067201D01*
X110361400Y-65994817D01*
X110361400Y-62203000D01*
X112957616Y-62203000D01*
X113030000Y-62217398D01*
X113102384Y-62203000D01*
X113102388Y-62203000D01*
X113316783Y-62160354D01*
X113559905Y-61997905D01*
X113600911Y-61936535D01*
X114716903Y-60820543D01*
X114966544Y-60870200D01*
X115259056Y-60870200D01*
X115692218Y-60784039D01*
X116183425Y-60455825D01*
X116396643Y-60136722D01*
X116457617Y-60266558D01*
X116885876Y-60656845D01*
X117295910Y-60826676D01*
X117525800Y-60705355D01*
X117525800Y-59512200D01*
X117505800Y-59512200D01*
X117505800Y-59258200D01*
X117525800Y-59258200D01*
X117525800Y-58065045D01*
X117779800Y-58065045D01*
X117779800Y-59258200D01*
X117799800Y-59258200D01*
X117799800Y-59512200D01*
X117779800Y-59512200D01*
X117779800Y-60705355D01*
X118009690Y-60826676D01*
X118419724Y-60656845D01*
X118847983Y-60266558D01*
X118908957Y-60136722D01*
X119122175Y-60455825D01*
X119613382Y-60784039D01*
X120046544Y-60870200D01*
X120339056Y-60870200D01*
X120772218Y-60784039D01*
X121263425Y-60455825D01*
X121476643Y-60136722D01*
X121537617Y-60266558D01*
X121965876Y-60656845D01*
X122375910Y-60826676D01*
X122605800Y-60705355D01*
X122605800Y-59512200D01*
X122585800Y-59512200D01*
X122585800Y-59258200D01*
X122605800Y-59258200D01*
X122605800Y-58065045D01*
X122375910Y-57943724D01*
X121965876Y-58113555D01*
X121537617Y-58503842D01*
X121476643Y-58633678D01*
X121263425Y-58314575D01*
X120772218Y-57986361D01*
X120339056Y-57900200D01*
X120046544Y-57900200D01*
X119613382Y-57986361D01*
X119122175Y-58314575D01*
X118908957Y-58633678D01*
X118847983Y-58503842D01*
X118419724Y-58113555D01*
X118009690Y-57943724D01*
X117779800Y-58065045D01*
X117525800Y-58065045D01*
X117295910Y-57943724D01*
X116885876Y-58113555D01*
X116457617Y-58503842D01*
X116396643Y-58633678D01*
X116183425Y-58314575D01*
X115692218Y-57986361D01*
X115259056Y-57900200D01*
X114966544Y-57900200D01*
X114533382Y-57986361D01*
X114042175Y-58314575D01*
X113842800Y-58612961D01*
X113643425Y-58314575D01*
X113152218Y-57986361D01*
X112719056Y-57900200D01*
X112426544Y-57900200D01*
X111993382Y-57986361D01*
X111502175Y-58314575D01*
X111302800Y-58612961D01*
X111103425Y-58314575D01*
X110612218Y-57986361D01*
X110179056Y-57900200D01*
X109886544Y-57900200D01*
X109453382Y-57986361D01*
X108962175Y-58314575D01*
X108762800Y-58612961D01*
X108563425Y-58314575D01*
X108072218Y-57986361D01*
X107639056Y-57900200D01*
X107346544Y-57900200D01*
X106913382Y-57986361D01*
X106422175Y-58314575D01*
X106222800Y-58612961D01*
X106023425Y-58314575D01*
X105532218Y-57986361D01*
X105099056Y-57900200D01*
X104806544Y-57900200D01*
X104373382Y-57986361D01*
X103882175Y-58314575D01*
X103553961Y-58805782D01*
X103438708Y-59385200D01*
X103553961Y-59964618D01*
X103882175Y-60455825D01*
X104373382Y-60784039D01*
X104806544Y-60870200D01*
X105099056Y-60870200D01*
X105532218Y-60784039D01*
X106023425Y-60455825D01*
X106222800Y-60157439D01*
X106422175Y-60455825D01*
X106913382Y-60784039D01*
X107346544Y-60870200D01*
X107639056Y-60870200D01*
X108072218Y-60784039D01*
X108563425Y-60455825D01*
X108762800Y-60157439D01*
X108962175Y-60455825D01*
X109441019Y-60775778D01*
X109198095Y-60938095D01*
X109157400Y-60999000D01*
X109096495Y-61039695D01*
X108934046Y-61282818D01*
X108891400Y-61497213D01*
X108891400Y-61497216D01*
X108877002Y-61569600D01*
X108891400Y-61641984D01*
X108891401Y-65762752D01*
X107752775Y-66901378D01*
X107561622Y-66822200D01*
X106911178Y-66822200D01*
X106310247Y-67071114D01*
X105850314Y-67531047D01*
X105771136Y-67722200D01*
X102201664Y-67722200D01*
X102122486Y-67531047D01*
X101662553Y-67071114D01*
X101061622Y-66822200D01*
X100411178Y-66822200D01*
X99810247Y-67071114D01*
X99350314Y-67531047D01*
X99185400Y-67929184D01*
X99185400Y-65109732D01*
X99763473Y-65109732D01*
X99862136Y-65376587D01*
X100471861Y-65603108D01*
X101121860Y-65579056D01*
X101610664Y-65376587D01*
X101709327Y-65109732D01*
X106263473Y-65109732D01*
X106362136Y-65376587D01*
X106971861Y-65603108D01*
X107621860Y-65579056D01*
X108110664Y-65376587D01*
X108209327Y-65109732D01*
X107236400Y-64136805D01*
X106263473Y-65109732D01*
X101709327Y-65109732D01*
X100736400Y-64136805D01*
X99763473Y-65109732D01*
X99185400Y-65109732D01*
X99185400Y-64513722D01*
X99317013Y-64831464D01*
X99583868Y-64930127D01*
X100556795Y-63957200D01*
X100916005Y-63957200D01*
X101888932Y-64930127D01*
X102155787Y-64831464D01*
X102382308Y-64221739D01*
X102362731Y-63692661D01*
X105590492Y-63692661D01*
X105614544Y-64342660D01*
X105817013Y-64831464D01*
X106083868Y-64930127D01*
X107056795Y-63957200D01*
X107416005Y-63957200D01*
X108388932Y-64930127D01*
X108655787Y-64831464D01*
X108882308Y-64221739D01*
X108858256Y-63571740D01*
X108655787Y-63082936D01*
X108388932Y-62984273D01*
X107416005Y-63957200D01*
X107056795Y-63957200D01*
X106083868Y-62984273D01*
X105817013Y-63082936D01*
X105590492Y-63692661D01*
X102362731Y-63692661D01*
X102358256Y-63571740D01*
X102155787Y-63082936D01*
X101888932Y-62984273D01*
X100916005Y-63957200D01*
X100556795Y-63957200D01*
X99583868Y-62984273D01*
X99317013Y-63082936D01*
X99185400Y-63437198D01*
X99185400Y-62804668D01*
X99763473Y-62804668D01*
X100736400Y-63777595D01*
X101709327Y-62804668D01*
X106263473Y-62804668D01*
X107236400Y-63777595D01*
X108209327Y-62804668D01*
X108110664Y-62537813D01*
X107500939Y-62311292D01*
X106850940Y-62335344D01*
X106362136Y-62537813D01*
X106263473Y-62804668D01*
X101709327Y-62804668D01*
X101610664Y-62537813D01*
X101000939Y-62311292D01*
X100350940Y-62335344D01*
X99862136Y-62537813D01*
X99763473Y-62804668D01*
X99185400Y-62804668D01*
X99185400Y-60398354D01*
X99248059Y-60549626D01*
X99876774Y-61178341D01*
X100698231Y-61518600D01*
X101587369Y-61518600D01*
X102408826Y-61178341D01*
X103037541Y-60549626D01*
X103377800Y-59728169D01*
X103377800Y-58839031D01*
X103037541Y-58017574D01*
X102408826Y-57388859D01*
X102012270Y-57224600D01*
X170386753Y-57224600D01*
X169864697Y-57746657D01*
X169864697Y-57746657D01*
G37*
X169864697Y-57746657D02*
X169615056Y-57697000D01*
X169322544Y-57697000D01*
X168889382Y-57783161D01*
X168398175Y-58111375D01*
X168198800Y-58409761D01*
X167999425Y-58111375D01*
X167508218Y-57783161D01*
X167075056Y-57697000D01*
X166782544Y-57697000D01*
X166349382Y-57783161D01*
X165858175Y-58111375D01*
X165845984Y-58129619D01*
X165836957Y-58084235D01*
X165696609Y-57874191D01*
X165486565Y-57733843D01*
X165238800Y-57684560D01*
X163538800Y-57684560D01*
X163291035Y-57733843D01*
X163080991Y-57874191D01*
X162940643Y-58084235D01*
X162891360Y-58332000D01*
X162891360Y-59982800D01*
X136930240Y-59982800D01*
X136930240Y-58535200D01*
X136880957Y-58287435D01*
X136740609Y-58077391D01*
X136530565Y-57937043D01*
X136282800Y-57887760D01*
X134582800Y-57887760D01*
X134335035Y-57937043D01*
X134124991Y-58077391D01*
X133984643Y-58287435D01*
X133975616Y-58332819D01*
X133963425Y-58314575D01*
X133472218Y-57986361D01*
X133039056Y-57900200D01*
X132746544Y-57900200D01*
X132313382Y-57986361D01*
X131822175Y-58314575D01*
X131622800Y-58612961D01*
X131423425Y-58314575D01*
X130932218Y-57986361D01*
X130499056Y-57900200D01*
X130206544Y-57900200D01*
X129773382Y-57986361D01*
X129282175Y-58314575D01*
X129082800Y-58612961D01*
X128883425Y-58314575D01*
X128392218Y-57986361D01*
X127959056Y-57900200D01*
X127666544Y-57900200D01*
X127233382Y-57986361D01*
X126742175Y-58314575D01*
X126542800Y-58612961D01*
X126343425Y-58314575D01*
X125852218Y-57986361D01*
X125419056Y-57900200D01*
X125126544Y-57900200D01*
X124693382Y-57986361D01*
X124202175Y-58314575D01*
X123988957Y-58633678D01*
X123927983Y-58503842D01*
X123499724Y-58113555D01*
X123089690Y-57943724D01*
X122859800Y-58065045D01*
X122859800Y-59258200D01*
X122879800Y-59258200D01*
X122879800Y-59512200D01*
X122859800Y-59512200D01*
X122859800Y-60705355D01*
X123089690Y-60826676D01*
X123499724Y-60656845D01*
X123927983Y-60266558D01*
X123988957Y-60136722D01*
X124202175Y-60455825D01*
X124693382Y-60784039D01*
X125126544Y-60870200D01*
X125419056Y-60870200D01*
X125852218Y-60784039D01*
X126343425Y-60455825D01*
X126542800Y-60157439D01*
X126742175Y-60455825D01*
X127066903Y-60672801D01*
X127077800Y-60727584D01*
X127077800Y-60727587D01*
X127120446Y-60941982D01*
X127282895Y-61185105D01*
X127344265Y-61226111D01*
X131192601Y-65074448D01*
X131192600Y-73792987D01*
X131133646Y-73881218D01*
X131076602Y-74168000D01*
X131091001Y-74240389D01*
X131091000Y-76588889D01*
X130948569Y-76731320D01*
X130791000Y-77111726D01*
X130791000Y-77523474D01*
X130948569Y-77903880D01*
X131239720Y-78195031D01*
X131620126Y-78352600D01*
X132031874Y-78352600D01*
X132412280Y-78195031D01*
X132703431Y-77903880D01*
X132861000Y-77523474D01*
X132861000Y-77111726D01*
X132703431Y-76731320D01*
X132561000Y-76588889D01*
X132561000Y-74441414D01*
X132619954Y-74353183D01*
X132662600Y-74138788D01*
X132662600Y-74138785D01*
X132676998Y-74066401D01*
X132662600Y-73994017D01*
X132662600Y-71281815D01*
X185378600Y-71281815D01*
X185378600Y-71872585D01*
X185604678Y-72418385D01*
X186022415Y-72836122D01*
X186568215Y-73062200D01*
X187158985Y-73062200D01*
X187704785Y-72836122D01*
X188122522Y-72418385D01*
X188348600Y-71872585D01*
X188348600Y-71281815D01*
X192378600Y-71281815D01*
X192378600Y-71872585D01*
X192604678Y-72418385D01*
X193022415Y-72836122D01*
X193568215Y-73062200D01*
X194158985Y-73062200D01*
X194704785Y-72836122D01*
X195122522Y-72418385D01*
X195348600Y-71872585D01*
X195348600Y-71281815D01*
X195122522Y-70736015D01*
X194704785Y-70318278D01*
X194158985Y-70092200D01*
X193568215Y-70092200D01*
X193022415Y-70318278D01*
X192604678Y-70736015D01*
X192378600Y-71281815D01*
X188348600Y-71281815D01*
X188122522Y-70736015D01*
X187704785Y-70318278D01*
X187158985Y-70092200D01*
X186568215Y-70092200D01*
X186022415Y-70318278D01*
X185604678Y-70736015D01*
X185378600Y-71281815D01*
X132662600Y-71281815D01*
X132662600Y-64842384D01*
X132676998Y-64770000D01*
X132662600Y-64697616D01*
X132662600Y-64697612D01*
X132619954Y-64483217D01*
X132457505Y-64240095D01*
X132396138Y-64199091D01*
X128745218Y-60548172D01*
X128883425Y-60455825D01*
X129082800Y-60157439D01*
X129282175Y-60455825D01*
X129773382Y-60784039D01*
X130206544Y-60870200D01*
X130499056Y-60870200D01*
X130932218Y-60784039D01*
X131423425Y-60455825D01*
X131622800Y-60157439D01*
X131822175Y-60455825D01*
X132313382Y-60784039D01*
X132746544Y-60870200D01*
X133039056Y-60870200D01*
X133472218Y-60784039D01*
X133963425Y-60455825D01*
X133975616Y-60437581D01*
X133984643Y-60482965D01*
X134124991Y-60693009D01*
X134335035Y-60833357D01*
X134582800Y-60882640D01*
X135311743Y-60882640D01*
X135311743Y-63802800D01*
X168167457Y-63802800D01*
X168167457Y-61592600D01*
X175385888Y-61592600D01*
X175463200Y-61607978D01*
X175540512Y-61592600D01*
X175540516Y-61592600D01*
X175769492Y-61547054D01*
X176029153Y-61373553D01*
X176072949Y-61308008D01*
X176751882Y-60629075D01*
X176942544Y-60667000D01*
X177235056Y-60667000D01*
X177425718Y-60629075D01*
X178503861Y-61707218D01*
X178547657Y-61772763D01*
X178807318Y-61946264D01*
X179036294Y-61991810D01*
X179036298Y-61991810D01*
X179113610Y-62007188D01*
X179190922Y-61991810D01*
X190988678Y-61991810D01*
X191065990Y-62007188D01*
X191143302Y-61991810D01*
X191143306Y-61991810D01*
X191372282Y-61946264D01*
X191631943Y-61772763D01*
X191675739Y-61707218D01*
X192118011Y-61264947D01*
X192183553Y-61221153D01*
X192227347Y-61155611D01*
X192227349Y-61155609D01*
X192357053Y-60961493D01*
X192357054Y-60961492D01*
X192392948Y-60781040D01*
X192467600Y-60781040D01*
X192715365Y-60731757D01*
X192925409Y-60591409D01*
X192938600Y-60571667D01*
X192938600Y-60591769D01*
X193278859Y-61413226D01*
X193907574Y-62041941D01*
X194729031Y-62382200D01*
X195618169Y-62382200D01*
X196439626Y-62041941D01*
X197068341Y-61413226D01*
X197265000Y-60938449D01*
X197265001Y-88664600D01*
X195483508Y-88664600D01*
X195982426Y-88457941D01*
X196611141Y-87829226D01*
X196951400Y-87007769D01*
X196951400Y-86118631D01*
X196611141Y-85297174D01*
X195982426Y-84668459D01*
X195160969Y-84328200D01*
X194271831Y-84328200D01*
X193450374Y-84668459D01*
X192821659Y-85297174D01*
X192481400Y-86118631D01*
X192481400Y-87007769D01*
X192821659Y-87829226D01*
X193450374Y-88457941D01*
X193949292Y-88664600D01*
X141322626Y-88664600D01*
X141447927Y-88539298D01*
X141544600Y-88305909D01*
X141544600Y-88015350D01*
X141385850Y-87856600D01*
X140436600Y-87856600D01*
X140436600Y-87876600D01*
X140182600Y-87876600D01*
X140182600Y-87856600D01*
X139233350Y-87856600D01*
X139074600Y-88015350D01*
X139074600Y-88305909D01*
X139171273Y-88539298D01*
X139296574Y-88664600D01*
X102163908Y-88664600D01*
X102662826Y-88457941D01*
X103291541Y-87829226D01*
X103631800Y-87007769D01*
X103631800Y-86912040D01*
X103695791Y-87007809D01*
X103905835Y-87148157D01*
X104153600Y-87197440D01*
X105853600Y-87197440D01*
X106101365Y-87148157D01*
X106311409Y-87007809D01*
X106451757Y-86797765D01*
X106460784Y-86752381D01*
X106472975Y-86770625D01*
X106964182Y-87098839D01*
X107397344Y-87185000D01*
X107689856Y-87185000D01*
X108123018Y-87098839D01*
X108614225Y-86770625D01*
X108813600Y-86472239D01*
X109012975Y-86770625D01*
X109504182Y-87098839D01*
X109937344Y-87185000D01*
X110229856Y-87185000D01*
X110663018Y-87098839D01*
X111154225Y-86770625D01*
X111353600Y-86472239D01*
X111552975Y-86770625D01*
X112044182Y-87098839D01*
X112477344Y-87185000D01*
X112769856Y-87185000D01*
X113203018Y-87098839D01*
X113694225Y-86770625D01*
X113893600Y-86472239D01*
X114092975Y-86770625D01*
X114584182Y-87098839D01*
X115017344Y-87185000D01*
X115309856Y-87185000D01*
X115743018Y-87098839D01*
X116234225Y-86770625D01*
X116433600Y-86472239D01*
X116632975Y-86770625D01*
X117124182Y-87098839D01*
X117557344Y-87185000D01*
X117849856Y-87185000D01*
X118283018Y-87098839D01*
X118774225Y-86770625D01*
X118973600Y-86472239D01*
X119172975Y-86770625D01*
X119664182Y-87098839D01*
X120097344Y-87185000D01*
X120389856Y-87185000D01*
X120823018Y-87098839D01*
X121314225Y-86770625D01*
X121513600Y-86472239D01*
X121712975Y-86770625D01*
X122204182Y-87098839D01*
X122637344Y-87185000D01*
X122929856Y-87185000D01*
X123363018Y-87098839D01*
X123854225Y-86770625D01*
X124053600Y-86472239D01*
X124252975Y-86770625D01*
X124744182Y-87098839D01*
X125177344Y-87185000D01*
X125469856Y-87185000D01*
X125903018Y-87098839D01*
X126394225Y-86770625D01*
X126593600Y-86472239D01*
X126792975Y-86770625D01*
X127284182Y-87098839D01*
X127717344Y-87185000D01*
X128009856Y-87185000D01*
X128230007Y-87141209D01*
X128448274Y-87359477D01*
X128490672Y-87422930D01*
X128554125Y-87465328D01*
X128554127Y-87465330D01*
X128679503Y-87549103D01*
X128742064Y-87590905D01*
X128963749Y-87635001D01*
X128963753Y-87635001D01*
X129038600Y-87649889D01*
X129113447Y-87635001D01*
X137535352Y-87635001D01*
X137610199Y-87649889D01*
X137685046Y-87635001D01*
X137685051Y-87635001D01*
X137906736Y-87590905D01*
X138158128Y-87422930D01*
X138200530Y-87359471D01*
X138744802Y-86815200D01*
X139275974Y-86815200D01*
X139171273Y-86919902D01*
X139074600Y-87153291D01*
X139074600Y-87443850D01*
X139233350Y-87602600D01*
X140182600Y-87602600D01*
X140182600Y-87582600D01*
X140436600Y-87582600D01*
X140436600Y-87602600D01*
X141385850Y-87602600D01*
X141544600Y-87443850D01*
X141544600Y-87153291D01*
X141447927Y-86919902D01*
X141343226Y-86815200D01*
X144617599Y-86815200D01*
X145662871Y-87860473D01*
X145705271Y-87923929D01*
X145956663Y-88091904D01*
X146178348Y-88136000D01*
X146178352Y-88136000D01*
X146253199Y-88150888D01*
X146328046Y-88136000D01*
X184600753Y-88136000D01*
X184675600Y-88150888D01*
X184750447Y-88136000D01*
X184750452Y-88136000D01*
X184972137Y-88091904D01*
X185223529Y-87923929D01*
X185265931Y-87860470D01*
X185372098Y-87754303D01*
X185382191Y-87769409D01*
X185592235Y-87909757D01*
X185840000Y-87959040D01*
X187540000Y-87959040D01*
X187787765Y-87909757D01*
X187997809Y-87769409D01*
X188138157Y-87559365D01*
X188158739Y-87455892D01*
X188463076Y-87733245D01*
X188873110Y-87903076D01*
X189103000Y-87781755D01*
X189103000Y-86588600D01*
X189357000Y-86588600D01*
X189357000Y-87781755D01*
X189586890Y-87903076D01*
X189996924Y-87733245D01*
X190425183Y-87342958D01*
X190671486Y-86818492D01*
X190550819Y-86588600D01*
X189357000Y-86588600D01*
X189103000Y-86588600D01*
X189083000Y-86588600D01*
X189083000Y-86334600D01*
X189103000Y-86334600D01*
X189103000Y-85141445D01*
X189357000Y-85141445D01*
X189357000Y-86334600D01*
X190550819Y-86334600D01*
X190671486Y-86104708D01*
X190425183Y-85580242D01*
X189996924Y-85189955D01*
X189586890Y-85020124D01*
X189357000Y-85141445D01*
X189103000Y-85141445D01*
X188873110Y-85020124D01*
X188463076Y-85189955D01*
X188158739Y-85467308D01*
X188138157Y-85363835D01*
X187997809Y-85153791D01*
X187787765Y-85013443D01*
X187540000Y-84964160D01*
X185840000Y-84964160D01*
X185592235Y-85013443D01*
X185382191Y-85153791D01*
X185241843Y-85363835D01*
X185192560Y-85611600D01*
X185192560Y-85813117D01*
X185042071Y-85913671D01*
X184999671Y-85977127D01*
X184360799Y-86616000D01*
X179304594Y-86616000D01*
X179653235Y-86471588D01*
X179776370Y-86183975D01*
X178658800Y-85066405D01*
X177541230Y-86183975D01*
X177664365Y-86471588D01*
X178043381Y-86616000D01*
X166279228Y-86616000D01*
X166698244Y-86442438D01*
X167214438Y-85926244D01*
X167493800Y-85251804D01*
X167493800Y-84574534D01*
X176814093Y-84574534D01*
X176835014Y-85304243D01*
X177074012Y-85881235D01*
X177361625Y-86004370D01*
X178479195Y-84886800D01*
X178838405Y-84886800D01*
X179955975Y-86004370D01*
X180243588Y-85881235D01*
X180503507Y-85199066D01*
X180482586Y-84469357D01*
X180243588Y-83892365D01*
X179955975Y-83769230D01*
X178838405Y-84886800D01*
X178479195Y-84886800D01*
X177361625Y-83769230D01*
X177074012Y-83892365D01*
X176814093Y-84574534D01*
X167493800Y-84574534D01*
X167493800Y-84521796D01*
X167214438Y-83847356D01*
X166956707Y-83589625D01*
X177541230Y-83589625D01*
X178658800Y-84707195D01*
X179776370Y-83589625D01*
X179653235Y-83302012D01*
X178971066Y-83042093D01*
X178241357Y-83063014D01*
X177664365Y-83302012D01*
X177541230Y-83589625D01*
X166956707Y-83589625D01*
X166698244Y-83331162D01*
X166023804Y-83051800D01*
X165293796Y-83051800D01*
X164989352Y-83177905D01*
X161454511Y-79643065D01*
X161413505Y-79581695D01*
X161170383Y-79419246D01*
X160955988Y-79376600D01*
X160955984Y-79376600D01*
X160883600Y-79362202D01*
X160811216Y-79376600D01*
X132554711Y-79376600D01*
X132412280Y-79234169D01*
X132031874Y-79076600D01*
X131620126Y-79076600D01*
X131239720Y-79234169D01*
X130948569Y-79525320D01*
X130791000Y-79905726D01*
X130791000Y-80317474D01*
X130948569Y-80697880D01*
X131239720Y-80989031D01*
X131620126Y-81146600D01*
X132031874Y-81146600D01*
X132412280Y-80989031D01*
X132554711Y-80846600D01*
X160579154Y-80846600D01*
X163949905Y-84217352D01*
X163823800Y-84521796D01*
X163823800Y-85251804D01*
X164103162Y-85926244D01*
X164619356Y-86442438D01*
X165038372Y-86616000D01*
X157893640Y-86616000D01*
X158108686Y-86158092D01*
X157988019Y-85928200D01*
X156794200Y-85928200D01*
X156794200Y-85948200D01*
X156540200Y-85948200D01*
X156540200Y-85928200D01*
X156520200Y-85928200D01*
X156520200Y-85674200D01*
X156540200Y-85674200D01*
X156540200Y-84481045D01*
X156794200Y-84481045D01*
X156794200Y-85674200D01*
X157988019Y-85674200D01*
X158108686Y-85444308D01*
X157862383Y-84919842D01*
X157434124Y-84529555D01*
X157024090Y-84359724D01*
X156794200Y-84481045D01*
X156540200Y-84481045D01*
X156310310Y-84359724D01*
X155900276Y-84529555D01*
X155472017Y-84919842D01*
X155411043Y-85049678D01*
X155197825Y-84730575D01*
X154706618Y-84402361D01*
X154273456Y-84316200D01*
X153980944Y-84316200D01*
X153547782Y-84402361D01*
X153056575Y-84730575D01*
X152857200Y-85028961D01*
X152657825Y-84730575D01*
X152166618Y-84402361D01*
X151733456Y-84316200D01*
X151440944Y-84316200D01*
X151220793Y-84359991D01*
X150030930Y-83170129D01*
X149988528Y-83106670D01*
X149737136Y-82938695D01*
X149515451Y-82894599D01*
X149515446Y-82894599D01*
X149440599Y-82879711D01*
X149365752Y-82894599D01*
X123701768Y-82894599D01*
X123626920Y-82879711D01*
X123552072Y-82894599D01*
X123552068Y-82894599D01*
X123330383Y-82938695D01*
X123078991Y-83106670D01*
X123036591Y-83170126D01*
X122299128Y-83907590D01*
X122235672Y-83949990D01*
X122193272Y-84013446D01*
X122193271Y-84013447D01*
X122067697Y-84201382D01*
X122023887Y-84421630D01*
X121712975Y-84629375D01*
X121513600Y-84927761D01*
X121314225Y-84629375D01*
X120823018Y-84301161D01*
X120389856Y-84215000D01*
X120097344Y-84215000D01*
X119664182Y-84301161D01*
X119172975Y-84629375D01*
X118973600Y-84927761D01*
X118774225Y-84629375D01*
X118283018Y-84301161D01*
X117849856Y-84215000D01*
X117557344Y-84215000D01*
X117124182Y-84301161D01*
X116632975Y-84629375D01*
X116433600Y-84927761D01*
X116234225Y-84629375D01*
X115743018Y-84301161D01*
X115309856Y-84215000D01*
X115017344Y-84215000D01*
X114584182Y-84301161D01*
X114092975Y-84629375D01*
X113893600Y-84927761D01*
X113694225Y-84629375D01*
X113203018Y-84301161D01*
X112769856Y-84215000D01*
X112477344Y-84215000D01*
X112044182Y-84301161D01*
X111552975Y-84629375D01*
X111353600Y-84927761D01*
X111154225Y-84629375D01*
X110663018Y-84301161D01*
X110229856Y-84215000D01*
X109937344Y-84215000D01*
X109504182Y-84301161D01*
X109012975Y-84629375D01*
X108813600Y-84927761D01*
X108614225Y-84629375D01*
X108123018Y-84301161D01*
X107689856Y-84215000D01*
X107397344Y-84215000D01*
X106964182Y-84301161D01*
X106472975Y-84629375D01*
X106460784Y-84647619D01*
X106451757Y-84602235D01*
X106311409Y-84392191D01*
X106101365Y-84251843D01*
X105853600Y-84202560D01*
X104153600Y-84202560D01*
X103905835Y-84251843D01*
X103695791Y-84392191D01*
X103555443Y-84602235D01*
X103506160Y-84850000D01*
X103506160Y-85815310D01*
X103291541Y-85297174D01*
X102662826Y-84668459D01*
X101841369Y-84328200D01*
X100952231Y-84328200D01*
X100130774Y-84668459D01*
X99502059Y-85297174D01*
X99185400Y-86061656D01*
X99185400Y-82294816D01*
X99350314Y-82692953D01*
X99810247Y-83152886D01*
X100411178Y-83401800D01*
X101061622Y-83401800D01*
X101662553Y-83152886D01*
X102122486Y-82692953D01*
X102201664Y-82501800D01*
X103813612Y-82501800D01*
X103886000Y-82516199D01*
X103958388Y-82501800D01*
X105771136Y-82501800D01*
X105850314Y-82692953D01*
X106310247Y-83152886D01*
X106911178Y-83401800D01*
X107561622Y-83401800D01*
X108162553Y-83152886D01*
X108622486Y-82692953D01*
X108871400Y-82092022D01*
X108871400Y-81441578D01*
X108622486Y-80840647D01*
X108162553Y-80380714D01*
X107561622Y-80131800D01*
X106911178Y-80131800D01*
X106310247Y-80380714D01*
X105850314Y-80840647D01*
X105771136Y-81031800D01*
X104621000Y-81031800D01*
X104621000Y-78419332D01*
X106263473Y-78419332D01*
X106362136Y-78686187D01*
X106971861Y-78912708D01*
X107621860Y-78888656D01*
X108110664Y-78686187D01*
X108209327Y-78419332D01*
X107236400Y-77446405D01*
X106263473Y-78419332D01*
X104621000Y-78419332D01*
X104621000Y-77002261D01*
X105590492Y-77002261D01*
X105614544Y-77652260D01*
X105817013Y-78141064D01*
X106083868Y-78239727D01*
X107056795Y-77266800D01*
X107416005Y-77266800D01*
X108388932Y-78239727D01*
X108655787Y-78141064D01*
X108882308Y-77531339D01*
X108858256Y-76881340D01*
X108655787Y-76392536D01*
X108388932Y-76293873D01*
X107416005Y-77266800D01*
X107056795Y-77266800D01*
X106083868Y-76293873D01*
X105817013Y-76392536D01*
X105590492Y-77002261D01*
X104621000Y-77002261D01*
X104621000Y-76114268D01*
X106263473Y-76114268D01*
X107236400Y-77087195D01*
X108209327Y-76114268D01*
X108110664Y-75847413D01*
X107745792Y-75711858D01*
X107873800Y-75583850D01*
X107873800Y-74659600D01*
X108127800Y-74659600D01*
X108127800Y-75583850D01*
X108286550Y-75742600D01*
X108827110Y-75742600D01*
X109060499Y-75645927D01*
X109239127Y-75467298D01*
X109335800Y-75233909D01*
X109335800Y-74818350D01*
X109177050Y-74659600D01*
X108127800Y-74659600D01*
X107873800Y-74659600D01*
X106824550Y-74659600D01*
X106665800Y-74818350D01*
X106665800Y-75233909D01*
X106762473Y-75467298D01*
X106936936Y-75641762D01*
X106850940Y-75644944D01*
X106362136Y-75847413D01*
X106263473Y-76114268D01*
X104621000Y-76114268D01*
X104621000Y-74574046D01*
X105977447Y-73217600D01*
X106766150Y-73217600D01*
X106916214Y-73442186D01*
X106917397Y-73442977D01*
X106762473Y-73597902D01*
X106665800Y-73831291D01*
X106665800Y-74246850D01*
X106824550Y-74405600D01*
X107873800Y-74405600D01*
X107873800Y-74385600D01*
X108127800Y-74385600D01*
X108127800Y-74405600D01*
X109177050Y-74405600D01*
X109335800Y-74246850D01*
X109335800Y-73831291D01*
X109239127Y-73597902D01*
X109084203Y-73442977D01*
X109085386Y-73442186D01*
X109279927Y-73151036D01*
X109348240Y-72807601D01*
X109348240Y-72157599D01*
X109279927Y-71814164D01*
X109085386Y-71523014D01*
X108794236Y-71328473D01*
X108450801Y-71260160D01*
X107803823Y-71260160D01*
X107664211Y-71166874D01*
X107449816Y-71124228D01*
X107449812Y-71124228D01*
X107377428Y-71109830D01*
X107305044Y-71124228D01*
X106860075Y-71124228D01*
X105937000Y-70201154D01*
X105937000Y-69796526D01*
X105779431Y-69416120D01*
X105555511Y-69192200D01*
X105771136Y-69192200D01*
X105850314Y-69383353D01*
X106310247Y-69843286D01*
X106911178Y-70092200D01*
X107561622Y-70092200D01*
X108162553Y-69843286D01*
X108622486Y-69383353D01*
X108871400Y-68782422D01*
X108871400Y-68131978D01*
X108792222Y-67940825D01*
X110094937Y-66638109D01*
X110156305Y-66597105D01*
X110318754Y-66353983D01*
X110361400Y-66139588D01*
X110361400Y-66139585D01*
X110375798Y-66067201D01*
X110361400Y-65994817D01*
X110361400Y-62203000D01*
X112957616Y-62203000D01*
X113030000Y-62217398D01*
X113102384Y-62203000D01*
X113102388Y-62203000D01*
X113316783Y-62160354D01*
X113559905Y-61997905D01*
X113600911Y-61936535D01*
X114716903Y-60820543D01*
X114966544Y-60870200D01*
X115259056Y-60870200D01*
X115692218Y-60784039D01*
X116183425Y-60455825D01*
X116396643Y-60136722D01*
X116457617Y-60266558D01*
X116885876Y-60656845D01*
X117295910Y-60826676D01*
X117525800Y-60705355D01*
X117525800Y-59512200D01*
X117505800Y-59512200D01*
X117505800Y-59258200D01*
X117525800Y-59258200D01*
X117525800Y-58065045D01*
X117779800Y-58065045D01*
X117779800Y-59258200D01*
X117799800Y-59258200D01*
X117799800Y-59512200D01*
X117779800Y-59512200D01*
X117779800Y-60705355D01*
X118009690Y-60826676D01*
X118419724Y-60656845D01*
X118847983Y-60266558D01*
X118908957Y-60136722D01*
X119122175Y-60455825D01*
X119613382Y-60784039D01*
X120046544Y-60870200D01*
X120339056Y-60870200D01*
X120772218Y-60784039D01*
X121263425Y-60455825D01*
X121476643Y-60136722D01*
X121537617Y-60266558D01*
X121965876Y-60656845D01*
X122375910Y-60826676D01*
X122605800Y-60705355D01*
X122605800Y-59512200D01*
X122585800Y-59512200D01*
X122585800Y-59258200D01*
X122605800Y-59258200D01*
X122605800Y-58065045D01*
X122375910Y-57943724D01*
X121965876Y-58113555D01*
X121537617Y-58503842D01*
X121476643Y-58633678D01*
X121263425Y-58314575D01*
X120772218Y-57986361D01*
X120339056Y-57900200D01*
X120046544Y-57900200D01*
X119613382Y-57986361D01*
X119122175Y-58314575D01*
X118908957Y-58633678D01*
X118847983Y-58503842D01*
X118419724Y-58113555D01*
X118009690Y-57943724D01*
X117779800Y-58065045D01*
X117525800Y-58065045D01*
X117295910Y-57943724D01*
X116885876Y-58113555D01*
X116457617Y-58503842D01*
X116396643Y-58633678D01*
X116183425Y-58314575D01*
X115692218Y-57986361D01*
X115259056Y-57900200D01*
X114966544Y-57900200D01*
X114533382Y-57986361D01*
X114042175Y-58314575D01*
X113842800Y-58612961D01*
X113643425Y-58314575D01*
X113152218Y-57986361D01*
X112719056Y-57900200D01*
X112426544Y-57900200D01*
X111993382Y-57986361D01*
X111502175Y-58314575D01*
X111302800Y-58612961D01*
X111103425Y-58314575D01*
X110612218Y-57986361D01*
X110179056Y-57900200D01*
X109886544Y-57900200D01*
X109453382Y-57986361D01*
X108962175Y-58314575D01*
X108762800Y-58612961D01*
X108563425Y-58314575D01*
X108072218Y-57986361D01*
X107639056Y-57900200D01*
X107346544Y-57900200D01*
X106913382Y-57986361D01*
X106422175Y-58314575D01*
X106222800Y-58612961D01*
X106023425Y-58314575D01*
X105532218Y-57986361D01*
X105099056Y-57900200D01*
X104806544Y-57900200D01*
X104373382Y-57986361D01*
X103882175Y-58314575D01*
X103553961Y-58805782D01*
X103438708Y-59385200D01*
X103553961Y-59964618D01*
X103882175Y-60455825D01*
X104373382Y-60784039D01*
X104806544Y-60870200D01*
X105099056Y-60870200D01*
X105532218Y-60784039D01*
X106023425Y-60455825D01*
X106222800Y-60157439D01*
X106422175Y-60455825D01*
X106913382Y-60784039D01*
X107346544Y-60870200D01*
X107639056Y-60870200D01*
X108072218Y-60784039D01*
X108563425Y-60455825D01*
X108762800Y-60157439D01*
X108962175Y-60455825D01*
X109441019Y-60775778D01*
X109198095Y-60938095D01*
X109157400Y-60999000D01*
X109096495Y-61039695D01*
X108934046Y-61282818D01*
X108891400Y-61497213D01*
X108891400Y-61497216D01*
X108877002Y-61569600D01*
X108891400Y-61641984D01*
X108891401Y-65762752D01*
X107752775Y-66901378D01*
X107561622Y-66822200D01*
X106911178Y-66822200D01*
X106310247Y-67071114D01*
X105850314Y-67531047D01*
X105771136Y-67722200D01*
X102201664Y-67722200D01*
X102122486Y-67531047D01*
X101662553Y-67071114D01*
X101061622Y-66822200D01*
X100411178Y-66822200D01*
X99810247Y-67071114D01*
X99350314Y-67531047D01*
X99185400Y-67929184D01*
X99185400Y-65109732D01*
X99763473Y-65109732D01*
X99862136Y-65376587D01*
X100471861Y-65603108D01*
X101121860Y-65579056D01*
X101610664Y-65376587D01*
X101709327Y-65109732D01*
X106263473Y-65109732D01*
X106362136Y-65376587D01*
X106971861Y-65603108D01*
X107621860Y-65579056D01*
X108110664Y-65376587D01*
X108209327Y-65109732D01*
X107236400Y-64136805D01*
X106263473Y-65109732D01*
X101709327Y-65109732D01*
X100736400Y-64136805D01*
X99763473Y-65109732D01*
X99185400Y-65109732D01*
X99185400Y-64513722D01*
X99317013Y-64831464D01*
X99583868Y-64930127D01*
X100556795Y-63957200D01*
X100916005Y-63957200D01*
X101888932Y-64930127D01*
X102155787Y-64831464D01*
X102382308Y-64221739D01*
X102362731Y-63692661D01*
X105590492Y-63692661D01*
X105614544Y-64342660D01*
X105817013Y-64831464D01*
X106083868Y-64930127D01*
X107056795Y-63957200D01*
X107416005Y-63957200D01*
X108388932Y-64930127D01*
X108655787Y-64831464D01*
X108882308Y-64221739D01*
X108858256Y-63571740D01*
X108655787Y-63082936D01*
X108388932Y-62984273D01*
X107416005Y-63957200D01*
X107056795Y-63957200D01*
X106083868Y-62984273D01*
X105817013Y-63082936D01*
X105590492Y-63692661D01*
X102362731Y-63692661D01*
X102358256Y-63571740D01*
X102155787Y-63082936D01*
X101888932Y-62984273D01*
X100916005Y-63957200D01*
X100556795Y-63957200D01*
X99583868Y-62984273D01*
X99317013Y-63082936D01*
X99185400Y-63437198D01*
X99185400Y-62804668D01*
X99763473Y-62804668D01*
X100736400Y-63777595D01*
X101709327Y-62804668D01*
X106263473Y-62804668D01*
X107236400Y-63777595D01*
X108209327Y-62804668D01*
X108110664Y-62537813D01*
X107500939Y-62311292D01*
X106850940Y-62335344D01*
X106362136Y-62537813D01*
X106263473Y-62804668D01*
X101709327Y-62804668D01*
X101610664Y-62537813D01*
X101000939Y-62311292D01*
X100350940Y-62335344D01*
X99862136Y-62537813D01*
X99763473Y-62804668D01*
X99185400Y-62804668D01*
X99185400Y-60398354D01*
X99248059Y-60549626D01*
X99876774Y-61178341D01*
X100698231Y-61518600D01*
X101587369Y-61518600D01*
X102408826Y-61178341D01*
X103037541Y-60549626D01*
X103377800Y-59728169D01*
X103377800Y-58839031D01*
X103037541Y-58017574D01*
X102408826Y-57388859D01*
X102012270Y-57224600D01*
X170386753Y-57224600D01*
X169864697Y-57746657D01*
G36*
X133070600Y-85573000D02*
X133090600Y-85573000D01*
X133090600Y-85827000D01*
X133070600Y-85827000D01*
X133070600Y-85847000D01*
X132816600Y-85847000D01*
X132816600Y-85827000D01*
X132796600Y-85827000D01*
X132796600Y-85573000D01*
X132816600Y-85573000D01*
X132816600Y-85553000D01*
X133070600Y-85553000D01*
X133070600Y-85573000D01*
X133070600Y-85573000D01*
G37*
X133070600Y-85573000D02*
X133090600Y-85573000D01*
X133090600Y-85827000D01*
X133070600Y-85827000D01*
X133070600Y-85847000D01*
X132816600Y-85847000D01*
X132816600Y-85827000D01*
X132796600Y-85827000D01*
X132796600Y-85573000D01*
X132816600Y-85573000D01*
X132816600Y-85553000D01*
X133070600Y-85553000D01*
X133070600Y-85573000D01*
G36*
X99350314Y-69383353D02*
X99810247Y-69843286D01*
X100001400Y-69922464D01*
X100001401Y-71123754D01*
X99993764Y-71125273D01*
X99702614Y-71319814D01*
X99508073Y-71610964D01*
X99439760Y-71954399D01*
X99439760Y-72604401D01*
X99508073Y-72947836D01*
X99702614Y-73238986D01*
X99703797Y-73239777D01*
X99548873Y-73394702D01*
X99452200Y-73628091D01*
X99452200Y-74043650D01*
X99610950Y-74202400D01*
X100660200Y-74202400D01*
X100660200Y-74182400D01*
X100914200Y-74182400D01*
X100914200Y-74202400D01*
X100934200Y-74202400D01*
X100934200Y-74456400D01*
X100914200Y-74456400D01*
X100914200Y-75380650D01*
X101072950Y-75539400D01*
X101576201Y-75539400D01*
X101576201Y-75834609D01*
X101000939Y-75620892D01*
X100350940Y-75644944D01*
X99862136Y-75847413D01*
X99763473Y-76114268D01*
X100736400Y-77087195D01*
X100750543Y-77073053D01*
X100930148Y-77252658D01*
X100916005Y-77266800D01*
X100930148Y-77280943D01*
X100750543Y-77460548D01*
X100736400Y-77446405D01*
X99763473Y-78419332D01*
X99862136Y-78686187D01*
X100471861Y-78912708D01*
X101121860Y-78888656D01*
X101610664Y-78686187D01*
X101691807Y-78466718D01*
X101724920Y-78499831D01*
X102105326Y-78657400D01*
X102517074Y-78657400D01*
X102897480Y-78499831D01*
X103151000Y-78246311D01*
X103151000Y-81031800D01*
X102201664Y-81031800D01*
X102122486Y-80840647D01*
X101662553Y-80380714D01*
X101061622Y-80131800D01*
X100411178Y-80131800D01*
X99810247Y-80380714D01*
X99350314Y-80840647D01*
X99185400Y-81238784D01*
X99185400Y-77823322D01*
X99317013Y-78141064D01*
X99583868Y-78239727D01*
X100556795Y-77266800D01*
X99583868Y-76293873D01*
X99317013Y-76392536D01*
X99185400Y-76746798D01*
X99185400Y-74615150D01*
X99452200Y-74615150D01*
X99452200Y-75030709D01*
X99548873Y-75264098D01*
X99727501Y-75442727D01*
X99960890Y-75539400D01*
X100501450Y-75539400D01*
X100660200Y-75380650D01*
X100660200Y-74456400D01*
X99610950Y-74456400D01*
X99452200Y-74615150D01*
X99185400Y-74615150D01*
X99185400Y-68985216D01*
X99350314Y-69383353D01*
X99350314Y-69383353D01*
G37*
X99350314Y-69383353D02*
X99810247Y-69843286D01*
X100001400Y-69922464D01*
X100001401Y-71123754D01*
X99993764Y-71125273D01*
X99702614Y-71319814D01*
X99508073Y-71610964D01*
X99439760Y-71954399D01*
X99439760Y-72604401D01*
X99508073Y-72947836D01*
X99702614Y-73238986D01*
X99703797Y-73239777D01*
X99548873Y-73394702D01*
X99452200Y-73628091D01*
X99452200Y-74043650D01*
X99610950Y-74202400D01*
X100660200Y-74202400D01*
X100660200Y-74182400D01*
X100914200Y-74182400D01*
X100914200Y-74202400D01*
X100934200Y-74202400D01*
X100934200Y-74456400D01*
X100914200Y-74456400D01*
X100914200Y-75380650D01*
X101072950Y-75539400D01*
X101576201Y-75539400D01*
X101576201Y-75834609D01*
X101000939Y-75620892D01*
X100350940Y-75644944D01*
X99862136Y-75847413D01*
X99763473Y-76114268D01*
X100736400Y-77087195D01*
X100750543Y-77073053D01*
X100930148Y-77252658D01*
X100916005Y-77266800D01*
X100930148Y-77280943D01*
X100750543Y-77460548D01*
X100736400Y-77446405D01*
X99763473Y-78419332D01*
X99862136Y-78686187D01*
X100471861Y-78912708D01*
X101121860Y-78888656D01*
X101610664Y-78686187D01*
X101691807Y-78466718D01*
X101724920Y-78499831D01*
X102105326Y-78657400D01*
X102517074Y-78657400D01*
X102897480Y-78499831D01*
X103151000Y-78246311D01*
X103151000Y-81031800D01*
X102201664Y-81031800D01*
X102122486Y-80840647D01*
X101662553Y-80380714D01*
X101061622Y-80131800D01*
X100411178Y-80131800D01*
X99810247Y-80380714D01*
X99350314Y-80840647D01*
X99185400Y-81238784D01*
X99185400Y-77823322D01*
X99317013Y-78141064D01*
X99583868Y-78239727D01*
X100556795Y-77266800D01*
X99583868Y-76293873D01*
X99317013Y-76392536D01*
X99185400Y-76746798D01*
X99185400Y-74615150D01*
X99452200Y-74615150D01*
X99452200Y-75030709D01*
X99548873Y-75264098D01*
X99727501Y-75442727D01*
X99960890Y-75539400D01*
X100501450Y-75539400D01*
X100660200Y-75380650D01*
X100660200Y-74456400D01*
X99610950Y-74456400D01*
X99452200Y-74615150D01*
X99185400Y-74615150D01*
X99185400Y-68985216D01*
X99350314Y-69383353D01*
G36*
X197265000Y-59355951D02*
X197068341Y-58881174D01*
X196439626Y-58252459D01*
X195618169Y-57912200D01*
X194729031Y-57912200D01*
X193907574Y-58252459D01*
X193278859Y-58881174D01*
X193115040Y-59276668D01*
X193115040Y-58433600D01*
X193065757Y-58185835D01*
X192925409Y-57975791D01*
X192715365Y-57835443D01*
X192467600Y-57786160D01*
X190767600Y-57786160D01*
X190519835Y-57835443D01*
X190309791Y-57975791D01*
X190169443Y-58185835D01*
X190148861Y-58289308D01*
X189844524Y-58011955D01*
X189434490Y-57842124D01*
X189204600Y-57963445D01*
X189204600Y-59156600D01*
X189224600Y-59156600D01*
X189224600Y-59410600D01*
X189204600Y-59410600D01*
X189204600Y-59430600D01*
X188950600Y-59430600D01*
X188950600Y-59410600D01*
X188930600Y-59410600D01*
X188930600Y-59156600D01*
X188950600Y-59156600D01*
X188950600Y-57963445D01*
X188720710Y-57842124D01*
X188310676Y-58011955D01*
X187882417Y-58402242D01*
X187821443Y-58532078D01*
X187608225Y-58212975D01*
X187117018Y-57884761D01*
X186683856Y-57798600D01*
X186391344Y-57798600D01*
X185958182Y-57884761D01*
X185466975Y-58212975D01*
X185267600Y-58511361D01*
X185068225Y-58212975D01*
X184732600Y-57988718D01*
X184732600Y-57679583D01*
X184746998Y-57607199D01*
X184732600Y-57534813D01*
X184732600Y-57534812D01*
X184689954Y-57320417D01*
X184625931Y-57224600D01*
X197265000Y-57224600D01*
X197265000Y-59355951D01*
X197265000Y-59355951D01*
G37*
X197265000Y-59355951D02*
X197068341Y-58881174D01*
X196439626Y-58252459D01*
X195618169Y-57912200D01*
X194729031Y-57912200D01*
X193907574Y-58252459D01*
X193278859Y-58881174D01*
X193115040Y-59276668D01*
X193115040Y-58433600D01*
X193065757Y-58185835D01*
X192925409Y-57975791D01*
X192715365Y-57835443D01*
X192467600Y-57786160D01*
X190767600Y-57786160D01*
X190519835Y-57835443D01*
X190309791Y-57975791D01*
X190169443Y-58185835D01*
X190148861Y-58289308D01*
X189844524Y-58011955D01*
X189434490Y-57842124D01*
X189204600Y-57963445D01*
X189204600Y-59156600D01*
X189224600Y-59156600D01*
X189224600Y-59410600D01*
X189204600Y-59410600D01*
X189204600Y-59430600D01*
X188950600Y-59430600D01*
X188950600Y-59410600D01*
X188930600Y-59410600D01*
X188930600Y-59156600D01*
X188950600Y-59156600D01*
X188950600Y-57963445D01*
X188720710Y-57842124D01*
X188310676Y-58011955D01*
X187882417Y-58402242D01*
X187821443Y-58532078D01*
X187608225Y-58212975D01*
X187117018Y-57884761D01*
X186683856Y-57798600D01*
X186391344Y-57798600D01*
X185958182Y-57884761D01*
X185466975Y-58212975D01*
X185267600Y-58511361D01*
X185068225Y-58212975D01*
X184732600Y-57988718D01*
X184732600Y-57679583D01*
X184746998Y-57607199D01*
X184732600Y-57534813D01*
X184732600Y-57534812D01*
X184689954Y-57320417D01*
X184625931Y-57224600D01*
X197265000Y-57224600D01*
X197265000Y-59355951D01*
G36*
X174675800Y-59055000D02*
X174695800Y-59055000D01*
X174695800Y-59309000D01*
X174675800Y-59309000D01*
X174675800Y-59329000D01*
X174421800Y-59329000D01*
X174421800Y-59309000D01*
X174401800Y-59309000D01*
X174401800Y-59055000D01*
X174421800Y-59055000D01*
X174421800Y-59035000D01*
X174675800Y-59035000D01*
X174675800Y-59055000D01*
X174675800Y-59055000D01*
G37*
X174675800Y-59055000D02*
X174695800Y-59055000D01*
X174695800Y-59309000D01*
X174675800Y-59309000D01*
X174675800Y-59329000D01*
X174421800Y-59329000D01*
X174421800Y-59309000D01*
X174401800Y-59309000D01*
X174401800Y-59055000D01*
X174421800Y-59055000D01*
X174421800Y-59035000D01*
X174675800Y-59035000D01*
X174675800Y-59055000D01*
G04 #@! TD*
M02*
