G04 #@! TF.GenerationSoftware,KiCad,Pcbnew,5.0.2+dfsg1-1*
G04 #@! TF.CreationDate,2021-01-08T16:21:55+01:00*
G04 #@! TF.ProjectId,TTGO_weatherboard,5454474f-5f77-4656-9174-686572626f61,rev?*
G04 #@! TF.SameCoordinates,Original*
G04 #@! TF.FileFunction,Soldermask,Bot*
G04 #@! TF.FilePolarity,Negative*
%FSLAX46Y46*%
G04 Gerber Fmt 4.6, Leading zero omitted, Abs format (unit mm)*
G04 Created by KiCad (PCBNEW 5.0.2+dfsg1-1) date Fr 08 Jan 2021 16:21:55 CET*
%MOMM*%
%LPD*%
G01*
G04 APERTURE LIST*
%ADD10C,0.100000*%
G04 APERTURE END LIST*
D10*
G36*
X195055072Y-84947221D02*
X195197979Y-84975647D01*
X195498442Y-85100103D01*
X195725322Y-85251700D01*
X195768854Y-85280787D01*
X195998813Y-85510746D01*
X195998815Y-85510749D01*
X196179497Y-85781158D01*
X196289392Y-86046467D01*
X196303953Y-86081622D01*
X196367400Y-86400589D01*
X196367400Y-86725811D01*
X196303953Y-87044778D01*
X196199048Y-87298043D01*
X196179497Y-87345242D01*
X196001220Y-87612052D01*
X195998813Y-87615654D01*
X195768854Y-87845613D01*
X195768851Y-87845615D01*
X195498442Y-88026297D01*
X195197979Y-88150753D01*
X195091656Y-88171902D01*
X194879011Y-88214200D01*
X194553789Y-88214200D01*
X194341144Y-88171902D01*
X194234821Y-88150753D01*
X193934358Y-88026297D01*
X193663949Y-87845615D01*
X193663946Y-87845613D01*
X193433987Y-87615654D01*
X193431580Y-87612052D01*
X193253303Y-87345242D01*
X193233753Y-87298043D01*
X193128847Y-87044778D01*
X193065400Y-86725811D01*
X193065400Y-86400589D01*
X193128847Y-86081622D01*
X193143409Y-86046467D01*
X193253303Y-85781158D01*
X193433985Y-85510749D01*
X193433987Y-85510746D01*
X193663946Y-85280787D01*
X193707478Y-85251700D01*
X193934358Y-85100103D01*
X194234821Y-84975647D01*
X194377728Y-84947221D01*
X194553789Y-84912200D01*
X194879011Y-84912200D01*
X195055072Y-84947221D01*
X195055072Y-84947221D01*
G37*
G36*
X101735472Y-84947221D02*
X101878379Y-84975647D01*
X102178842Y-85100103D01*
X102405722Y-85251700D01*
X102449254Y-85280787D01*
X102679213Y-85510746D01*
X102679215Y-85510749D01*
X102859897Y-85781158D01*
X102969792Y-86046467D01*
X102984353Y-86081622D01*
X103047800Y-86400589D01*
X103047800Y-86725811D01*
X102984353Y-87044778D01*
X102879448Y-87298043D01*
X102859897Y-87345242D01*
X102681620Y-87612052D01*
X102679213Y-87615654D01*
X102449254Y-87845613D01*
X102449251Y-87845615D01*
X102178842Y-88026297D01*
X101878379Y-88150753D01*
X101772056Y-88171902D01*
X101559411Y-88214200D01*
X101234189Y-88214200D01*
X101021544Y-88171902D01*
X100915221Y-88150753D01*
X100614758Y-88026297D01*
X100344349Y-87845615D01*
X100344346Y-87845613D01*
X100114387Y-87615654D01*
X100111980Y-87612052D01*
X99933703Y-87345242D01*
X99914153Y-87298043D01*
X99809247Y-87044778D01*
X99745800Y-86725811D01*
X99745800Y-86400589D01*
X99809247Y-86081622D01*
X99823809Y-86046467D01*
X99933703Y-85781158D01*
X100114385Y-85510749D01*
X100114387Y-85510746D01*
X100344346Y-85280787D01*
X100387878Y-85251700D01*
X100614758Y-85100103D01*
X100915221Y-84975647D01*
X101058128Y-84947221D01*
X101234189Y-84912200D01*
X101559411Y-84912200D01*
X101735472Y-84947221D01*
X101735472Y-84947221D01*
G37*
G36*
X187591000Y-87362600D02*
X185789000Y-87362600D01*
X185789000Y-85560600D01*
X187591000Y-85560600D01*
X187591000Y-87362600D01*
X187591000Y-87362600D01*
G37*
G36*
X189340443Y-85567119D02*
X189406627Y-85573637D01*
X189519853Y-85607984D01*
X189576467Y-85625157D01*
X189687056Y-85684269D01*
X189732991Y-85708822D01*
X189768729Y-85738152D01*
X189870186Y-85821414D01*
X189915497Y-85876627D01*
X189982778Y-85958609D01*
X189982779Y-85958611D01*
X190066443Y-86115133D01*
X190076312Y-86147667D01*
X190117963Y-86284973D01*
X190135359Y-86461600D01*
X190117963Y-86638227D01*
X190098557Y-86702200D01*
X190066443Y-86808067D01*
X189992348Y-86946687D01*
X189982778Y-86964591D01*
X189953448Y-87000329D01*
X189870186Y-87101786D01*
X189768729Y-87185048D01*
X189732991Y-87214378D01*
X189732989Y-87214379D01*
X189576467Y-87298043D01*
X189519853Y-87315216D01*
X189406627Y-87349563D01*
X189340443Y-87356081D01*
X189274260Y-87362600D01*
X189185740Y-87362600D01*
X189119558Y-87356082D01*
X189053373Y-87349563D01*
X188940147Y-87315216D01*
X188883533Y-87298043D01*
X188727011Y-87214379D01*
X188727009Y-87214378D01*
X188691271Y-87185048D01*
X188589814Y-87101786D01*
X188506552Y-87000329D01*
X188477222Y-86964591D01*
X188467652Y-86946687D01*
X188393557Y-86808067D01*
X188361443Y-86702200D01*
X188342037Y-86638227D01*
X188324641Y-86461600D01*
X188342037Y-86284973D01*
X188383688Y-86147667D01*
X188393557Y-86115133D01*
X188477221Y-85958611D01*
X188477222Y-85958609D01*
X188544503Y-85876627D01*
X188589814Y-85821414D01*
X188691271Y-85738152D01*
X188727009Y-85708822D01*
X188772944Y-85684269D01*
X188883533Y-85625157D01*
X188940147Y-85607984D01*
X189053373Y-85573637D01*
X189119557Y-85567119D01*
X189185740Y-85560600D01*
X189274260Y-85560600D01*
X189340443Y-85567119D01*
X189340443Y-85567119D01*
G37*
G36*
X154237642Y-84906718D02*
X154303827Y-84913237D01*
X154415857Y-84947221D01*
X154473667Y-84964757D01*
X154612287Y-85038852D01*
X154630191Y-85048422D01*
X154644072Y-85059814D01*
X154767386Y-85161014D01*
X154841809Y-85251700D01*
X154879978Y-85298209D01*
X154879979Y-85298211D01*
X154963643Y-85454733D01*
X154963643Y-85454734D01*
X155015163Y-85624573D01*
X155032559Y-85801200D01*
X155015163Y-85977827D01*
X154994341Y-86046467D01*
X154963643Y-86147667D01*
X154934072Y-86202989D01*
X154879978Y-86304191D01*
X154850648Y-86339929D01*
X154767386Y-86441386D01*
X154665929Y-86524648D01*
X154630191Y-86553978D01*
X154630189Y-86553979D01*
X154473667Y-86637643D01*
X154417053Y-86654816D01*
X154303827Y-86689163D01*
X154237643Y-86695681D01*
X154171460Y-86702200D01*
X154082940Y-86702200D01*
X154016757Y-86695681D01*
X153950573Y-86689163D01*
X153837347Y-86654816D01*
X153780733Y-86637643D01*
X153624211Y-86553979D01*
X153624209Y-86553978D01*
X153588471Y-86524648D01*
X153487014Y-86441386D01*
X153403752Y-86339929D01*
X153374422Y-86304191D01*
X153320328Y-86202989D01*
X153290757Y-86147667D01*
X153260059Y-86046467D01*
X153239237Y-85977827D01*
X153221841Y-85801200D01*
X153239237Y-85624573D01*
X153290757Y-85454734D01*
X153290757Y-85454733D01*
X153374421Y-85298211D01*
X153374422Y-85298209D01*
X153412591Y-85251700D01*
X153487014Y-85161014D01*
X153610328Y-85059814D01*
X153624209Y-85048422D01*
X153642113Y-85038852D01*
X153780733Y-84964757D01*
X153838543Y-84947221D01*
X153950573Y-84913237D01*
X154016758Y-84906718D01*
X154082940Y-84900200D01*
X154171460Y-84900200D01*
X154237642Y-84906718D01*
X154237642Y-84906718D01*
G37*
G36*
X151697642Y-84906718D02*
X151763827Y-84913237D01*
X151875857Y-84947221D01*
X151933667Y-84964757D01*
X152072287Y-85038852D01*
X152090191Y-85048422D01*
X152104072Y-85059814D01*
X152227386Y-85161014D01*
X152301809Y-85251700D01*
X152339978Y-85298209D01*
X152339979Y-85298211D01*
X152423643Y-85454733D01*
X152423643Y-85454734D01*
X152475163Y-85624573D01*
X152492559Y-85801200D01*
X152475163Y-85977827D01*
X152454341Y-86046467D01*
X152423643Y-86147667D01*
X152394072Y-86202989D01*
X152339978Y-86304191D01*
X152310648Y-86339929D01*
X152227386Y-86441386D01*
X152125929Y-86524648D01*
X152090191Y-86553978D01*
X152090189Y-86553979D01*
X151933667Y-86637643D01*
X151877053Y-86654816D01*
X151763827Y-86689163D01*
X151697643Y-86695681D01*
X151631460Y-86702200D01*
X151542940Y-86702200D01*
X151476757Y-86695681D01*
X151410573Y-86689163D01*
X151297347Y-86654816D01*
X151240733Y-86637643D01*
X151084211Y-86553979D01*
X151084209Y-86553978D01*
X151048471Y-86524648D01*
X150947014Y-86441386D01*
X150863752Y-86339929D01*
X150834422Y-86304191D01*
X150780328Y-86202989D01*
X150750757Y-86147667D01*
X150720059Y-86046467D01*
X150699237Y-85977827D01*
X150681841Y-85801200D01*
X150699237Y-85624573D01*
X150750757Y-85454734D01*
X150750757Y-85454733D01*
X150834421Y-85298211D01*
X150834422Y-85298209D01*
X150872591Y-85251700D01*
X150947014Y-85161014D01*
X151070328Y-85059814D01*
X151084209Y-85048422D01*
X151102113Y-85038852D01*
X151240733Y-84964757D01*
X151298543Y-84947221D01*
X151410573Y-84913237D01*
X151476758Y-84906718D01*
X151542940Y-84900200D01*
X151631460Y-84900200D01*
X151697642Y-84906718D01*
X151697642Y-84906718D01*
G37*
G36*
X149948200Y-86702200D02*
X148146200Y-86702200D01*
X148146200Y-84900200D01*
X149948200Y-84900200D01*
X149948200Y-86702200D01*
X149948200Y-86702200D01*
G37*
G36*
X156777642Y-84906718D02*
X156843827Y-84913237D01*
X156955857Y-84947221D01*
X157013667Y-84964757D01*
X157152287Y-85038852D01*
X157170191Y-85048422D01*
X157184072Y-85059814D01*
X157307386Y-85161014D01*
X157381809Y-85251700D01*
X157419978Y-85298209D01*
X157419979Y-85298211D01*
X157503643Y-85454733D01*
X157503643Y-85454734D01*
X157555163Y-85624573D01*
X157572559Y-85801200D01*
X157555163Y-85977827D01*
X157534341Y-86046467D01*
X157503643Y-86147667D01*
X157474072Y-86202989D01*
X157419978Y-86304191D01*
X157390648Y-86339929D01*
X157307386Y-86441386D01*
X157205929Y-86524648D01*
X157170191Y-86553978D01*
X157170189Y-86553979D01*
X157013667Y-86637643D01*
X156957053Y-86654816D01*
X156843827Y-86689163D01*
X156777643Y-86695681D01*
X156711460Y-86702200D01*
X156622940Y-86702200D01*
X156556757Y-86695681D01*
X156490573Y-86689163D01*
X156377347Y-86654816D01*
X156320733Y-86637643D01*
X156164211Y-86553979D01*
X156164209Y-86553978D01*
X156128471Y-86524648D01*
X156027014Y-86441386D01*
X155943752Y-86339929D01*
X155914422Y-86304191D01*
X155860328Y-86202989D01*
X155830757Y-86147667D01*
X155800059Y-86046467D01*
X155779237Y-85977827D01*
X155761841Y-85801200D01*
X155779237Y-85624573D01*
X155830757Y-85454734D01*
X155830757Y-85454733D01*
X155914421Y-85298211D01*
X155914422Y-85298209D01*
X155952591Y-85251700D01*
X156027014Y-85161014D01*
X156150328Y-85059814D01*
X156164209Y-85048422D01*
X156182113Y-85038852D01*
X156320733Y-84964757D01*
X156378543Y-84947221D01*
X156490573Y-84913237D01*
X156556758Y-84906718D01*
X156622940Y-84900200D01*
X156711460Y-84900200D01*
X156777642Y-84906718D01*
X156777642Y-84906718D01*
G37*
G36*
X120354042Y-84805518D02*
X120420227Y-84812037D01*
X120533453Y-84846384D01*
X120590067Y-84863557D01*
X120658620Y-84900200D01*
X120746591Y-84947222D01*
X120767957Y-84964757D01*
X120883786Y-85059814D01*
X120966837Y-85161014D01*
X120996378Y-85197009D01*
X120996379Y-85197011D01*
X121080043Y-85353533D01*
X121080043Y-85353534D01*
X121131563Y-85523373D01*
X121148959Y-85700000D01*
X121131563Y-85876627D01*
X121106694Y-85958609D01*
X121080043Y-86046467D01*
X121043339Y-86115134D01*
X120996378Y-86202991D01*
X120967048Y-86238729D01*
X120883786Y-86340186D01*
X120810181Y-86400591D01*
X120746591Y-86452778D01*
X120746589Y-86452779D01*
X120590067Y-86536443D01*
X120533453Y-86553616D01*
X120420227Y-86587963D01*
X120354042Y-86594482D01*
X120287860Y-86601000D01*
X120199340Y-86601000D01*
X120133158Y-86594482D01*
X120066973Y-86587963D01*
X119953747Y-86553616D01*
X119897133Y-86536443D01*
X119740611Y-86452779D01*
X119740609Y-86452778D01*
X119677019Y-86400591D01*
X119603414Y-86340186D01*
X119520152Y-86238729D01*
X119490822Y-86202991D01*
X119443861Y-86115134D01*
X119407157Y-86046467D01*
X119380506Y-85958609D01*
X119355637Y-85876627D01*
X119338241Y-85700000D01*
X119355637Y-85523373D01*
X119407157Y-85353534D01*
X119407157Y-85353533D01*
X119490821Y-85197011D01*
X119490822Y-85197009D01*
X119520363Y-85161014D01*
X119603414Y-85059814D01*
X119719243Y-84964757D01*
X119740609Y-84947222D01*
X119828580Y-84900200D01*
X119897133Y-84863557D01*
X119953747Y-84846384D01*
X120066973Y-84812037D01*
X120133158Y-84805518D01*
X120199340Y-84799000D01*
X120287860Y-84799000D01*
X120354042Y-84805518D01*
X120354042Y-84805518D01*
G37*
G36*
X105904600Y-86601000D02*
X104102600Y-86601000D01*
X104102600Y-84799000D01*
X105904600Y-84799000D01*
X105904600Y-86601000D01*
X105904600Y-86601000D01*
G37*
G36*
X107654042Y-84805518D02*
X107720227Y-84812037D01*
X107833453Y-84846384D01*
X107890067Y-84863557D01*
X107958620Y-84900200D01*
X108046591Y-84947222D01*
X108067957Y-84964757D01*
X108183786Y-85059814D01*
X108266837Y-85161014D01*
X108296378Y-85197009D01*
X108296379Y-85197011D01*
X108380043Y-85353533D01*
X108380043Y-85353534D01*
X108431563Y-85523373D01*
X108448959Y-85700000D01*
X108431563Y-85876627D01*
X108406694Y-85958609D01*
X108380043Y-86046467D01*
X108343339Y-86115134D01*
X108296378Y-86202991D01*
X108267048Y-86238729D01*
X108183786Y-86340186D01*
X108110181Y-86400591D01*
X108046591Y-86452778D01*
X108046589Y-86452779D01*
X107890067Y-86536443D01*
X107833453Y-86553616D01*
X107720227Y-86587963D01*
X107654042Y-86594482D01*
X107587860Y-86601000D01*
X107499340Y-86601000D01*
X107433158Y-86594482D01*
X107366973Y-86587963D01*
X107253747Y-86553616D01*
X107197133Y-86536443D01*
X107040611Y-86452779D01*
X107040609Y-86452778D01*
X106977019Y-86400591D01*
X106903414Y-86340186D01*
X106820152Y-86238729D01*
X106790822Y-86202991D01*
X106743861Y-86115134D01*
X106707157Y-86046467D01*
X106680506Y-85958609D01*
X106655637Y-85876627D01*
X106638241Y-85700000D01*
X106655637Y-85523373D01*
X106707157Y-85353534D01*
X106707157Y-85353533D01*
X106790821Y-85197011D01*
X106790822Y-85197009D01*
X106820363Y-85161014D01*
X106903414Y-85059814D01*
X107019243Y-84964757D01*
X107040609Y-84947222D01*
X107128580Y-84900200D01*
X107197133Y-84863557D01*
X107253747Y-84846384D01*
X107366973Y-84812037D01*
X107433158Y-84805518D01*
X107499340Y-84799000D01*
X107587860Y-84799000D01*
X107654042Y-84805518D01*
X107654042Y-84805518D01*
G37*
G36*
X110194042Y-84805518D02*
X110260227Y-84812037D01*
X110373453Y-84846384D01*
X110430067Y-84863557D01*
X110498620Y-84900200D01*
X110586591Y-84947222D01*
X110607957Y-84964757D01*
X110723786Y-85059814D01*
X110806837Y-85161014D01*
X110836378Y-85197009D01*
X110836379Y-85197011D01*
X110920043Y-85353533D01*
X110920043Y-85353534D01*
X110971563Y-85523373D01*
X110988959Y-85700000D01*
X110971563Y-85876627D01*
X110946694Y-85958609D01*
X110920043Y-86046467D01*
X110883339Y-86115134D01*
X110836378Y-86202991D01*
X110807048Y-86238729D01*
X110723786Y-86340186D01*
X110650181Y-86400591D01*
X110586591Y-86452778D01*
X110586589Y-86452779D01*
X110430067Y-86536443D01*
X110373453Y-86553616D01*
X110260227Y-86587963D01*
X110194042Y-86594482D01*
X110127860Y-86601000D01*
X110039340Y-86601000D01*
X109973158Y-86594482D01*
X109906973Y-86587963D01*
X109793747Y-86553616D01*
X109737133Y-86536443D01*
X109580611Y-86452779D01*
X109580609Y-86452778D01*
X109517019Y-86400591D01*
X109443414Y-86340186D01*
X109360152Y-86238729D01*
X109330822Y-86202991D01*
X109283861Y-86115134D01*
X109247157Y-86046467D01*
X109220506Y-85958609D01*
X109195637Y-85876627D01*
X109178241Y-85700000D01*
X109195637Y-85523373D01*
X109247157Y-85353534D01*
X109247157Y-85353533D01*
X109330821Y-85197011D01*
X109330822Y-85197009D01*
X109360363Y-85161014D01*
X109443414Y-85059814D01*
X109559243Y-84964757D01*
X109580609Y-84947222D01*
X109668580Y-84900200D01*
X109737133Y-84863557D01*
X109793747Y-84846384D01*
X109906973Y-84812037D01*
X109973158Y-84805518D01*
X110039340Y-84799000D01*
X110127860Y-84799000D01*
X110194042Y-84805518D01*
X110194042Y-84805518D01*
G37*
G36*
X112734042Y-84805518D02*
X112800227Y-84812037D01*
X112913453Y-84846384D01*
X112970067Y-84863557D01*
X113038620Y-84900200D01*
X113126591Y-84947222D01*
X113147957Y-84964757D01*
X113263786Y-85059814D01*
X113346837Y-85161014D01*
X113376378Y-85197009D01*
X113376379Y-85197011D01*
X113460043Y-85353533D01*
X113460043Y-85353534D01*
X113511563Y-85523373D01*
X113528959Y-85700000D01*
X113511563Y-85876627D01*
X113486694Y-85958609D01*
X113460043Y-86046467D01*
X113423339Y-86115134D01*
X113376378Y-86202991D01*
X113347048Y-86238729D01*
X113263786Y-86340186D01*
X113190181Y-86400591D01*
X113126591Y-86452778D01*
X113126589Y-86452779D01*
X112970067Y-86536443D01*
X112913453Y-86553616D01*
X112800227Y-86587963D01*
X112734042Y-86594482D01*
X112667860Y-86601000D01*
X112579340Y-86601000D01*
X112513158Y-86594482D01*
X112446973Y-86587963D01*
X112333747Y-86553616D01*
X112277133Y-86536443D01*
X112120611Y-86452779D01*
X112120609Y-86452778D01*
X112057019Y-86400591D01*
X111983414Y-86340186D01*
X111900152Y-86238729D01*
X111870822Y-86202991D01*
X111823861Y-86115134D01*
X111787157Y-86046467D01*
X111760506Y-85958609D01*
X111735637Y-85876627D01*
X111718241Y-85700000D01*
X111735637Y-85523373D01*
X111787157Y-85353534D01*
X111787157Y-85353533D01*
X111870821Y-85197011D01*
X111870822Y-85197009D01*
X111900363Y-85161014D01*
X111983414Y-85059814D01*
X112099243Y-84964757D01*
X112120609Y-84947222D01*
X112208580Y-84900200D01*
X112277133Y-84863557D01*
X112333747Y-84846384D01*
X112446973Y-84812037D01*
X112513158Y-84805518D01*
X112579340Y-84799000D01*
X112667860Y-84799000D01*
X112734042Y-84805518D01*
X112734042Y-84805518D01*
G37*
G36*
X115274042Y-84805518D02*
X115340227Y-84812037D01*
X115453453Y-84846384D01*
X115510067Y-84863557D01*
X115578620Y-84900200D01*
X115666591Y-84947222D01*
X115687957Y-84964757D01*
X115803786Y-85059814D01*
X115886837Y-85161014D01*
X115916378Y-85197009D01*
X115916379Y-85197011D01*
X116000043Y-85353533D01*
X116000043Y-85353534D01*
X116051563Y-85523373D01*
X116068959Y-85700000D01*
X116051563Y-85876627D01*
X116026694Y-85958609D01*
X116000043Y-86046467D01*
X115963339Y-86115134D01*
X115916378Y-86202991D01*
X115887048Y-86238729D01*
X115803786Y-86340186D01*
X115730181Y-86400591D01*
X115666591Y-86452778D01*
X115666589Y-86452779D01*
X115510067Y-86536443D01*
X115453453Y-86553616D01*
X115340227Y-86587963D01*
X115274042Y-86594482D01*
X115207860Y-86601000D01*
X115119340Y-86601000D01*
X115053158Y-86594482D01*
X114986973Y-86587963D01*
X114873747Y-86553616D01*
X114817133Y-86536443D01*
X114660611Y-86452779D01*
X114660609Y-86452778D01*
X114597019Y-86400591D01*
X114523414Y-86340186D01*
X114440152Y-86238729D01*
X114410822Y-86202991D01*
X114363861Y-86115134D01*
X114327157Y-86046467D01*
X114300506Y-85958609D01*
X114275637Y-85876627D01*
X114258241Y-85700000D01*
X114275637Y-85523373D01*
X114327157Y-85353534D01*
X114327157Y-85353533D01*
X114410821Y-85197011D01*
X114410822Y-85197009D01*
X114440363Y-85161014D01*
X114523414Y-85059814D01*
X114639243Y-84964757D01*
X114660609Y-84947222D01*
X114748580Y-84900200D01*
X114817133Y-84863557D01*
X114873747Y-84846384D01*
X114986973Y-84812037D01*
X115053158Y-84805518D01*
X115119340Y-84799000D01*
X115207860Y-84799000D01*
X115274042Y-84805518D01*
X115274042Y-84805518D01*
G37*
G36*
X117814042Y-84805518D02*
X117880227Y-84812037D01*
X117993453Y-84846384D01*
X118050067Y-84863557D01*
X118118620Y-84900200D01*
X118206591Y-84947222D01*
X118227957Y-84964757D01*
X118343786Y-85059814D01*
X118426837Y-85161014D01*
X118456378Y-85197009D01*
X118456379Y-85197011D01*
X118540043Y-85353533D01*
X118540043Y-85353534D01*
X118591563Y-85523373D01*
X118608959Y-85700000D01*
X118591563Y-85876627D01*
X118566694Y-85958609D01*
X118540043Y-86046467D01*
X118503339Y-86115134D01*
X118456378Y-86202991D01*
X118427048Y-86238729D01*
X118343786Y-86340186D01*
X118270181Y-86400591D01*
X118206591Y-86452778D01*
X118206589Y-86452779D01*
X118050067Y-86536443D01*
X117993453Y-86553616D01*
X117880227Y-86587963D01*
X117814042Y-86594482D01*
X117747860Y-86601000D01*
X117659340Y-86601000D01*
X117593158Y-86594482D01*
X117526973Y-86587963D01*
X117413747Y-86553616D01*
X117357133Y-86536443D01*
X117200611Y-86452779D01*
X117200609Y-86452778D01*
X117137019Y-86400591D01*
X117063414Y-86340186D01*
X116980152Y-86238729D01*
X116950822Y-86202991D01*
X116903861Y-86115134D01*
X116867157Y-86046467D01*
X116840506Y-85958609D01*
X116815637Y-85876627D01*
X116798241Y-85700000D01*
X116815637Y-85523373D01*
X116867157Y-85353534D01*
X116867157Y-85353533D01*
X116950821Y-85197011D01*
X116950822Y-85197009D01*
X116980363Y-85161014D01*
X117063414Y-85059814D01*
X117179243Y-84964757D01*
X117200609Y-84947222D01*
X117288580Y-84900200D01*
X117357133Y-84863557D01*
X117413747Y-84846384D01*
X117526973Y-84812037D01*
X117593158Y-84805518D01*
X117659340Y-84799000D01*
X117747860Y-84799000D01*
X117814042Y-84805518D01*
X117814042Y-84805518D01*
G37*
G36*
X125434042Y-84805518D02*
X125500227Y-84812037D01*
X125613453Y-84846384D01*
X125670067Y-84863557D01*
X125738620Y-84900200D01*
X125826591Y-84947222D01*
X125847957Y-84964757D01*
X125963786Y-85059814D01*
X126046837Y-85161014D01*
X126076378Y-85197009D01*
X126076379Y-85197011D01*
X126160043Y-85353533D01*
X126160043Y-85353534D01*
X126211563Y-85523373D01*
X126228959Y-85700000D01*
X126211563Y-85876627D01*
X126186694Y-85958609D01*
X126160043Y-86046467D01*
X126123339Y-86115134D01*
X126076378Y-86202991D01*
X126047048Y-86238729D01*
X125963786Y-86340186D01*
X125890181Y-86400591D01*
X125826591Y-86452778D01*
X125826589Y-86452779D01*
X125670067Y-86536443D01*
X125613453Y-86553616D01*
X125500227Y-86587963D01*
X125434042Y-86594482D01*
X125367860Y-86601000D01*
X125279340Y-86601000D01*
X125213158Y-86594482D01*
X125146973Y-86587963D01*
X125033747Y-86553616D01*
X124977133Y-86536443D01*
X124820611Y-86452779D01*
X124820609Y-86452778D01*
X124757019Y-86400591D01*
X124683414Y-86340186D01*
X124600152Y-86238729D01*
X124570822Y-86202991D01*
X124523861Y-86115134D01*
X124487157Y-86046467D01*
X124460506Y-85958609D01*
X124435637Y-85876627D01*
X124418241Y-85700000D01*
X124435637Y-85523373D01*
X124487157Y-85353534D01*
X124487157Y-85353533D01*
X124570821Y-85197011D01*
X124570822Y-85197009D01*
X124600363Y-85161014D01*
X124683414Y-85059814D01*
X124799243Y-84964757D01*
X124820609Y-84947222D01*
X124908580Y-84900200D01*
X124977133Y-84863557D01*
X125033747Y-84846384D01*
X125146973Y-84812037D01*
X125213158Y-84805518D01*
X125279340Y-84799000D01*
X125367860Y-84799000D01*
X125434042Y-84805518D01*
X125434042Y-84805518D01*
G37*
G36*
X133054042Y-84805518D02*
X133120227Y-84812037D01*
X133233453Y-84846384D01*
X133290067Y-84863557D01*
X133358620Y-84900200D01*
X133446591Y-84947222D01*
X133467957Y-84964757D01*
X133583786Y-85059814D01*
X133666837Y-85161014D01*
X133696378Y-85197009D01*
X133696379Y-85197011D01*
X133780043Y-85353533D01*
X133780043Y-85353534D01*
X133831563Y-85523373D01*
X133848959Y-85700000D01*
X133831563Y-85876627D01*
X133806694Y-85958609D01*
X133780043Y-86046467D01*
X133743339Y-86115134D01*
X133696378Y-86202991D01*
X133667048Y-86238729D01*
X133583786Y-86340186D01*
X133510181Y-86400591D01*
X133446591Y-86452778D01*
X133446589Y-86452779D01*
X133290067Y-86536443D01*
X133233453Y-86553616D01*
X133120227Y-86587963D01*
X133054042Y-86594482D01*
X132987860Y-86601000D01*
X132899340Y-86601000D01*
X132833158Y-86594482D01*
X132766973Y-86587963D01*
X132653747Y-86553616D01*
X132597133Y-86536443D01*
X132440611Y-86452779D01*
X132440609Y-86452778D01*
X132377019Y-86400591D01*
X132303414Y-86340186D01*
X132220152Y-86238729D01*
X132190822Y-86202991D01*
X132143861Y-86115134D01*
X132107157Y-86046467D01*
X132080506Y-85958609D01*
X132055637Y-85876627D01*
X132038241Y-85700000D01*
X132055637Y-85523373D01*
X132107157Y-85353534D01*
X132107157Y-85353533D01*
X132190821Y-85197011D01*
X132190822Y-85197009D01*
X132220363Y-85161014D01*
X132303414Y-85059814D01*
X132419243Y-84964757D01*
X132440609Y-84947222D01*
X132528580Y-84900200D01*
X132597133Y-84863557D01*
X132653747Y-84846384D01*
X132766973Y-84812037D01*
X132833158Y-84805518D01*
X132899340Y-84799000D01*
X132987860Y-84799000D01*
X133054042Y-84805518D01*
X133054042Y-84805518D01*
G37*
G36*
X135594042Y-84805518D02*
X135660227Y-84812037D01*
X135773453Y-84846384D01*
X135830067Y-84863557D01*
X135898620Y-84900200D01*
X135986591Y-84947222D01*
X136007957Y-84964757D01*
X136123786Y-85059814D01*
X136206837Y-85161014D01*
X136236378Y-85197009D01*
X136236379Y-85197011D01*
X136320043Y-85353533D01*
X136320043Y-85353534D01*
X136371563Y-85523373D01*
X136388959Y-85700000D01*
X136371563Y-85876627D01*
X136346694Y-85958609D01*
X136320043Y-86046467D01*
X136283339Y-86115134D01*
X136236378Y-86202991D01*
X136207048Y-86238729D01*
X136123786Y-86340186D01*
X136050181Y-86400591D01*
X135986591Y-86452778D01*
X135986589Y-86452779D01*
X135830067Y-86536443D01*
X135773453Y-86553616D01*
X135660227Y-86587963D01*
X135594042Y-86594482D01*
X135527860Y-86601000D01*
X135439340Y-86601000D01*
X135373158Y-86594482D01*
X135306973Y-86587963D01*
X135193747Y-86553616D01*
X135137133Y-86536443D01*
X134980611Y-86452779D01*
X134980609Y-86452778D01*
X134917019Y-86400591D01*
X134843414Y-86340186D01*
X134760152Y-86238729D01*
X134730822Y-86202991D01*
X134683861Y-86115134D01*
X134647157Y-86046467D01*
X134620506Y-85958609D01*
X134595637Y-85876627D01*
X134578241Y-85700000D01*
X134595637Y-85523373D01*
X134647157Y-85353534D01*
X134647157Y-85353533D01*
X134730821Y-85197011D01*
X134730822Y-85197009D01*
X134760363Y-85161014D01*
X134843414Y-85059814D01*
X134959243Y-84964757D01*
X134980609Y-84947222D01*
X135068580Y-84900200D01*
X135137133Y-84863557D01*
X135193747Y-84846384D01*
X135306973Y-84812037D01*
X135373158Y-84805518D01*
X135439340Y-84799000D01*
X135527860Y-84799000D01*
X135594042Y-84805518D01*
X135594042Y-84805518D01*
G37*
G36*
X130514042Y-84805518D02*
X130580227Y-84812037D01*
X130693453Y-84846384D01*
X130750067Y-84863557D01*
X130818620Y-84900200D01*
X130906591Y-84947222D01*
X130927957Y-84964757D01*
X131043786Y-85059814D01*
X131126837Y-85161014D01*
X131156378Y-85197009D01*
X131156379Y-85197011D01*
X131240043Y-85353533D01*
X131240043Y-85353534D01*
X131291563Y-85523373D01*
X131308959Y-85700000D01*
X131291563Y-85876627D01*
X131266694Y-85958609D01*
X131240043Y-86046467D01*
X131203339Y-86115134D01*
X131156378Y-86202991D01*
X131127048Y-86238729D01*
X131043786Y-86340186D01*
X130970181Y-86400591D01*
X130906591Y-86452778D01*
X130906589Y-86452779D01*
X130750067Y-86536443D01*
X130693453Y-86553616D01*
X130580227Y-86587963D01*
X130514042Y-86594482D01*
X130447860Y-86601000D01*
X130359340Y-86601000D01*
X130293158Y-86594482D01*
X130226973Y-86587963D01*
X130113747Y-86553616D01*
X130057133Y-86536443D01*
X129900611Y-86452779D01*
X129900609Y-86452778D01*
X129837019Y-86400591D01*
X129763414Y-86340186D01*
X129680152Y-86238729D01*
X129650822Y-86202991D01*
X129603861Y-86115134D01*
X129567157Y-86046467D01*
X129540506Y-85958609D01*
X129515637Y-85876627D01*
X129498241Y-85700000D01*
X129515637Y-85523373D01*
X129567157Y-85353534D01*
X129567157Y-85353533D01*
X129650821Y-85197011D01*
X129650822Y-85197009D01*
X129680363Y-85161014D01*
X129763414Y-85059814D01*
X129879243Y-84964757D01*
X129900609Y-84947222D01*
X129988580Y-84900200D01*
X130057133Y-84863557D01*
X130113747Y-84846384D01*
X130226973Y-84812037D01*
X130293158Y-84805518D01*
X130359340Y-84799000D01*
X130447860Y-84799000D01*
X130514042Y-84805518D01*
X130514042Y-84805518D01*
G37*
G36*
X122894042Y-84805518D02*
X122960227Y-84812037D01*
X123073453Y-84846384D01*
X123130067Y-84863557D01*
X123198620Y-84900200D01*
X123286591Y-84947222D01*
X123307957Y-84964757D01*
X123423786Y-85059814D01*
X123506837Y-85161014D01*
X123536378Y-85197009D01*
X123536379Y-85197011D01*
X123620043Y-85353533D01*
X123620043Y-85353534D01*
X123671563Y-85523373D01*
X123688959Y-85700000D01*
X123671563Y-85876627D01*
X123646694Y-85958609D01*
X123620043Y-86046467D01*
X123583339Y-86115134D01*
X123536378Y-86202991D01*
X123507048Y-86238729D01*
X123423786Y-86340186D01*
X123350181Y-86400591D01*
X123286591Y-86452778D01*
X123286589Y-86452779D01*
X123130067Y-86536443D01*
X123073453Y-86553616D01*
X122960227Y-86587963D01*
X122894042Y-86594482D01*
X122827860Y-86601000D01*
X122739340Y-86601000D01*
X122673158Y-86594482D01*
X122606973Y-86587963D01*
X122493747Y-86553616D01*
X122437133Y-86536443D01*
X122280611Y-86452779D01*
X122280609Y-86452778D01*
X122217019Y-86400591D01*
X122143414Y-86340186D01*
X122060152Y-86238729D01*
X122030822Y-86202991D01*
X121983861Y-86115134D01*
X121947157Y-86046467D01*
X121920506Y-85958609D01*
X121895637Y-85876627D01*
X121878241Y-85700000D01*
X121895637Y-85523373D01*
X121947157Y-85353534D01*
X121947157Y-85353533D01*
X122030821Y-85197011D01*
X122030822Y-85197009D01*
X122060363Y-85161014D01*
X122143414Y-85059814D01*
X122259243Y-84964757D01*
X122280609Y-84947222D01*
X122368580Y-84900200D01*
X122437133Y-84863557D01*
X122493747Y-84846384D01*
X122606973Y-84812037D01*
X122673158Y-84805518D01*
X122739340Y-84799000D01*
X122827860Y-84799000D01*
X122894042Y-84805518D01*
X122894042Y-84805518D01*
G37*
G36*
X127974042Y-84805518D02*
X128040227Y-84812037D01*
X128153453Y-84846384D01*
X128210067Y-84863557D01*
X128278620Y-84900200D01*
X128366591Y-84947222D01*
X128387957Y-84964757D01*
X128503786Y-85059814D01*
X128586837Y-85161014D01*
X128616378Y-85197009D01*
X128616379Y-85197011D01*
X128700043Y-85353533D01*
X128700043Y-85353534D01*
X128751563Y-85523373D01*
X128768959Y-85700000D01*
X128751563Y-85876627D01*
X128726694Y-85958609D01*
X128700043Y-86046467D01*
X128663339Y-86115134D01*
X128616378Y-86202991D01*
X128587048Y-86238729D01*
X128503786Y-86340186D01*
X128430181Y-86400591D01*
X128366591Y-86452778D01*
X128366589Y-86452779D01*
X128210067Y-86536443D01*
X128153453Y-86553616D01*
X128040227Y-86587963D01*
X127974042Y-86594482D01*
X127907860Y-86601000D01*
X127819340Y-86601000D01*
X127753158Y-86594482D01*
X127686973Y-86587963D01*
X127573747Y-86553616D01*
X127517133Y-86536443D01*
X127360611Y-86452779D01*
X127360609Y-86452778D01*
X127297019Y-86400591D01*
X127223414Y-86340186D01*
X127140152Y-86238729D01*
X127110822Y-86202991D01*
X127063861Y-86115134D01*
X127027157Y-86046467D01*
X127000506Y-85958609D01*
X126975637Y-85876627D01*
X126958241Y-85700000D01*
X126975637Y-85523373D01*
X127027157Y-85353534D01*
X127027157Y-85353533D01*
X127110821Y-85197011D01*
X127110822Y-85197009D01*
X127140363Y-85161014D01*
X127223414Y-85059814D01*
X127339243Y-84964757D01*
X127360609Y-84947222D01*
X127448580Y-84900200D01*
X127517133Y-84863557D01*
X127573747Y-84846384D01*
X127686973Y-84812037D01*
X127753158Y-84805518D01*
X127819340Y-84799000D01*
X127907860Y-84799000D01*
X127974042Y-84805518D01*
X127974042Y-84805518D01*
G37*
G36*
X178842436Y-83647819D02*
X179023703Y-83683875D01*
X179251371Y-83778178D01*
X179340544Y-83837762D01*
X179456269Y-83915087D01*
X179630513Y-84089331D01*
X179630515Y-84089334D01*
X179767422Y-84294229D01*
X179861725Y-84521897D01*
X179909800Y-84763587D01*
X179909800Y-85010013D01*
X179861725Y-85251703D01*
X179767422Y-85479371D01*
X179631132Y-85683342D01*
X179630513Y-85684269D01*
X179456269Y-85858513D01*
X179456266Y-85858515D01*
X179251371Y-85995422D01*
X179023703Y-86089725D01*
X178842435Y-86125781D01*
X178782014Y-86137800D01*
X178535586Y-86137800D01*
X178475165Y-86125781D01*
X178293897Y-86089725D01*
X178066229Y-85995422D01*
X177861334Y-85858515D01*
X177861331Y-85858513D01*
X177687087Y-85684269D01*
X177686468Y-85683342D01*
X177550178Y-85479371D01*
X177455875Y-85251703D01*
X177407800Y-85010013D01*
X177407800Y-84763587D01*
X177455875Y-84521897D01*
X177550178Y-84294229D01*
X177687085Y-84089334D01*
X177687087Y-84089331D01*
X177861331Y-83915087D01*
X177977056Y-83837762D01*
X178066229Y-83778178D01*
X178293897Y-83683875D01*
X178475165Y-83647819D01*
X178535586Y-83635800D01*
X178782014Y-83635800D01*
X178842436Y-83647819D01*
X178842436Y-83647819D01*
G37*
G36*
X165842436Y-83647819D02*
X166023703Y-83683875D01*
X166251371Y-83778178D01*
X166340544Y-83837762D01*
X166456269Y-83915087D01*
X166630513Y-84089331D01*
X166630515Y-84089334D01*
X166767422Y-84294229D01*
X166861725Y-84521897D01*
X166909800Y-84763587D01*
X166909800Y-85010013D01*
X166861725Y-85251703D01*
X166767422Y-85479371D01*
X166631132Y-85683342D01*
X166630513Y-85684269D01*
X166456269Y-85858513D01*
X166456266Y-85858515D01*
X166251371Y-85995422D01*
X166023703Y-86089725D01*
X165842435Y-86125781D01*
X165782014Y-86137800D01*
X165535586Y-86137800D01*
X165475165Y-86125781D01*
X165293897Y-86089725D01*
X165066229Y-85995422D01*
X164861334Y-85858515D01*
X164861331Y-85858513D01*
X164687087Y-85684269D01*
X164686468Y-85683342D01*
X164550178Y-85479371D01*
X164455875Y-85251703D01*
X164407800Y-85010013D01*
X164407800Y-84763587D01*
X164455875Y-84521897D01*
X164550178Y-84294229D01*
X164687085Y-84089334D01*
X164687087Y-84089331D01*
X164861331Y-83915087D01*
X164977056Y-83837762D01*
X165066229Y-83778178D01*
X165293897Y-83683875D01*
X165475165Y-83647819D01*
X165535586Y-83635800D01*
X165782014Y-83635800D01*
X165842436Y-83647819D01*
X165842436Y-83647819D01*
G37*
G36*
X129248762Y-82465381D02*
X129283677Y-82475973D01*
X129315865Y-82493178D01*
X129344073Y-82516327D01*
X129367222Y-82544535D01*
X129384427Y-82576723D01*
X129395019Y-82611638D01*
X129399200Y-82654095D01*
X129399200Y-83795305D01*
X129395019Y-83837762D01*
X129384427Y-83872677D01*
X129367222Y-83904865D01*
X129344073Y-83933073D01*
X129315865Y-83956222D01*
X129283677Y-83973427D01*
X129248762Y-83984019D01*
X129206305Y-83988200D01*
X127740095Y-83988200D01*
X127697638Y-83984019D01*
X127662723Y-83973427D01*
X127630535Y-83956222D01*
X127602327Y-83933073D01*
X127579178Y-83904865D01*
X127561973Y-83872677D01*
X127551381Y-83837762D01*
X127547200Y-83795305D01*
X127547200Y-82654095D01*
X127551381Y-82611638D01*
X127561973Y-82576723D01*
X127579178Y-82544535D01*
X127602327Y-82516327D01*
X127630535Y-82493178D01*
X127662723Y-82475973D01*
X127697638Y-82465381D01*
X127740095Y-82461200D01*
X129206305Y-82461200D01*
X129248762Y-82465381D01*
X129248762Y-82465381D01*
G37*
G36*
X151662477Y-81549465D02*
X151700164Y-81560898D01*
X151734903Y-81579466D01*
X151765348Y-81604452D01*
X151790334Y-81634897D01*
X151808902Y-81669636D01*
X151820335Y-81707323D01*
X151824800Y-81752661D01*
X151824800Y-82839339D01*
X151820335Y-82884677D01*
X151808902Y-82922364D01*
X151790334Y-82957103D01*
X151765348Y-82987548D01*
X151734903Y-83012534D01*
X151700164Y-83031102D01*
X151662477Y-83042535D01*
X151617139Y-83047000D01*
X150780461Y-83047000D01*
X150735123Y-83042535D01*
X150697436Y-83031102D01*
X150662697Y-83012534D01*
X150632252Y-82987548D01*
X150607266Y-82957103D01*
X150588698Y-82922364D01*
X150577265Y-82884677D01*
X150572800Y-82839339D01*
X150572800Y-81752661D01*
X150577265Y-81707323D01*
X150588698Y-81669636D01*
X150607266Y-81634897D01*
X150632252Y-81604452D01*
X150662697Y-81579466D01*
X150697436Y-81560898D01*
X150735123Y-81549465D01*
X150780461Y-81545000D01*
X151617139Y-81545000D01*
X151662477Y-81549465D01*
X151662477Y-81549465D01*
G37*
G36*
X149612477Y-81549465D02*
X149650164Y-81560898D01*
X149684903Y-81579466D01*
X149715348Y-81604452D01*
X149740334Y-81634897D01*
X149758902Y-81669636D01*
X149770335Y-81707323D01*
X149774800Y-81752661D01*
X149774800Y-82839339D01*
X149770335Y-82884677D01*
X149758902Y-82922364D01*
X149740334Y-82957103D01*
X149715348Y-82987548D01*
X149684903Y-83012534D01*
X149650164Y-83031102D01*
X149612477Y-83042535D01*
X149567139Y-83047000D01*
X148730461Y-83047000D01*
X148685123Y-83042535D01*
X148647436Y-83031102D01*
X148612697Y-83012534D01*
X148582252Y-82987548D01*
X148557266Y-82957103D01*
X148538698Y-82922364D01*
X148527265Y-82884677D01*
X148522800Y-82839339D01*
X148522800Y-81752661D01*
X148527265Y-81707323D01*
X148538698Y-81669636D01*
X148557266Y-81634897D01*
X148582252Y-81604452D01*
X148612697Y-81579466D01*
X148647436Y-81560898D01*
X148685123Y-81549465D01*
X148730461Y-81545000D01*
X149567139Y-81545000D01*
X149612477Y-81549465D01*
X149612477Y-81549465D01*
G37*
G36*
X101042965Y-80756189D02*
X101234234Y-80835415D01*
X101406376Y-80950437D01*
X101552763Y-81096824D01*
X101667785Y-81268966D01*
X101747011Y-81460235D01*
X101787400Y-81663284D01*
X101787400Y-81870316D01*
X101747011Y-82073365D01*
X101667785Y-82264634D01*
X101552763Y-82436776D01*
X101406376Y-82583163D01*
X101234234Y-82698185D01*
X101042965Y-82777411D01*
X100839916Y-82817800D01*
X100632884Y-82817800D01*
X100429835Y-82777411D01*
X100238566Y-82698185D01*
X100066424Y-82583163D01*
X99920037Y-82436776D01*
X99805015Y-82264634D01*
X99725789Y-82073365D01*
X99685400Y-81870316D01*
X99685400Y-81663284D01*
X99725789Y-81460235D01*
X99805015Y-81268966D01*
X99920037Y-81096824D01*
X100066424Y-80950437D01*
X100238566Y-80835415D01*
X100429835Y-80756189D01*
X100632884Y-80715800D01*
X100839916Y-80715800D01*
X101042965Y-80756189D01*
X101042965Y-80756189D01*
G37*
G36*
X107542965Y-80756189D02*
X107734234Y-80835415D01*
X107906376Y-80950437D01*
X108052763Y-81096824D01*
X108167785Y-81268966D01*
X108247011Y-81460235D01*
X108287400Y-81663284D01*
X108287400Y-81870316D01*
X108247011Y-82073365D01*
X108167785Y-82264634D01*
X108052763Y-82436776D01*
X107906376Y-82583163D01*
X107734234Y-82698185D01*
X107542965Y-82777411D01*
X107339916Y-82817800D01*
X107132884Y-82817800D01*
X106929835Y-82777411D01*
X106738566Y-82698185D01*
X106566424Y-82583163D01*
X106420037Y-82436776D01*
X106305015Y-82264634D01*
X106225789Y-82073365D01*
X106185400Y-81870316D01*
X106185400Y-81663284D01*
X106225789Y-81460235D01*
X106305015Y-81268966D01*
X106420037Y-81096824D01*
X106566424Y-80950437D01*
X106738566Y-80835415D01*
X106929835Y-80756189D01*
X107132884Y-80715800D01*
X107339916Y-80715800D01*
X107542965Y-80756189D01*
X107542965Y-80756189D01*
G37*
G36*
X118142062Y-80662981D02*
X118176977Y-80673573D01*
X118209165Y-80690778D01*
X118237373Y-80713927D01*
X118260522Y-80742135D01*
X118277727Y-80774323D01*
X118288319Y-80809238D01*
X118292500Y-80851695D01*
X118292500Y-82317905D01*
X118288319Y-82360362D01*
X118277727Y-82395277D01*
X118260522Y-82427465D01*
X118237373Y-82455673D01*
X118209165Y-82478822D01*
X118176977Y-82496027D01*
X118142062Y-82506619D01*
X118099605Y-82510800D01*
X116958395Y-82510800D01*
X116915938Y-82506619D01*
X116881023Y-82496027D01*
X116848835Y-82478822D01*
X116820627Y-82455673D01*
X116797478Y-82427465D01*
X116780273Y-82395277D01*
X116769681Y-82360362D01*
X116765500Y-82317905D01*
X116765500Y-80851695D01*
X116769681Y-80809238D01*
X116780273Y-80774323D01*
X116797478Y-80742135D01*
X116820627Y-80713927D01*
X116848835Y-80690778D01*
X116881023Y-80673573D01*
X116915938Y-80662981D01*
X116958395Y-80658800D01*
X118099605Y-80658800D01*
X118142062Y-80662981D01*
X118142062Y-80662981D01*
G37*
G36*
X115167062Y-80662981D02*
X115201977Y-80673573D01*
X115234165Y-80690778D01*
X115262373Y-80713927D01*
X115285522Y-80742135D01*
X115302727Y-80774323D01*
X115313319Y-80809238D01*
X115317500Y-80851695D01*
X115317500Y-82317905D01*
X115313319Y-82360362D01*
X115302727Y-82395277D01*
X115285522Y-82427465D01*
X115262373Y-82455673D01*
X115234165Y-82478822D01*
X115201977Y-82496027D01*
X115167062Y-82506619D01*
X115124605Y-82510800D01*
X113983395Y-82510800D01*
X113940938Y-82506619D01*
X113906023Y-82496027D01*
X113873835Y-82478822D01*
X113845627Y-82455673D01*
X113822478Y-82427465D01*
X113805273Y-82395277D01*
X113794681Y-82360362D01*
X113790500Y-82317905D01*
X113790500Y-80851695D01*
X113794681Y-80809238D01*
X113805273Y-80774323D01*
X113822478Y-80742135D01*
X113845627Y-80713927D01*
X113873835Y-80690778D01*
X113906023Y-80673573D01*
X113940938Y-80662981D01*
X113983395Y-80658800D01*
X115124605Y-80658800D01*
X115167062Y-80662981D01*
X115167062Y-80662981D01*
G37*
G36*
X135308262Y-80839781D02*
X135343177Y-80850373D01*
X135375365Y-80867578D01*
X135403573Y-80890727D01*
X135426722Y-80918935D01*
X135443927Y-80951123D01*
X135454519Y-80986038D01*
X135458700Y-81028495D01*
X135458700Y-82169705D01*
X135454519Y-82212162D01*
X135443927Y-82247077D01*
X135426722Y-82279265D01*
X135403573Y-82307473D01*
X135375365Y-82330622D01*
X135343177Y-82347827D01*
X135308262Y-82358419D01*
X135265805Y-82362600D01*
X133799595Y-82362600D01*
X133757138Y-82358419D01*
X133722223Y-82347827D01*
X133690035Y-82330622D01*
X133661827Y-82307473D01*
X133638678Y-82279265D01*
X133621473Y-82247077D01*
X133610881Y-82212162D01*
X133606700Y-82169705D01*
X133606700Y-81028495D01*
X133610881Y-80986038D01*
X133621473Y-80951123D01*
X133638678Y-80918935D01*
X133661827Y-80890727D01*
X133690035Y-80867578D01*
X133722223Y-80850373D01*
X133757138Y-80839781D01*
X133799595Y-80835600D01*
X135265805Y-80835600D01*
X135308262Y-80839781D01*
X135308262Y-80839781D01*
G37*
G36*
X129248762Y-79490381D02*
X129283677Y-79500973D01*
X129315865Y-79518178D01*
X129344073Y-79541327D01*
X129367222Y-79569535D01*
X129384427Y-79601723D01*
X129395019Y-79636638D01*
X129399200Y-79679095D01*
X129399200Y-80820305D01*
X129395019Y-80862762D01*
X129384427Y-80897677D01*
X129367222Y-80929865D01*
X129344073Y-80958073D01*
X129315865Y-80981222D01*
X129283677Y-80998427D01*
X129248762Y-81009019D01*
X129206305Y-81013200D01*
X127740095Y-81013200D01*
X127697638Y-81009019D01*
X127662723Y-80998427D01*
X127630535Y-80981222D01*
X127602327Y-80958073D01*
X127579178Y-80929865D01*
X127561973Y-80897677D01*
X127551381Y-80862762D01*
X127547200Y-80820305D01*
X127547200Y-79679095D01*
X127551381Y-79636638D01*
X127561973Y-79601723D01*
X127579178Y-79569535D01*
X127602327Y-79541327D01*
X127630535Y-79518178D01*
X127662723Y-79500973D01*
X127697638Y-79490381D01*
X127740095Y-79486200D01*
X129206305Y-79486200D01*
X129248762Y-79490381D01*
X129248762Y-79490381D01*
G37*
G36*
X103417277Y-78958665D02*
X103454964Y-78970098D01*
X103489703Y-78988666D01*
X103520148Y-79013652D01*
X103545134Y-79044097D01*
X103563702Y-79078836D01*
X103575135Y-79116523D01*
X103579600Y-79161861D01*
X103579600Y-80248539D01*
X103575135Y-80293877D01*
X103563702Y-80331564D01*
X103545134Y-80366303D01*
X103520148Y-80396748D01*
X103489703Y-80421734D01*
X103454964Y-80440302D01*
X103417277Y-80451735D01*
X103371939Y-80456200D01*
X102535261Y-80456200D01*
X102489923Y-80451735D01*
X102452236Y-80440302D01*
X102417497Y-80421734D01*
X102387052Y-80396748D01*
X102362066Y-80366303D01*
X102343498Y-80331564D01*
X102332065Y-80293877D01*
X102327600Y-80248539D01*
X102327600Y-79161861D01*
X102332065Y-79116523D01*
X102343498Y-79078836D01*
X102362066Y-79044097D01*
X102387052Y-79013652D01*
X102417497Y-78988666D01*
X102452236Y-78970098D01*
X102489923Y-78958665D01*
X102535261Y-78954200D01*
X103371939Y-78954200D01*
X103417277Y-78958665D01*
X103417277Y-78958665D01*
G37*
G36*
X105467277Y-78958665D02*
X105504964Y-78970098D01*
X105539703Y-78988666D01*
X105570148Y-79013652D01*
X105595134Y-79044097D01*
X105613702Y-79078836D01*
X105625135Y-79116523D01*
X105629600Y-79161861D01*
X105629600Y-80248539D01*
X105625135Y-80293877D01*
X105613702Y-80331564D01*
X105595134Y-80366303D01*
X105570148Y-80396748D01*
X105539703Y-80421734D01*
X105504964Y-80440302D01*
X105467277Y-80451735D01*
X105421939Y-80456200D01*
X104585261Y-80456200D01*
X104539923Y-80451735D01*
X104502236Y-80440302D01*
X104467497Y-80421734D01*
X104437052Y-80396748D01*
X104412066Y-80366303D01*
X104393498Y-80331564D01*
X104382065Y-80293877D01*
X104377600Y-80248539D01*
X104377600Y-79161861D01*
X104382065Y-79116523D01*
X104393498Y-79078836D01*
X104412066Y-79044097D01*
X104437052Y-79013652D01*
X104467497Y-78988666D01*
X104502236Y-78970098D01*
X104539923Y-78958665D01*
X104585261Y-78954200D01*
X105421939Y-78954200D01*
X105467277Y-78958665D01*
X105467277Y-78958665D01*
G37*
G36*
X115091877Y-78542865D02*
X115129564Y-78554298D01*
X115164303Y-78572866D01*
X115194748Y-78597852D01*
X115219734Y-78628297D01*
X115238302Y-78663036D01*
X115249735Y-78700723D01*
X115254200Y-78746061D01*
X115254200Y-79582739D01*
X115249735Y-79628077D01*
X115238302Y-79665764D01*
X115219734Y-79700503D01*
X115194748Y-79730948D01*
X115164303Y-79755934D01*
X115129564Y-79774502D01*
X115091877Y-79785935D01*
X115046539Y-79790400D01*
X113959861Y-79790400D01*
X113914523Y-79785935D01*
X113876836Y-79774502D01*
X113842097Y-79755934D01*
X113811652Y-79730948D01*
X113786666Y-79700503D01*
X113768098Y-79665764D01*
X113756665Y-79628077D01*
X113752200Y-79582739D01*
X113752200Y-78746061D01*
X113756665Y-78700723D01*
X113768098Y-78663036D01*
X113786666Y-78628297D01*
X113811652Y-78597852D01*
X113842097Y-78572866D01*
X113876836Y-78554298D01*
X113914523Y-78542865D01*
X113959861Y-78538400D01*
X115046539Y-78538400D01*
X115091877Y-78542865D01*
X115091877Y-78542865D01*
G37*
G36*
X135308262Y-77864781D02*
X135343177Y-77875373D01*
X135375365Y-77892578D01*
X135403573Y-77915727D01*
X135426722Y-77943935D01*
X135443927Y-77976123D01*
X135454519Y-78011038D01*
X135458700Y-78053495D01*
X135458700Y-79194705D01*
X135454519Y-79237162D01*
X135443927Y-79272077D01*
X135426722Y-79304265D01*
X135403573Y-79332473D01*
X135375365Y-79355622D01*
X135343177Y-79372827D01*
X135308262Y-79383419D01*
X135265805Y-79387600D01*
X133799595Y-79387600D01*
X133757138Y-79383419D01*
X133722223Y-79372827D01*
X133690035Y-79355622D01*
X133661827Y-79332473D01*
X133638678Y-79304265D01*
X133621473Y-79272077D01*
X133610881Y-79237162D01*
X133606700Y-79194705D01*
X133606700Y-78053495D01*
X133610881Y-78011038D01*
X133621473Y-77976123D01*
X133638678Y-77943935D01*
X133661827Y-77915727D01*
X133690035Y-77892578D01*
X133722223Y-77875373D01*
X133757138Y-77864781D01*
X133799595Y-77860600D01*
X135265805Y-77860600D01*
X135308262Y-77864781D01*
X135308262Y-77864781D01*
G37*
G36*
X120561962Y-77436181D02*
X120596877Y-77446773D01*
X120629065Y-77463978D01*
X120657273Y-77487127D01*
X120680422Y-77515335D01*
X120697627Y-77547523D01*
X120708219Y-77582438D01*
X120712400Y-77624895D01*
X120712400Y-78766105D01*
X120708219Y-78808562D01*
X120697627Y-78843477D01*
X120680422Y-78875665D01*
X120657273Y-78903873D01*
X120629065Y-78927022D01*
X120596877Y-78944227D01*
X120561962Y-78954819D01*
X120519505Y-78959000D01*
X119053295Y-78959000D01*
X119010838Y-78954819D01*
X118975923Y-78944227D01*
X118943735Y-78927022D01*
X118915527Y-78903873D01*
X118892378Y-78875665D01*
X118875173Y-78843477D01*
X118864581Y-78808562D01*
X118860400Y-78766105D01*
X118860400Y-77624895D01*
X118864581Y-77582438D01*
X118875173Y-77547523D01*
X118892378Y-77515335D01*
X118915527Y-77487127D01*
X118943735Y-77463978D01*
X118975923Y-77446773D01*
X119010838Y-77436181D01*
X119053295Y-77432000D01*
X120519505Y-77432000D01*
X120561962Y-77436181D01*
X120561962Y-77436181D01*
G37*
G36*
X107542965Y-76256189D02*
X107734234Y-76335415D01*
X107906376Y-76450437D01*
X108052763Y-76596824D01*
X108167785Y-76768966D01*
X108247011Y-76960235D01*
X108287400Y-77163284D01*
X108287400Y-77370316D01*
X108247011Y-77573365D01*
X108167785Y-77764634D01*
X108052763Y-77936776D01*
X107906376Y-78083163D01*
X107734234Y-78198185D01*
X107542965Y-78277411D01*
X107339916Y-78317800D01*
X107132884Y-78317800D01*
X106929835Y-78277411D01*
X106738566Y-78198185D01*
X106566424Y-78083163D01*
X106420037Y-77936776D01*
X106305015Y-77764634D01*
X106225789Y-77573365D01*
X106185400Y-77370316D01*
X106185400Y-77163284D01*
X106225789Y-76960235D01*
X106305015Y-76768966D01*
X106420037Y-76596824D01*
X106566424Y-76450437D01*
X106738566Y-76335415D01*
X106929835Y-76256189D01*
X107132884Y-76215800D01*
X107339916Y-76215800D01*
X107542965Y-76256189D01*
X107542965Y-76256189D01*
G37*
G36*
X101042965Y-76256189D02*
X101234234Y-76335415D01*
X101406376Y-76450437D01*
X101552763Y-76596824D01*
X101667785Y-76768966D01*
X101747011Y-76960235D01*
X101787400Y-77163284D01*
X101787400Y-77370316D01*
X101747011Y-77573365D01*
X101667785Y-77764634D01*
X101552763Y-77936776D01*
X101406376Y-78083163D01*
X101234234Y-78198185D01*
X101042965Y-78277411D01*
X100839916Y-78317800D01*
X100632884Y-78317800D01*
X100429835Y-78277411D01*
X100238566Y-78198185D01*
X100066424Y-78083163D01*
X99920037Y-77936776D01*
X99805015Y-77764634D01*
X99725789Y-77573365D01*
X99685400Y-77370316D01*
X99685400Y-77163284D01*
X99725789Y-76960235D01*
X99805015Y-76768966D01*
X99920037Y-76596824D01*
X100066424Y-76450437D01*
X100238566Y-76335415D01*
X100429835Y-76256189D01*
X100632884Y-76215800D01*
X100839916Y-76215800D01*
X101042965Y-76256189D01*
X101042965Y-76256189D01*
G37*
G36*
X115091877Y-76492865D02*
X115129564Y-76504298D01*
X115164303Y-76522866D01*
X115194748Y-76547852D01*
X115219734Y-76578297D01*
X115238302Y-76613036D01*
X115249735Y-76650723D01*
X115254200Y-76696061D01*
X115254200Y-77532739D01*
X115249735Y-77578077D01*
X115238302Y-77615764D01*
X115219734Y-77650503D01*
X115194748Y-77680948D01*
X115164303Y-77705934D01*
X115129564Y-77724502D01*
X115091877Y-77735935D01*
X115046539Y-77740400D01*
X113959861Y-77740400D01*
X113914523Y-77735935D01*
X113876836Y-77724502D01*
X113842097Y-77705934D01*
X113811652Y-77680948D01*
X113786666Y-77650503D01*
X113768098Y-77615764D01*
X113756665Y-77578077D01*
X113752200Y-77532739D01*
X113752200Y-76696061D01*
X113756665Y-76650723D01*
X113768098Y-76613036D01*
X113786666Y-76578297D01*
X113811652Y-76547852D01*
X113842097Y-76522866D01*
X113876836Y-76504298D01*
X113914523Y-76492865D01*
X113959861Y-76488400D01*
X115046539Y-76488400D01*
X115091877Y-76492865D01*
X115091877Y-76492865D01*
G37*
G36*
X129638200Y-77585800D02*
X127816200Y-77585800D01*
X127816200Y-76833800D01*
X129638200Y-76833800D01*
X129638200Y-77585800D01*
X129638200Y-77585800D01*
G37*
G36*
X187014600Y-76728200D02*
X184112600Y-76728200D01*
X184112600Y-73826200D01*
X187014600Y-73826200D01*
X187014600Y-76728200D01*
X187014600Y-76728200D01*
G37*
G36*
X196114600Y-76728200D02*
X193812600Y-76728200D01*
X193812600Y-73826200D01*
X196114600Y-73826200D01*
X196114600Y-76728200D01*
X196114600Y-76728200D01*
G37*
G36*
X131078200Y-76145800D02*
X130326200Y-76145800D01*
X130326200Y-74323800D01*
X131078200Y-74323800D01*
X131078200Y-76145800D01*
X131078200Y-76145800D01*
G37*
G36*
X127128200Y-75559929D02*
X127130602Y-75584315D01*
X127137715Y-75607764D01*
X127138803Y-75609800D01*
X127137715Y-75611836D01*
X127130602Y-75635285D01*
X127128200Y-75659671D01*
X127128200Y-76145800D01*
X126376200Y-76145800D01*
X126376200Y-74323800D01*
X127128200Y-74323800D01*
X127128200Y-75559929D01*
X127128200Y-75559929D01*
G37*
G36*
X120561962Y-74461181D02*
X120596877Y-74471773D01*
X120629065Y-74488978D01*
X120657273Y-74512127D01*
X120680422Y-74540335D01*
X120697627Y-74572523D01*
X120708219Y-74607438D01*
X120712400Y-74649895D01*
X120712400Y-75791105D01*
X120708219Y-75833562D01*
X120697627Y-75868477D01*
X120680422Y-75900665D01*
X120657273Y-75928873D01*
X120629065Y-75952022D01*
X120596877Y-75969227D01*
X120561962Y-75979819D01*
X120519505Y-75984000D01*
X119053295Y-75984000D01*
X119010838Y-75979819D01*
X118975923Y-75969227D01*
X118943735Y-75952022D01*
X118915527Y-75928873D01*
X118892378Y-75900665D01*
X118875173Y-75868477D01*
X118864581Y-75833562D01*
X118860400Y-75791105D01*
X118860400Y-74649895D01*
X118864581Y-74607438D01*
X118875173Y-74572523D01*
X118892378Y-74540335D01*
X118915527Y-74512127D01*
X118943735Y-74488978D01*
X118975923Y-74471773D01*
X119010838Y-74461181D01*
X119053295Y-74457000D01*
X120519505Y-74457000D01*
X120561962Y-74461181D01*
X120561962Y-74461181D01*
G37*
G36*
X129638200Y-73635800D02*
X129508200Y-73635800D01*
X129483814Y-73638202D01*
X129460365Y-73645315D01*
X129438754Y-73656866D01*
X129419812Y-73672412D01*
X129404266Y-73691354D01*
X129392715Y-73712965D01*
X129385602Y-73736414D01*
X129383200Y-73760800D01*
X129383200Y-75860800D01*
X127725071Y-75860800D01*
X127700685Y-75863202D01*
X127677236Y-75870315D01*
X127655625Y-75881866D01*
X127652200Y-75884677D01*
X127648775Y-75881866D01*
X127627164Y-75870315D01*
X127603715Y-75863202D01*
X127599239Y-75862761D01*
X127598798Y-75858285D01*
X127591685Y-75834836D01*
X127580134Y-75813225D01*
X127564588Y-75794283D01*
X127467717Y-75697412D01*
X127448775Y-75681866D01*
X127427164Y-75670315D01*
X127403715Y-75663202D01*
X127399239Y-75662761D01*
X127398798Y-75658285D01*
X127391685Y-75634836D01*
X127380134Y-75613225D01*
X127377323Y-75609800D01*
X127380134Y-75606375D01*
X127391685Y-75584764D01*
X127398798Y-75561315D01*
X127401200Y-75536929D01*
X127401200Y-73878800D01*
X127691200Y-73878800D01*
X127715586Y-73876398D01*
X127739035Y-73869285D01*
X127760646Y-73857734D01*
X127779588Y-73842188D01*
X127795134Y-73823246D01*
X127806685Y-73801635D01*
X127813798Y-73778186D01*
X127816200Y-73753800D01*
X127816200Y-72883800D01*
X129638200Y-72883800D01*
X129638200Y-73635800D01*
X129638200Y-73635800D01*
G37*
G36*
X116751962Y-73422981D02*
X116786877Y-73433573D01*
X116819065Y-73450778D01*
X116847273Y-73473927D01*
X116870422Y-73502135D01*
X116887627Y-73534323D01*
X116898219Y-73569238D01*
X116902400Y-73611695D01*
X116902400Y-74752905D01*
X116898219Y-74795362D01*
X116887627Y-74830277D01*
X116870422Y-74862465D01*
X116847273Y-74890673D01*
X116819065Y-74913822D01*
X116786877Y-74931027D01*
X116751962Y-74941619D01*
X116709505Y-74945800D01*
X115243295Y-74945800D01*
X115200838Y-74941619D01*
X115165923Y-74931027D01*
X115133735Y-74913822D01*
X115105527Y-74890673D01*
X115082378Y-74862465D01*
X115065173Y-74830277D01*
X115054581Y-74795362D01*
X115050400Y-74752905D01*
X115050400Y-73611695D01*
X115054581Y-73569238D01*
X115065173Y-73534323D01*
X115082378Y-73502135D01*
X115105527Y-73473927D01*
X115133735Y-73450778D01*
X115165923Y-73433573D01*
X115200838Y-73422981D01*
X115243295Y-73418800D01*
X116709505Y-73418800D01*
X116751962Y-73422981D01*
X116751962Y-73422981D01*
G37*
G36*
X194126412Y-70710824D02*
X194290384Y-70778744D01*
X194437954Y-70877347D01*
X194563453Y-71002846D01*
X194662056Y-71150416D01*
X194729976Y-71314388D01*
X194764600Y-71488459D01*
X194764600Y-71665941D01*
X194729976Y-71840012D01*
X194662056Y-72003984D01*
X194563453Y-72151554D01*
X194437954Y-72277053D01*
X194290384Y-72375656D01*
X194126412Y-72443576D01*
X193952341Y-72478200D01*
X193774859Y-72478200D01*
X193600788Y-72443576D01*
X193436816Y-72375656D01*
X193289246Y-72277053D01*
X193163747Y-72151554D01*
X193065144Y-72003984D01*
X192997224Y-71840012D01*
X192962600Y-71665941D01*
X192962600Y-71488459D01*
X192997224Y-71314388D01*
X193065144Y-71150416D01*
X193163747Y-71002846D01*
X193289246Y-70877347D01*
X193436816Y-70778744D01*
X193600788Y-70710824D01*
X193774859Y-70676200D01*
X193952341Y-70676200D01*
X194126412Y-70710824D01*
X194126412Y-70710824D01*
G37*
G36*
X187126412Y-70710824D02*
X187290384Y-70778744D01*
X187437954Y-70877347D01*
X187563453Y-71002846D01*
X187662056Y-71150416D01*
X187729976Y-71314388D01*
X187764600Y-71488459D01*
X187764600Y-71665941D01*
X187729976Y-71840012D01*
X187662056Y-72003984D01*
X187563453Y-72151554D01*
X187437954Y-72277053D01*
X187290384Y-72375656D01*
X187126412Y-72443576D01*
X186952341Y-72478200D01*
X186774859Y-72478200D01*
X186600788Y-72443576D01*
X186436816Y-72375656D01*
X186289246Y-72277053D01*
X186163747Y-72151554D01*
X186065144Y-72003984D01*
X185997224Y-71840012D01*
X185962600Y-71665941D01*
X185962600Y-71488459D01*
X185997224Y-71314388D01*
X186065144Y-71150416D01*
X186163747Y-71002846D01*
X186289246Y-70877347D01*
X186436816Y-70778744D01*
X186600788Y-70710824D01*
X186774859Y-70676200D01*
X186952341Y-70676200D01*
X187126412Y-70710824D01*
X187126412Y-70710824D01*
G37*
G36*
X116751962Y-70447981D02*
X116786877Y-70458573D01*
X116819065Y-70475778D01*
X116847273Y-70498927D01*
X116870422Y-70527135D01*
X116887627Y-70559323D01*
X116898219Y-70594238D01*
X116902400Y-70636695D01*
X116902400Y-71777905D01*
X116898219Y-71820362D01*
X116887627Y-71855277D01*
X116870422Y-71887465D01*
X116847273Y-71915673D01*
X116819065Y-71938822D01*
X116786877Y-71956027D01*
X116751962Y-71966619D01*
X116709505Y-71970800D01*
X115243295Y-71970800D01*
X115200838Y-71966619D01*
X115165923Y-71956027D01*
X115133735Y-71938822D01*
X115105527Y-71915673D01*
X115082378Y-71887465D01*
X115065173Y-71855277D01*
X115054581Y-71820362D01*
X115050400Y-71777905D01*
X115050400Y-70636695D01*
X115054581Y-70594238D01*
X115065173Y-70559323D01*
X115082378Y-70527135D01*
X115105527Y-70498927D01*
X115133735Y-70475778D01*
X115165923Y-70458573D01*
X115200838Y-70447981D01*
X115243295Y-70443800D01*
X116709505Y-70443800D01*
X116751962Y-70447981D01*
X116751962Y-70447981D01*
G37*
G36*
X134395877Y-70549265D02*
X134433564Y-70560698D01*
X134468303Y-70579266D01*
X134498748Y-70604252D01*
X134523734Y-70634697D01*
X134542302Y-70669436D01*
X134553735Y-70707123D01*
X134558200Y-70752461D01*
X134558200Y-71589139D01*
X134553735Y-71634477D01*
X134542302Y-71672164D01*
X134523734Y-71706903D01*
X134498748Y-71737348D01*
X134468303Y-71762334D01*
X134433564Y-71780902D01*
X134395877Y-71792335D01*
X134350539Y-71796800D01*
X133263861Y-71796800D01*
X133218523Y-71792335D01*
X133180836Y-71780902D01*
X133146097Y-71762334D01*
X133115652Y-71737348D01*
X133090666Y-71706903D01*
X133072098Y-71672164D01*
X133060665Y-71634477D01*
X133056200Y-71589139D01*
X133056200Y-70752461D01*
X133060665Y-70707123D01*
X133072098Y-70669436D01*
X133090666Y-70634697D01*
X133115652Y-70604252D01*
X133146097Y-70579266D01*
X133180836Y-70560698D01*
X133218523Y-70549265D01*
X133263861Y-70544800D01*
X134350539Y-70544800D01*
X134395877Y-70549265D01*
X134395877Y-70549265D01*
G37*
G36*
X129061877Y-69330065D02*
X129099564Y-69341498D01*
X129134303Y-69360066D01*
X129164748Y-69385052D01*
X129189734Y-69415497D01*
X129208302Y-69450236D01*
X129219735Y-69487923D01*
X129224200Y-69533261D01*
X129224200Y-70369939D01*
X129219735Y-70415277D01*
X129208302Y-70452964D01*
X129189734Y-70487703D01*
X129164748Y-70518148D01*
X129134303Y-70543134D01*
X129099564Y-70561702D01*
X129061877Y-70573135D01*
X129016539Y-70577600D01*
X127929861Y-70577600D01*
X127884523Y-70573135D01*
X127846836Y-70561702D01*
X127812097Y-70543134D01*
X127781652Y-70518148D01*
X127756666Y-70487703D01*
X127738098Y-70452964D01*
X127726665Y-70415277D01*
X127722200Y-70369939D01*
X127722200Y-69533261D01*
X127726665Y-69487923D01*
X127738098Y-69450236D01*
X127756666Y-69415497D01*
X127781652Y-69385052D01*
X127812097Y-69360066D01*
X127846836Y-69341498D01*
X127884523Y-69330065D01*
X127929861Y-69325600D01*
X129016539Y-69325600D01*
X129061877Y-69330065D01*
X129061877Y-69330065D01*
G37*
G36*
X122586877Y-68951065D02*
X122624564Y-68962498D01*
X122659303Y-68981066D01*
X122689748Y-69006052D01*
X122714734Y-69036497D01*
X122733302Y-69071236D01*
X122744735Y-69108923D01*
X122749200Y-69154261D01*
X122749200Y-70240939D01*
X122744735Y-70286277D01*
X122733302Y-70323964D01*
X122714734Y-70358703D01*
X122689748Y-70389148D01*
X122659303Y-70414134D01*
X122624564Y-70432702D01*
X122586877Y-70444135D01*
X122541539Y-70448600D01*
X121704861Y-70448600D01*
X121659523Y-70444135D01*
X121621836Y-70432702D01*
X121587097Y-70414134D01*
X121556652Y-70389148D01*
X121531666Y-70358703D01*
X121513098Y-70323964D01*
X121501665Y-70286277D01*
X121497200Y-70240939D01*
X121497200Y-69154261D01*
X121501665Y-69108923D01*
X121513098Y-69071236D01*
X121531666Y-69036497D01*
X121556652Y-69006052D01*
X121587097Y-68981066D01*
X121621836Y-68962498D01*
X121659523Y-68951065D01*
X121704861Y-68946600D01*
X122541539Y-68946600D01*
X122586877Y-68951065D01*
X122586877Y-68951065D01*
G37*
G36*
X120536877Y-68951065D02*
X120574564Y-68962498D01*
X120609303Y-68981066D01*
X120639748Y-69006052D01*
X120664734Y-69036497D01*
X120683302Y-69071236D01*
X120694735Y-69108923D01*
X120699200Y-69154261D01*
X120699200Y-70240939D01*
X120694735Y-70286277D01*
X120683302Y-70323964D01*
X120664734Y-70358703D01*
X120639748Y-70389148D01*
X120609303Y-70414134D01*
X120574564Y-70432702D01*
X120536877Y-70444135D01*
X120491539Y-70448600D01*
X119654861Y-70448600D01*
X119609523Y-70444135D01*
X119571836Y-70432702D01*
X119537097Y-70414134D01*
X119506652Y-70389148D01*
X119481666Y-70358703D01*
X119463098Y-70323964D01*
X119451665Y-70286277D01*
X119447200Y-70240939D01*
X119447200Y-69154261D01*
X119451665Y-69108923D01*
X119463098Y-69071236D01*
X119481666Y-69036497D01*
X119506652Y-69006052D01*
X119537097Y-68981066D01*
X119571836Y-68962498D01*
X119609523Y-68951065D01*
X119654861Y-68946600D01*
X120491539Y-68946600D01*
X120536877Y-68951065D01*
X120536877Y-68951065D01*
G37*
G36*
X134395877Y-68499265D02*
X134433564Y-68510698D01*
X134468303Y-68529266D01*
X134498748Y-68554252D01*
X134523734Y-68584697D01*
X134542302Y-68619436D01*
X134553735Y-68657123D01*
X134558200Y-68702461D01*
X134558200Y-69539139D01*
X134553735Y-69584477D01*
X134542302Y-69622164D01*
X134523734Y-69656903D01*
X134498748Y-69687348D01*
X134468303Y-69712334D01*
X134433564Y-69730902D01*
X134395877Y-69742335D01*
X134350539Y-69746800D01*
X133263861Y-69746800D01*
X133218523Y-69742335D01*
X133180836Y-69730902D01*
X133146097Y-69712334D01*
X133115652Y-69687348D01*
X133090666Y-69656903D01*
X133072098Y-69622164D01*
X133060665Y-69584477D01*
X133056200Y-69539139D01*
X133056200Y-68702461D01*
X133060665Y-68657123D01*
X133072098Y-68619436D01*
X133090666Y-68584697D01*
X133115652Y-68554252D01*
X133146097Y-68529266D01*
X133180836Y-68510698D01*
X133218523Y-68499265D01*
X133263861Y-68494800D01*
X134350539Y-68494800D01*
X134395877Y-68499265D01*
X134395877Y-68499265D01*
G37*
G36*
X114255677Y-68138265D02*
X114293364Y-68149698D01*
X114328103Y-68168266D01*
X114358548Y-68193252D01*
X114383534Y-68223697D01*
X114402102Y-68258436D01*
X114413535Y-68296123D01*
X114418000Y-68341461D01*
X114418000Y-69428139D01*
X114413535Y-69473477D01*
X114402102Y-69511164D01*
X114383534Y-69545903D01*
X114358548Y-69576348D01*
X114328103Y-69601334D01*
X114293364Y-69619902D01*
X114255677Y-69631335D01*
X114210339Y-69635800D01*
X113373661Y-69635800D01*
X113328323Y-69631335D01*
X113290636Y-69619902D01*
X113255897Y-69601334D01*
X113225452Y-69576348D01*
X113200466Y-69545903D01*
X113181898Y-69511164D01*
X113170465Y-69473477D01*
X113166000Y-69428139D01*
X113166000Y-68341461D01*
X113170465Y-68296123D01*
X113181898Y-68258436D01*
X113200466Y-68223697D01*
X113225452Y-68193252D01*
X113255897Y-68168266D01*
X113290636Y-68149698D01*
X113328323Y-68138265D01*
X113373661Y-68133800D01*
X114210339Y-68133800D01*
X114255677Y-68138265D01*
X114255677Y-68138265D01*
G37*
G36*
X112205677Y-68138265D02*
X112243364Y-68149698D01*
X112278103Y-68168266D01*
X112308548Y-68193252D01*
X112333534Y-68223697D01*
X112352102Y-68258436D01*
X112363535Y-68296123D01*
X112368000Y-68341461D01*
X112368000Y-69428139D01*
X112363535Y-69473477D01*
X112352102Y-69511164D01*
X112333534Y-69545903D01*
X112308548Y-69576348D01*
X112278103Y-69601334D01*
X112243364Y-69619902D01*
X112205677Y-69631335D01*
X112160339Y-69635800D01*
X111323661Y-69635800D01*
X111278323Y-69631335D01*
X111240636Y-69619902D01*
X111205897Y-69601334D01*
X111175452Y-69576348D01*
X111150466Y-69545903D01*
X111131898Y-69511164D01*
X111120465Y-69473477D01*
X111116000Y-69428139D01*
X111116000Y-68341461D01*
X111120465Y-68296123D01*
X111131898Y-68258436D01*
X111150466Y-68223697D01*
X111175452Y-68193252D01*
X111205897Y-68168266D01*
X111240636Y-68149698D01*
X111278323Y-68138265D01*
X111323661Y-68133800D01*
X112160339Y-68133800D01*
X112205677Y-68138265D01*
X112205677Y-68138265D01*
G37*
G36*
X107542965Y-67446589D02*
X107734234Y-67525815D01*
X107906376Y-67640837D01*
X108052763Y-67787224D01*
X108167785Y-67959366D01*
X108247011Y-68150635D01*
X108287400Y-68353684D01*
X108287400Y-68560716D01*
X108247011Y-68763765D01*
X108167785Y-68955034D01*
X108052763Y-69127176D01*
X107906376Y-69273563D01*
X107734234Y-69388585D01*
X107542965Y-69467811D01*
X107339916Y-69508200D01*
X107132884Y-69508200D01*
X106929835Y-69467811D01*
X106738566Y-69388585D01*
X106566424Y-69273563D01*
X106420037Y-69127176D01*
X106305015Y-68955034D01*
X106225789Y-68763765D01*
X106185400Y-68560716D01*
X106185400Y-68353684D01*
X106225789Y-68150635D01*
X106305015Y-67959366D01*
X106420037Y-67787224D01*
X106566424Y-67640837D01*
X106738566Y-67525815D01*
X106929835Y-67446589D01*
X107132884Y-67406200D01*
X107339916Y-67406200D01*
X107542965Y-67446589D01*
X107542965Y-67446589D01*
G37*
G36*
X101042965Y-67446589D02*
X101234234Y-67525815D01*
X101406376Y-67640837D01*
X101552763Y-67787224D01*
X101667785Y-67959366D01*
X101747011Y-68150635D01*
X101787400Y-68353684D01*
X101787400Y-68560716D01*
X101747011Y-68763765D01*
X101667785Y-68955034D01*
X101552763Y-69127176D01*
X101406376Y-69273563D01*
X101234234Y-69388585D01*
X101042965Y-69467811D01*
X100839916Y-69508200D01*
X100632884Y-69508200D01*
X100429835Y-69467811D01*
X100238566Y-69388585D01*
X100066424Y-69273563D01*
X99920037Y-69127176D01*
X99805015Y-68955034D01*
X99725789Y-68763765D01*
X99685400Y-68560716D01*
X99685400Y-68353684D01*
X99725789Y-68150635D01*
X99805015Y-67959366D01*
X99920037Y-67787224D01*
X100066424Y-67640837D01*
X100238566Y-67525815D01*
X100429835Y-67446589D01*
X100632884Y-67406200D01*
X100839916Y-67406200D01*
X101042965Y-67446589D01*
X101042965Y-67446589D01*
G37*
G36*
X194114600Y-69328200D02*
X191812600Y-69328200D01*
X191812600Y-66426200D01*
X194114600Y-66426200D01*
X194114600Y-69328200D01*
X194114600Y-69328200D01*
G37*
G36*
X129061877Y-67280065D02*
X129099564Y-67291498D01*
X129134303Y-67310066D01*
X129164748Y-67335052D01*
X129189734Y-67365497D01*
X129208302Y-67400236D01*
X129219735Y-67437923D01*
X129224200Y-67483261D01*
X129224200Y-68319939D01*
X129219735Y-68365277D01*
X129208302Y-68402964D01*
X129189734Y-68437703D01*
X129164748Y-68468148D01*
X129134303Y-68493134D01*
X129099564Y-68511702D01*
X129061877Y-68523135D01*
X129016539Y-68527600D01*
X127929861Y-68527600D01*
X127884523Y-68523135D01*
X127846836Y-68511702D01*
X127812097Y-68493134D01*
X127781652Y-68468148D01*
X127756666Y-68437703D01*
X127738098Y-68402964D01*
X127726665Y-68365277D01*
X127722200Y-68319939D01*
X127722200Y-67483261D01*
X127726665Y-67437923D01*
X127738098Y-67400236D01*
X127756666Y-67365497D01*
X127781652Y-67335052D01*
X127812097Y-67310066D01*
X127846836Y-67291498D01*
X127884523Y-67280065D01*
X127929861Y-67275600D01*
X129016539Y-67275600D01*
X129061877Y-67280065D01*
X129061877Y-67280065D01*
G37*
G36*
X105467277Y-65344265D02*
X105504964Y-65355698D01*
X105539703Y-65374266D01*
X105570148Y-65399252D01*
X105595134Y-65429697D01*
X105613702Y-65464436D01*
X105625135Y-65502123D01*
X105629600Y-65547461D01*
X105629600Y-66634139D01*
X105625135Y-66679477D01*
X105613702Y-66717164D01*
X105595134Y-66751903D01*
X105570148Y-66782348D01*
X105539703Y-66807334D01*
X105504964Y-66825902D01*
X105467277Y-66837335D01*
X105421939Y-66841800D01*
X104585261Y-66841800D01*
X104539923Y-66837335D01*
X104502236Y-66825902D01*
X104467497Y-66807334D01*
X104437052Y-66782348D01*
X104412066Y-66751903D01*
X104393498Y-66717164D01*
X104382065Y-66679477D01*
X104377600Y-66634139D01*
X104377600Y-65547461D01*
X104382065Y-65502123D01*
X104393498Y-65464436D01*
X104412066Y-65429697D01*
X104437052Y-65399252D01*
X104467497Y-65374266D01*
X104502236Y-65355698D01*
X104539923Y-65344265D01*
X104585261Y-65339800D01*
X105421939Y-65339800D01*
X105467277Y-65344265D01*
X105467277Y-65344265D01*
G37*
G36*
X103417277Y-65344265D02*
X103454964Y-65355698D01*
X103489703Y-65374266D01*
X103520148Y-65399252D01*
X103545134Y-65429697D01*
X103563702Y-65464436D01*
X103575135Y-65502123D01*
X103579600Y-65547461D01*
X103579600Y-66634139D01*
X103575135Y-66679477D01*
X103563702Y-66717164D01*
X103545134Y-66751903D01*
X103520148Y-66782348D01*
X103489703Y-66807334D01*
X103454964Y-66825902D01*
X103417277Y-66837335D01*
X103371939Y-66841800D01*
X102535261Y-66841800D01*
X102489923Y-66837335D01*
X102452236Y-66825902D01*
X102417497Y-66807334D01*
X102387052Y-66782348D01*
X102362066Y-66751903D01*
X102343498Y-66717164D01*
X102332065Y-66679477D01*
X102327600Y-66634139D01*
X102327600Y-65547461D01*
X102332065Y-65502123D01*
X102343498Y-65464436D01*
X102362066Y-65429697D01*
X102387052Y-65399252D01*
X102417497Y-65374266D01*
X102452236Y-65355698D01*
X102489923Y-65344265D01*
X102535261Y-65339800D01*
X103371939Y-65339800D01*
X103417277Y-65344265D01*
X103417277Y-65344265D01*
G37*
G36*
X120766600Y-66159000D02*
X119464600Y-66159000D01*
X119464600Y-65157000D01*
X120766600Y-65157000D01*
X120766600Y-66159000D01*
X120766600Y-66159000D01*
G37*
G36*
X131003800Y-66057400D02*
X129701800Y-66057400D01*
X129701800Y-65055400D01*
X131003800Y-65055400D01*
X131003800Y-66057400D01*
X131003800Y-66057400D01*
G37*
G36*
X101042965Y-62946589D02*
X101234234Y-63025815D01*
X101406376Y-63140837D01*
X101552763Y-63287224D01*
X101667785Y-63459366D01*
X101747011Y-63650635D01*
X101787400Y-63853684D01*
X101787400Y-64060716D01*
X101747011Y-64263765D01*
X101667785Y-64455034D01*
X101552763Y-64627176D01*
X101406376Y-64773563D01*
X101234234Y-64888585D01*
X101042965Y-64967811D01*
X100839916Y-65008200D01*
X100632884Y-65008200D01*
X100429835Y-64967811D01*
X100238566Y-64888585D01*
X100066424Y-64773563D01*
X99920037Y-64627176D01*
X99805015Y-64455034D01*
X99725789Y-64263765D01*
X99685400Y-64060716D01*
X99685400Y-63853684D01*
X99725789Y-63650635D01*
X99805015Y-63459366D01*
X99920037Y-63287224D01*
X100066424Y-63140837D01*
X100238566Y-63025815D01*
X100429835Y-62946589D01*
X100632884Y-62906200D01*
X100839916Y-62906200D01*
X101042965Y-62946589D01*
X101042965Y-62946589D01*
G37*
G36*
X107542965Y-62946589D02*
X107734234Y-63025815D01*
X107906376Y-63140837D01*
X108052763Y-63287224D01*
X108167785Y-63459366D01*
X108247011Y-63650635D01*
X108287400Y-63853684D01*
X108287400Y-64060716D01*
X108247011Y-64263765D01*
X108167785Y-64455034D01*
X108052763Y-64627176D01*
X107906376Y-64773563D01*
X107734234Y-64888585D01*
X107542965Y-64967811D01*
X107339916Y-65008200D01*
X107132884Y-65008200D01*
X106929835Y-64967811D01*
X106738566Y-64888585D01*
X106566424Y-64773563D01*
X106420037Y-64627176D01*
X106305015Y-64455034D01*
X106225789Y-64263765D01*
X106185400Y-64060716D01*
X106185400Y-63853684D01*
X106225789Y-63650635D01*
X106305015Y-63459366D01*
X106420037Y-63287224D01*
X106566424Y-63140837D01*
X106738566Y-63025815D01*
X106929835Y-62946589D01*
X107132884Y-62906200D01*
X107339916Y-62906200D01*
X107542965Y-62946589D01*
X107542965Y-62946589D01*
G37*
G36*
X116356477Y-63464665D02*
X116394164Y-63476098D01*
X116428903Y-63494666D01*
X116459348Y-63519652D01*
X116484334Y-63550097D01*
X116502902Y-63584836D01*
X116514335Y-63622523D01*
X116518800Y-63667861D01*
X116518800Y-64754539D01*
X116514335Y-64799877D01*
X116502902Y-64837564D01*
X116484334Y-64872303D01*
X116459348Y-64902748D01*
X116428903Y-64927734D01*
X116394164Y-64946302D01*
X116356477Y-64957735D01*
X116311139Y-64962200D01*
X115474461Y-64962200D01*
X115429123Y-64957735D01*
X115391436Y-64946302D01*
X115356697Y-64927734D01*
X115326252Y-64902748D01*
X115301266Y-64872303D01*
X115282698Y-64837564D01*
X115271265Y-64799877D01*
X115266800Y-64754539D01*
X115266800Y-63667861D01*
X115271265Y-63622523D01*
X115282698Y-63584836D01*
X115301266Y-63550097D01*
X115326252Y-63519652D01*
X115356697Y-63494666D01*
X115391436Y-63476098D01*
X115429123Y-63464665D01*
X115474461Y-63460200D01*
X116311139Y-63460200D01*
X116356477Y-63464665D01*
X116356477Y-63464665D01*
G37*
G36*
X114306477Y-63464665D02*
X114344164Y-63476098D01*
X114378903Y-63494666D01*
X114409348Y-63519652D01*
X114434334Y-63550097D01*
X114452902Y-63584836D01*
X114464335Y-63622523D01*
X114468800Y-63667861D01*
X114468800Y-64754539D01*
X114464335Y-64799877D01*
X114452902Y-64837564D01*
X114434334Y-64872303D01*
X114409348Y-64902748D01*
X114378903Y-64927734D01*
X114344164Y-64946302D01*
X114306477Y-64957735D01*
X114261139Y-64962200D01*
X113424461Y-64962200D01*
X113379123Y-64957735D01*
X113341436Y-64946302D01*
X113306697Y-64927734D01*
X113276252Y-64902748D01*
X113251266Y-64872303D01*
X113232698Y-64837564D01*
X113221265Y-64799877D01*
X113216800Y-64754539D01*
X113216800Y-63667861D01*
X113221265Y-63622523D01*
X113232698Y-63584836D01*
X113251266Y-63550097D01*
X113276252Y-63519652D01*
X113306697Y-63494666D01*
X113341436Y-63476098D01*
X113379123Y-63464665D01*
X113424461Y-63460200D01*
X114261139Y-63460200D01*
X114306477Y-63464665D01*
X114306477Y-63464665D01*
G37*
G36*
X120766600Y-62859000D02*
X119464600Y-62859000D01*
X119464600Y-61857000D01*
X120766600Y-61857000D01*
X120766600Y-62859000D01*
X120766600Y-62859000D01*
G37*
G36*
X131003800Y-62757400D02*
X129701800Y-62757400D01*
X129701800Y-61755400D01*
X131003800Y-61755400D01*
X131003800Y-62757400D01*
X131003800Y-62757400D01*
G37*
G36*
X195510261Y-58530821D02*
X195655179Y-58559647D01*
X195955642Y-58684103D01*
X196046803Y-58745015D01*
X196226054Y-58864787D01*
X196456013Y-59094746D01*
X196456015Y-59094749D01*
X196636697Y-59365158D01*
X196761153Y-59665621D01*
X196765006Y-59684991D01*
X196805425Y-59888189D01*
X196824600Y-59984591D01*
X196824600Y-60309809D01*
X196773638Y-60566015D01*
X196761153Y-60628778D01*
X196636698Y-60929240D01*
X196456013Y-61199654D01*
X196226054Y-61429613D01*
X196226051Y-61429615D01*
X195955642Y-61610297D01*
X195655179Y-61734753D01*
X195551379Y-61755400D01*
X195336211Y-61798200D01*
X195010989Y-61798200D01*
X194795821Y-61755400D01*
X194692021Y-61734753D01*
X194391558Y-61610297D01*
X194121149Y-61429615D01*
X194121146Y-61429613D01*
X193891187Y-61199654D01*
X193710502Y-60929240D01*
X193586047Y-60628778D01*
X193573563Y-60566015D01*
X193522600Y-60309809D01*
X193522600Y-59984591D01*
X193541776Y-59888189D01*
X193582194Y-59684991D01*
X193586047Y-59665621D01*
X193710503Y-59365158D01*
X193891185Y-59094749D01*
X193891187Y-59094746D01*
X194121146Y-58864787D01*
X194300397Y-58745015D01*
X194391558Y-58684103D01*
X194692021Y-58559647D01*
X194836939Y-58530821D01*
X195010989Y-58496200D01*
X195336211Y-58496200D01*
X195510261Y-58530821D01*
X195510261Y-58530821D01*
G37*
G36*
X101518056Y-57674898D02*
X101624379Y-57696047D01*
X101924842Y-57820503D01*
X102191652Y-57998780D01*
X102195254Y-58001187D01*
X102425213Y-58231146D01*
X102425215Y-58231149D01*
X102603010Y-58497237D01*
X102605898Y-58501560D01*
X102629958Y-58559647D01*
X102730353Y-58802021D01*
X102793800Y-59120991D01*
X102793800Y-59446209D01*
X102730353Y-59765179D01*
X102679400Y-59888191D01*
X102625448Y-60018443D01*
X102605897Y-60065642D01*
X102458524Y-60286200D01*
X102425213Y-60336054D01*
X102195254Y-60566013D01*
X102195251Y-60566015D01*
X101924842Y-60746697D01*
X101624379Y-60871153D01*
X101518056Y-60892302D01*
X101305411Y-60934600D01*
X100980189Y-60934600D01*
X100767544Y-60892302D01*
X100661221Y-60871153D01*
X100360758Y-60746697D01*
X100090349Y-60566015D01*
X100090346Y-60566013D01*
X99860387Y-60336054D01*
X99827076Y-60286200D01*
X99679703Y-60065642D01*
X99660153Y-60018443D01*
X99606200Y-59888191D01*
X99555247Y-59765179D01*
X99491800Y-59446209D01*
X99491800Y-59120991D01*
X99555247Y-58802021D01*
X99655642Y-58559647D01*
X99679702Y-58501560D01*
X99682591Y-58497237D01*
X99860385Y-58231149D01*
X99860387Y-58231146D01*
X100090346Y-58001187D01*
X100093948Y-57998780D01*
X100360758Y-57820503D01*
X100661221Y-57696047D01*
X100767544Y-57674898D01*
X100980189Y-57632600D01*
X101305411Y-57632600D01*
X101518056Y-57674898D01*
X101518056Y-57674898D01*
G37*
G36*
X133003242Y-58490718D02*
X133069427Y-58497237D01*
X133180139Y-58530821D01*
X133239267Y-58548757D01*
X133259640Y-58559647D01*
X133395791Y-58632422D01*
X133431529Y-58661752D01*
X133532986Y-58745014D01*
X133607272Y-58835533D01*
X133645578Y-58882209D01*
X133645579Y-58882211D01*
X133729243Y-59038733D01*
X133729243Y-59038734D01*
X133780763Y-59208573D01*
X133798159Y-59385200D01*
X133780763Y-59561827D01*
X133749277Y-59665621D01*
X133729243Y-59731667D01*
X133711330Y-59765179D01*
X133645578Y-59888191D01*
X133616367Y-59923785D01*
X133532986Y-60025386D01*
X133431529Y-60108648D01*
X133395791Y-60137978D01*
X133395789Y-60137979D01*
X133239267Y-60221643D01*
X133182653Y-60238816D01*
X133069427Y-60273163D01*
X133003242Y-60279682D01*
X132937060Y-60286200D01*
X132848540Y-60286200D01*
X132782358Y-60279682D01*
X132716173Y-60273163D01*
X132602947Y-60238816D01*
X132546333Y-60221643D01*
X132389811Y-60137979D01*
X132389809Y-60137978D01*
X132354071Y-60108648D01*
X132252614Y-60025386D01*
X132169233Y-59923785D01*
X132140022Y-59888191D01*
X132074270Y-59765179D01*
X132056357Y-59731667D01*
X132036323Y-59665621D01*
X132004837Y-59561827D01*
X131987441Y-59385200D01*
X132004837Y-59208573D01*
X132056357Y-59038734D01*
X132056357Y-59038733D01*
X132140021Y-58882211D01*
X132140022Y-58882209D01*
X132178328Y-58835533D01*
X132252614Y-58745014D01*
X132354071Y-58661752D01*
X132389809Y-58632422D01*
X132525960Y-58559647D01*
X132546333Y-58548757D01*
X132605461Y-58530821D01*
X132716173Y-58497237D01*
X132782358Y-58490718D01*
X132848540Y-58484200D01*
X132937060Y-58484200D01*
X133003242Y-58490718D01*
X133003242Y-58490718D01*
G37*
G36*
X105063242Y-58490718D02*
X105129427Y-58497237D01*
X105240139Y-58530821D01*
X105299267Y-58548757D01*
X105319640Y-58559647D01*
X105455791Y-58632422D01*
X105491529Y-58661752D01*
X105592986Y-58745014D01*
X105667272Y-58835533D01*
X105705578Y-58882209D01*
X105705579Y-58882211D01*
X105789243Y-59038733D01*
X105789243Y-59038734D01*
X105840763Y-59208573D01*
X105858159Y-59385200D01*
X105840763Y-59561827D01*
X105809277Y-59665621D01*
X105789243Y-59731667D01*
X105771330Y-59765179D01*
X105705578Y-59888191D01*
X105676367Y-59923785D01*
X105592986Y-60025386D01*
X105491529Y-60108648D01*
X105455791Y-60137978D01*
X105455789Y-60137979D01*
X105299267Y-60221643D01*
X105242653Y-60238816D01*
X105129427Y-60273163D01*
X105063242Y-60279682D01*
X104997060Y-60286200D01*
X104908540Y-60286200D01*
X104842358Y-60279682D01*
X104776173Y-60273163D01*
X104662947Y-60238816D01*
X104606333Y-60221643D01*
X104449811Y-60137979D01*
X104449809Y-60137978D01*
X104414071Y-60108648D01*
X104312614Y-60025386D01*
X104229233Y-59923785D01*
X104200022Y-59888191D01*
X104134270Y-59765179D01*
X104116357Y-59731667D01*
X104096323Y-59665621D01*
X104064837Y-59561827D01*
X104047441Y-59385200D01*
X104064837Y-59208573D01*
X104116357Y-59038734D01*
X104116357Y-59038733D01*
X104200021Y-58882211D01*
X104200022Y-58882209D01*
X104238328Y-58835533D01*
X104312614Y-58745014D01*
X104414071Y-58661752D01*
X104449809Y-58632422D01*
X104585960Y-58559647D01*
X104606333Y-58548757D01*
X104665461Y-58530821D01*
X104776173Y-58497237D01*
X104842358Y-58490718D01*
X104908540Y-58484200D01*
X104997060Y-58484200D01*
X105063242Y-58490718D01*
X105063242Y-58490718D01*
G37*
G36*
X107603242Y-58490718D02*
X107669427Y-58497237D01*
X107780139Y-58530821D01*
X107839267Y-58548757D01*
X107859640Y-58559647D01*
X107995791Y-58632422D01*
X108031529Y-58661752D01*
X108132986Y-58745014D01*
X108207272Y-58835533D01*
X108245578Y-58882209D01*
X108245579Y-58882211D01*
X108329243Y-59038733D01*
X108329243Y-59038734D01*
X108380763Y-59208573D01*
X108398159Y-59385200D01*
X108380763Y-59561827D01*
X108349277Y-59665621D01*
X108329243Y-59731667D01*
X108311330Y-59765179D01*
X108245578Y-59888191D01*
X108216367Y-59923785D01*
X108132986Y-60025386D01*
X108031529Y-60108648D01*
X107995791Y-60137978D01*
X107995789Y-60137979D01*
X107839267Y-60221643D01*
X107782653Y-60238816D01*
X107669427Y-60273163D01*
X107603242Y-60279682D01*
X107537060Y-60286200D01*
X107448540Y-60286200D01*
X107382358Y-60279682D01*
X107316173Y-60273163D01*
X107202947Y-60238816D01*
X107146333Y-60221643D01*
X106989811Y-60137979D01*
X106989809Y-60137978D01*
X106954071Y-60108648D01*
X106852614Y-60025386D01*
X106769233Y-59923785D01*
X106740022Y-59888191D01*
X106674270Y-59765179D01*
X106656357Y-59731667D01*
X106636323Y-59665621D01*
X106604837Y-59561827D01*
X106587441Y-59385200D01*
X106604837Y-59208573D01*
X106656357Y-59038734D01*
X106656357Y-59038733D01*
X106740021Y-58882211D01*
X106740022Y-58882209D01*
X106778328Y-58835533D01*
X106852614Y-58745014D01*
X106954071Y-58661752D01*
X106989809Y-58632422D01*
X107125960Y-58559647D01*
X107146333Y-58548757D01*
X107205461Y-58530821D01*
X107316173Y-58497237D01*
X107382358Y-58490718D01*
X107448540Y-58484200D01*
X107537060Y-58484200D01*
X107603242Y-58490718D01*
X107603242Y-58490718D01*
G37*
G36*
X110143242Y-58490718D02*
X110209427Y-58497237D01*
X110320139Y-58530821D01*
X110379267Y-58548757D01*
X110399640Y-58559647D01*
X110535791Y-58632422D01*
X110571529Y-58661752D01*
X110672986Y-58745014D01*
X110747272Y-58835533D01*
X110785578Y-58882209D01*
X110785579Y-58882211D01*
X110869243Y-59038733D01*
X110869243Y-59038734D01*
X110920763Y-59208573D01*
X110938159Y-59385200D01*
X110920763Y-59561827D01*
X110889277Y-59665621D01*
X110869243Y-59731667D01*
X110851330Y-59765179D01*
X110785578Y-59888191D01*
X110756367Y-59923785D01*
X110672986Y-60025386D01*
X110571529Y-60108648D01*
X110535791Y-60137978D01*
X110535789Y-60137979D01*
X110379267Y-60221643D01*
X110322653Y-60238816D01*
X110209427Y-60273163D01*
X110143242Y-60279682D01*
X110077060Y-60286200D01*
X109988540Y-60286200D01*
X109922358Y-60279682D01*
X109856173Y-60273163D01*
X109742947Y-60238816D01*
X109686333Y-60221643D01*
X109529811Y-60137979D01*
X109529809Y-60137978D01*
X109494071Y-60108648D01*
X109392614Y-60025386D01*
X109309233Y-59923785D01*
X109280022Y-59888191D01*
X109214270Y-59765179D01*
X109196357Y-59731667D01*
X109176323Y-59665621D01*
X109144837Y-59561827D01*
X109127441Y-59385200D01*
X109144837Y-59208573D01*
X109196357Y-59038734D01*
X109196357Y-59038733D01*
X109280021Y-58882211D01*
X109280022Y-58882209D01*
X109318328Y-58835533D01*
X109392614Y-58745014D01*
X109494071Y-58661752D01*
X109529809Y-58632422D01*
X109665960Y-58559647D01*
X109686333Y-58548757D01*
X109745461Y-58530821D01*
X109856173Y-58497237D01*
X109922358Y-58490718D01*
X109988540Y-58484200D01*
X110077060Y-58484200D01*
X110143242Y-58490718D01*
X110143242Y-58490718D01*
G37*
G36*
X112683242Y-58490718D02*
X112749427Y-58497237D01*
X112860139Y-58530821D01*
X112919267Y-58548757D01*
X112939640Y-58559647D01*
X113075791Y-58632422D01*
X113111529Y-58661752D01*
X113212986Y-58745014D01*
X113287272Y-58835533D01*
X113325578Y-58882209D01*
X113325579Y-58882211D01*
X113409243Y-59038733D01*
X113409243Y-59038734D01*
X113460763Y-59208573D01*
X113478159Y-59385200D01*
X113460763Y-59561827D01*
X113429277Y-59665621D01*
X113409243Y-59731667D01*
X113391330Y-59765179D01*
X113325578Y-59888191D01*
X113296367Y-59923785D01*
X113212986Y-60025386D01*
X113111529Y-60108648D01*
X113075791Y-60137978D01*
X113075789Y-60137979D01*
X112919267Y-60221643D01*
X112862653Y-60238816D01*
X112749427Y-60273163D01*
X112683242Y-60279682D01*
X112617060Y-60286200D01*
X112528540Y-60286200D01*
X112462358Y-60279682D01*
X112396173Y-60273163D01*
X112282947Y-60238816D01*
X112226333Y-60221643D01*
X112069811Y-60137979D01*
X112069809Y-60137978D01*
X112034071Y-60108648D01*
X111932614Y-60025386D01*
X111849233Y-59923785D01*
X111820022Y-59888191D01*
X111754270Y-59765179D01*
X111736357Y-59731667D01*
X111716323Y-59665621D01*
X111684837Y-59561827D01*
X111667441Y-59385200D01*
X111684837Y-59208573D01*
X111736357Y-59038734D01*
X111736357Y-59038733D01*
X111820021Y-58882211D01*
X111820022Y-58882209D01*
X111858328Y-58835533D01*
X111932614Y-58745014D01*
X112034071Y-58661752D01*
X112069809Y-58632422D01*
X112205960Y-58559647D01*
X112226333Y-58548757D01*
X112285461Y-58530821D01*
X112396173Y-58497237D01*
X112462358Y-58490718D01*
X112528540Y-58484200D01*
X112617060Y-58484200D01*
X112683242Y-58490718D01*
X112683242Y-58490718D01*
G37*
G36*
X115223242Y-58490718D02*
X115289427Y-58497237D01*
X115400139Y-58530821D01*
X115459267Y-58548757D01*
X115479640Y-58559647D01*
X115615791Y-58632422D01*
X115651529Y-58661752D01*
X115752986Y-58745014D01*
X115827272Y-58835533D01*
X115865578Y-58882209D01*
X115865579Y-58882211D01*
X115949243Y-59038733D01*
X115949243Y-59038734D01*
X116000763Y-59208573D01*
X116018159Y-59385200D01*
X116000763Y-59561827D01*
X115969277Y-59665621D01*
X115949243Y-59731667D01*
X115931330Y-59765179D01*
X115865578Y-59888191D01*
X115836367Y-59923785D01*
X115752986Y-60025386D01*
X115651529Y-60108648D01*
X115615791Y-60137978D01*
X115615789Y-60137979D01*
X115459267Y-60221643D01*
X115402653Y-60238816D01*
X115289427Y-60273163D01*
X115223242Y-60279682D01*
X115157060Y-60286200D01*
X115068540Y-60286200D01*
X115002358Y-60279682D01*
X114936173Y-60273163D01*
X114822947Y-60238816D01*
X114766333Y-60221643D01*
X114609811Y-60137979D01*
X114609809Y-60137978D01*
X114574071Y-60108648D01*
X114472614Y-60025386D01*
X114389233Y-59923785D01*
X114360022Y-59888191D01*
X114294270Y-59765179D01*
X114276357Y-59731667D01*
X114256323Y-59665621D01*
X114224837Y-59561827D01*
X114207441Y-59385200D01*
X114224837Y-59208573D01*
X114276357Y-59038734D01*
X114276357Y-59038733D01*
X114360021Y-58882211D01*
X114360022Y-58882209D01*
X114398328Y-58835533D01*
X114472614Y-58745014D01*
X114574071Y-58661752D01*
X114609809Y-58632422D01*
X114745960Y-58559647D01*
X114766333Y-58548757D01*
X114825461Y-58530821D01*
X114936173Y-58497237D01*
X115002358Y-58490718D01*
X115068540Y-58484200D01*
X115157060Y-58484200D01*
X115223242Y-58490718D01*
X115223242Y-58490718D01*
G37*
G36*
X117763242Y-58490718D02*
X117829427Y-58497237D01*
X117940139Y-58530821D01*
X117999267Y-58548757D01*
X118019640Y-58559647D01*
X118155791Y-58632422D01*
X118191529Y-58661752D01*
X118292986Y-58745014D01*
X118367272Y-58835533D01*
X118405578Y-58882209D01*
X118405579Y-58882211D01*
X118489243Y-59038733D01*
X118489243Y-59038734D01*
X118540763Y-59208573D01*
X118558159Y-59385200D01*
X118540763Y-59561827D01*
X118509277Y-59665621D01*
X118489243Y-59731667D01*
X118471330Y-59765179D01*
X118405578Y-59888191D01*
X118376367Y-59923785D01*
X118292986Y-60025386D01*
X118191529Y-60108648D01*
X118155791Y-60137978D01*
X118155789Y-60137979D01*
X117999267Y-60221643D01*
X117942653Y-60238816D01*
X117829427Y-60273163D01*
X117763242Y-60279682D01*
X117697060Y-60286200D01*
X117608540Y-60286200D01*
X117542358Y-60279682D01*
X117476173Y-60273163D01*
X117362947Y-60238816D01*
X117306333Y-60221643D01*
X117149811Y-60137979D01*
X117149809Y-60137978D01*
X117114071Y-60108648D01*
X117012614Y-60025386D01*
X116929233Y-59923785D01*
X116900022Y-59888191D01*
X116834270Y-59765179D01*
X116816357Y-59731667D01*
X116796323Y-59665621D01*
X116764837Y-59561827D01*
X116747441Y-59385200D01*
X116764837Y-59208573D01*
X116816357Y-59038734D01*
X116816357Y-59038733D01*
X116900021Y-58882211D01*
X116900022Y-58882209D01*
X116938328Y-58835533D01*
X117012614Y-58745014D01*
X117114071Y-58661752D01*
X117149809Y-58632422D01*
X117285960Y-58559647D01*
X117306333Y-58548757D01*
X117365461Y-58530821D01*
X117476173Y-58497237D01*
X117542358Y-58490718D01*
X117608540Y-58484200D01*
X117697060Y-58484200D01*
X117763242Y-58490718D01*
X117763242Y-58490718D01*
G37*
G36*
X122843242Y-58490718D02*
X122909427Y-58497237D01*
X123020139Y-58530821D01*
X123079267Y-58548757D01*
X123099640Y-58559647D01*
X123235791Y-58632422D01*
X123271529Y-58661752D01*
X123372986Y-58745014D01*
X123447272Y-58835533D01*
X123485578Y-58882209D01*
X123485579Y-58882211D01*
X123569243Y-59038733D01*
X123569243Y-59038734D01*
X123620763Y-59208573D01*
X123638159Y-59385200D01*
X123620763Y-59561827D01*
X123589277Y-59665621D01*
X123569243Y-59731667D01*
X123551330Y-59765179D01*
X123485578Y-59888191D01*
X123456367Y-59923785D01*
X123372986Y-60025386D01*
X123271529Y-60108648D01*
X123235791Y-60137978D01*
X123235789Y-60137979D01*
X123079267Y-60221643D01*
X123022653Y-60238816D01*
X122909427Y-60273163D01*
X122843242Y-60279682D01*
X122777060Y-60286200D01*
X122688540Y-60286200D01*
X122622358Y-60279682D01*
X122556173Y-60273163D01*
X122442947Y-60238816D01*
X122386333Y-60221643D01*
X122229811Y-60137979D01*
X122229809Y-60137978D01*
X122194071Y-60108648D01*
X122092614Y-60025386D01*
X122009233Y-59923785D01*
X121980022Y-59888191D01*
X121914270Y-59765179D01*
X121896357Y-59731667D01*
X121876323Y-59665621D01*
X121844837Y-59561827D01*
X121827441Y-59385200D01*
X121844837Y-59208573D01*
X121896357Y-59038734D01*
X121896357Y-59038733D01*
X121980021Y-58882211D01*
X121980022Y-58882209D01*
X122018328Y-58835533D01*
X122092614Y-58745014D01*
X122194071Y-58661752D01*
X122229809Y-58632422D01*
X122365960Y-58559647D01*
X122386333Y-58548757D01*
X122445461Y-58530821D01*
X122556173Y-58497237D01*
X122622358Y-58490718D01*
X122688540Y-58484200D01*
X122777060Y-58484200D01*
X122843242Y-58490718D01*
X122843242Y-58490718D01*
G37*
G36*
X125383242Y-58490718D02*
X125449427Y-58497237D01*
X125560139Y-58530821D01*
X125619267Y-58548757D01*
X125639640Y-58559647D01*
X125775791Y-58632422D01*
X125811529Y-58661752D01*
X125912986Y-58745014D01*
X125987272Y-58835533D01*
X126025578Y-58882209D01*
X126025579Y-58882211D01*
X126109243Y-59038733D01*
X126109243Y-59038734D01*
X126160763Y-59208573D01*
X126178159Y-59385200D01*
X126160763Y-59561827D01*
X126129277Y-59665621D01*
X126109243Y-59731667D01*
X126091330Y-59765179D01*
X126025578Y-59888191D01*
X125996367Y-59923785D01*
X125912986Y-60025386D01*
X125811529Y-60108648D01*
X125775791Y-60137978D01*
X125775789Y-60137979D01*
X125619267Y-60221643D01*
X125562653Y-60238816D01*
X125449427Y-60273163D01*
X125383242Y-60279682D01*
X125317060Y-60286200D01*
X125228540Y-60286200D01*
X125162358Y-60279682D01*
X125096173Y-60273163D01*
X124982947Y-60238816D01*
X124926333Y-60221643D01*
X124769811Y-60137979D01*
X124769809Y-60137978D01*
X124734071Y-60108648D01*
X124632614Y-60025386D01*
X124549233Y-59923785D01*
X124520022Y-59888191D01*
X124454270Y-59765179D01*
X124436357Y-59731667D01*
X124416323Y-59665621D01*
X124384837Y-59561827D01*
X124367441Y-59385200D01*
X124384837Y-59208573D01*
X124436357Y-59038734D01*
X124436357Y-59038733D01*
X124520021Y-58882211D01*
X124520022Y-58882209D01*
X124558328Y-58835533D01*
X124632614Y-58745014D01*
X124734071Y-58661752D01*
X124769809Y-58632422D01*
X124905960Y-58559647D01*
X124926333Y-58548757D01*
X124985461Y-58530821D01*
X125096173Y-58497237D01*
X125162358Y-58490718D01*
X125228540Y-58484200D01*
X125317060Y-58484200D01*
X125383242Y-58490718D01*
X125383242Y-58490718D01*
G37*
G36*
X127923242Y-58490718D02*
X127989427Y-58497237D01*
X128100139Y-58530821D01*
X128159267Y-58548757D01*
X128179640Y-58559647D01*
X128315791Y-58632422D01*
X128351529Y-58661752D01*
X128452986Y-58745014D01*
X128527272Y-58835533D01*
X128565578Y-58882209D01*
X128565579Y-58882211D01*
X128649243Y-59038733D01*
X128649243Y-59038734D01*
X128700763Y-59208573D01*
X128718159Y-59385200D01*
X128700763Y-59561827D01*
X128669277Y-59665621D01*
X128649243Y-59731667D01*
X128631330Y-59765179D01*
X128565578Y-59888191D01*
X128536367Y-59923785D01*
X128452986Y-60025386D01*
X128351529Y-60108648D01*
X128315791Y-60137978D01*
X128315789Y-60137979D01*
X128159267Y-60221643D01*
X128102653Y-60238816D01*
X127989427Y-60273163D01*
X127923242Y-60279682D01*
X127857060Y-60286200D01*
X127768540Y-60286200D01*
X127702358Y-60279682D01*
X127636173Y-60273163D01*
X127522947Y-60238816D01*
X127466333Y-60221643D01*
X127309811Y-60137979D01*
X127309809Y-60137978D01*
X127274071Y-60108648D01*
X127172614Y-60025386D01*
X127089233Y-59923785D01*
X127060022Y-59888191D01*
X126994270Y-59765179D01*
X126976357Y-59731667D01*
X126956323Y-59665621D01*
X126924837Y-59561827D01*
X126907441Y-59385200D01*
X126924837Y-59208573D01*
X126976357Y-59038734D01*
X126976357Y-59038733D01*
X127060021Y-58882211D01*
X127060022Y-58882209D01*
X127098328Y-58835533D01*
X127172614Y-58745014D01*
X127274071Y-58661752D01*
X127309809Y-58632422D01*
X127445960Y-58559647D01*
X127466333Y-58548757D01*
X127525461Y-58530821D01*
X127636173Y-58497237D01*
X127702358Y-58490718D01*
X127768540Y-58484200D01*
X127857060Y-58484200D01*
X127923242Y-58490718D01*
X127923242Y-58490718D01*
G37*
G36*
X130463242Y-58490718D02*
X130529427Y-58497237D01*
X130640139Y-58530821D01*
X130699267Y-58548757D01*
X130719640Y-58559647D01*
X130855791Y-58632422D01*
X130891529Y-58661752D01*
X130992986Y-58745014D01*
X131067272Y-58835533D01*
X131105578Y-58882209D01*
X131105579Y-58882211D01*
X131189243Y-59038733D01*
X131189243Y-59038734D01*
X131240763Y-59208573D01*
X131258159Y-59385200D01*
X131240763Y-59561827D01*
X131209277Y-59665621D01*
X131189243Y-59731667D01*
X131171330Y-59765179D01*
X131105578Y-59888191D01*
X131076367Y-59923785D01*
X130992986Y-60025386D01*
X130891529Y-60108648D01*
X130855791Y-60137978D01*
X130855789Y-60137979D01*
X130699267Y-60221643D01*
X130642653Y-60238816D01*
X130529427Y-60273163D01*
X130463242Y-60279682D01*
X130397060Y-60286200D01*
X130308540Y-60286200D01*
X130242358Y-60279682D01*
X130176173Y-60273163D01*
X130062947Y-60238816D01*
X130006333Y-60221643D01*
X129849811Y-60137979D01*
X129849809Y-60137978D01*
X129814071Y-60108648D01*
X129712614Y-60025386D01*
X129629233Y-59923785D01*
X129600022Y-59888191D01*
X129534270Y-59765179D01*
X129516357Y-59731667D01*
X129496323Y-59665621D01*
X129464837Y-59561827D01*
X129447441Y-59385200D01*
X129464837Y-59208573D01*
X129516357Y-59038734D01*
X129516357Y-59038733D01*
X129600021Y-58882211D01*
X129600022Y-58882209D01*
X129638328Y-58835533D01*
X129712614Y-58745014D01*
X129814071Y-58661752D01*
X129849809Y-58632422D01*
X129985960Y-58559647D01*
X130006333Y-58548757D01*
X130065461Y-58530821D01*
X130176173Y-58497237D01*
X130242358Y-58490718D01*
X130308540Y-58484200D01*
X130397060Y-58484200D01*
X130463242Y-58490718D01*
X130463242Y-58490718D01*
G37*
G36*
X136333800Y-60286200D02*
X134531800Y-60286200D01*
X134531800Y-58484200D01*
X136333800Y-58484200D01*
X136333800Y-60286200D01*
X136333800Y-60286200D01*
G37*
G36*
X120303242Y-58490718D02*
X120369427Y-58497237D01*
X120480139Y-58530821D01*
X120539267Y-58548757D01*
X120559640Y-58559647D01*
X120695791Y-58632422D01*
X120731529Y-58661752D01*
X120832986Y-58745014D01*
X120907272Y-58835533D01*
X120945578Y-58882209D01*
X120945579Y-58882211D01*
X121029243Y-59038733D01*
X121029243Y-59038734D01*
X121080763Y-59208573D01*
X121098159Y-59385200D01*
X121080763Y-59561827D01*
X121049277Y-59665621D01*
X121029243Y-59731667D01*
X121011330Y-59765179D01*
X120945578Y-59888191D01*
X120916367Y-59923785D01*
X120832986Y-60025386D01*
X120731529Y-60108648D01*
X120695791Y-60137978D01*
X120695789Y-60137979D01*
X120539267Y-60221643D01*
X120482653Y-60238816D01*
X120369427Y-60273163D01*
X120303242Y-60279682D01*
X120237060Y-60286200D01*
X120148540Y-60286200D01*
X120082358Y-60279682D01*
X120016173Y-60273163D01*
X119902947Y-60238816D01*
X119846333Y-60221643D01*
X119689811Y-60137979D01*
X119689809Y-60137978D01*
X119654071Y-60108648D01*
X119552614Y-60025386D01*
X119469233Y-59923785D01*
X119440022Y-59888191D01*
X119374270Y-59765179D01*
X119356357Y-59731667D01*
X119336323Y-59665621D01*
X119304837Y-59561827D01*
X119287441Y-59385200D01*
X119304837Y-59208573D01*
X119356357Y-59038734D01*
X119356357Y-59038733D01*
X119440021Y-58882211D01*
X119440022Y-58882209D01*
X119478328Y-58835533D01*
X119552614Y-58745014D01*
X119654071Y-58661752D01*
X119689809Y-58632422D01*
X119825960Y-58559647D01*
X119846333Y-58548757D01*
X119905461Y-58530821D01*
X120016173Y-58497237D01*
X120082358Y-58490718D01*
X120148540Y-58484200D01*
X120237060Y-58484200D01*
X120303242Y-58490718D01*
X120303242Y-58490718D01*
G37*
G36*
X186648042Y-58389118D02*
X186714227Y-58395637D01*
X186824939Y-58429221D01*
X186884067Y-58447157D01*
X186985846Y-58501560D01*
X187040591Y-58530822D01*
X187075714Y-58559647D01*
X187177786Y-58643414D01*
X187261048Y-58744871D01*
X187290378Y-58780609D01*
X187290379Y-58780611D01*
X187374043Y-58937133D01*
X187374043Y-58937134D01*
X187425563Y-59106973D01*
X187442959Y-59283600D01*
X187425563Y-59460227D01*
X187394744Y-59561825D01*
X187374043Y-59630067D01*
X187355038Y-59665622D01*
X187290378Y-59786591D01*
X187261167Y-59822185D01*
X187177786Y-59923786D01*
X187076329Y-60007048D01*
X187040591Y-60036378D01*
X187040589Y-60036379D01*
X186884067Y-60120043D01*
X186827453Y-60137216D01*
X186714227Y-60171563D01*
X186648043Y-60178081D01*
X186581860Y-60184600D01*
X186493340Y-60184600D01*
X186427157Y-60178081D01*
X186360973Y-60171563D01*
X186247747Y-60137216D01*
X186191133Y-60120043D01*
X186034611Y-60036379D01*
X186034609Y-60036378D01*
X185998871Y-60007048D01*
X185897414Y-59923786D01*
X185814033Y-59822185D01*
X185784822Y-59786591D01*
X185720162Y-59665622D01*
X185701157Y-59630067D01*
X185680456Y-59561825D01*
X185649637Y-59460227D01*
X185632241Y-59283600D01*
X185649637Y-59106973D01*
X185701157Y-58937134D01*
X185701157Y-58937133D01*
X185784821Y-58780611D01*
X185784822Y-58780609D01*
X185814152Y-58744871D01*
X185897414Y-58643414D01*
X185999486Y-58559647D01*
X186034609Y-58530822D01*
X186089354Y-58501560D01*
X186191133Y-58447157D01*
X186250261Y-58429221D01*
X186360973Y-58395637D01*
X186427158Y-58389118D01*
X186493340Y-58382600D01*
X186581860Y-58382600D01*
X186648042Y-58389118D01*
X186648042Y-58389118D01*
G37*
G36*
X184108042Y-58389118D02*
X184174227Y-58395637D01*
X184284939Y-58429221D01*
X184344067Y-58447157D01*
X184445846Y-58501560D01*
X184500591Y-58530822D01*
X184535714Y-58559647D01*
X184637786Y-58643414D01*
X184721048Y-58744871D01*
X184750378Y-58780609D01*
X184750379Y-58780611D01*
X184834043Y-58937133D01*
X184834043Y-58937134D01*
X184885563Y-59106973D01*
X184902959Y-59283600D01*
X184885563Y-59460227D01*
X184854744Y-59561825D01*
X184834043Y-59630067D01*
X184815038Y-59665622D01*
X184750378Y-59786591D01*
X184721167Y-59822185D01*
X184637786Y-59923786D01*
X184536329Y-60007048D01*
X184500591Y-60036378D01*
X184500589Y-60036379D01*
X184344067Y-60120043D01*
X184287453Y-60137216D01*
X184174227Y-60171563D01*
X184108043Y-60178081D01*
X184041860Y-60184600D01*
X183953340Y-60184600D01*
X183887157Y-60178081D01*
X183820973Y-60171563D01*
X183707747Y-60137216D01*
X183651133Y-60120043D01*
X183494611Y-60036379D01*
X183494609Y-60036378D01*
X183458871Y-60007048D01*
X183357414Y-59923786D01*
X183274033Y-59822185D01*
X183244822Y-59786591D01*
X183180162Y-59665622D01*
X183161157Y-59630067D01*
X183140456Y-59561825D01*
X183109637Y-59460227D01*
X183092241Y-59283600D01*
X183109637Y-59106973D01*
X183161157Y-58937134D01*
X183161157Y-58937133D01*
X183244821Y-58780611D01*
X183244822Y-58780609D01*
X183274152Y-58744871D01*
X183357414Y-58643414D01*
X183459486Y-58559647D01*
X183494609Y-58530822D01*
X183549354Y-58501560D01*
X183651133Y-58447157D01*
X183710261Y-58429221D01*
X183820973Y-58395637D01*
X183887158Y-58389118D01*
X183953340Y-58382600D01*
X184041860Y-58382600D01*
X184108042Y-58389118D01*
X184108042Y-58389118D01*
G37*
G36*
X181568042Y-58389118D02*
X181634227Y-58395637D01*
X181744939Y-58429221D01*
X181804067Y-58447157D01*
X181905846Y-58501560D01*
X181960591Y-58530822D01*
X181995714Y-58559647D01*
X182097786Y-58643414D01*
X182181048Y-58744871D01*
X182210378Y-58780609D01*
X182210379Y-58780611D01*
X182294043Y-58937133D01*
X182294043Y-58937134D01*
X182345563Y-59106973D01*
X182362959Y-59283600D01*
X182345563Y-59460227D01*
X182314744Y-59561825D01*
X182294043Y-59630067D01*
X182275038Y-59665622D01*
X182210378Y-59786591D01*
X182181167Y-59822185D01*
X182097786Y-59923786D01*
X181996329Y-60007048D01*
X181960591Y-60036378D01*
X181960589Y-60036379D01*
X181804067Y-60120043D01*
X181747453Y-60137216D01*
X181634227Y-60171563D01*
X181568043Y-60178081D01*
X181501860Y-60184600D01*
X181413340Y-60184600D01*
X181347157Y-60178081D01*
X181280973Y-60171563D01*
X181167747Y-60137216D01*
X181111133Y-60120043D01*
X180954611Y-60036379D01*
X180954609Y-60036378D01*
X180918871Y-60007048D01*
X180817414Y-59923786D01*
X180734033Y-59822185D01*
X180704822Y-59786591D01*
X180640162Y-59665622D01*
X180621157Y-59630067D01*
X180600456Y-59561825D01*
X180569637Y-59460227D01*
X180552241Y-59283600D01*
X180569637Y-59106973D01*
X180621157Y-58937134D01*
X180621157Y-58937133D01*
X180704821Y-58780611D01*
X180704822Y-58780609D01*
X180734152Y-58744871D01*
X180817414Y-58643414D01*
X180919486Y-58559647D01*
X180954609Y-58530822D01*
X181009354Y-58501560D01*
X181111133Y-58447157D01*
X181170261Y-58429221D01*
X181280973Y-58395637D01*
X181347158Y-58389118D01*
X181413340Y-58382600D01*
X181501860Y-58382600D01*
X181568042Y-58389118D01*
X181568042Y-58389118D01*
G37*
G36*
X192518600Y-60184600D02*
X190716600Y-60184600D01*
X190716600Y-58382600D01*
X192518600Y-58382600D01*
X192518600Y-60184600D01*
X192518600Y-60184600D01*
G37*
G36*
X189188042Y-58389118D02*
X189254227Y-58395637D01*
X189364939Y-58429221D01*
X189424067Y-58447157D01*
X189525846Y-58501560D01*
X189580591Y-58530822D01*
X189615714Y-58559647D01*
X189717786Y-58643414D01*
X189801048Y-58744871D01*
X189830378Y-58780609D01*
X189830379Y-58780611D01*
X189914043Y-58937133D01*
X189914043Y-58937134D01*
X189965563Y-59106973D01*
X189982959Y-59283600D01*
X189965563Y-59460227D01*
X189934744Y-59561825D01*
X189914043Y-59630067D01*
X189895038Y-59665622D01*
X189830378Y-59786591D01*
X189801167Y-59822185D01*
X189717786Y-59923786D01*
X189616329Y-60007048D01*
X189580591Y-60036378D01*
X189580589Y-60036379D01*
X189424067Y-60120043D01*
X189367453Y-60137216D01*
X189254227Y-60171563D01*
X189188043Y-60178081D01*
X189121860Y-60184600D01*
X189033340Y-60184600D01*
X188967157Y-60178081D01*
X188900973Y-60171563D01*
X188787747Y-60137216D01*
X188731133Y-60120043D01*
X188574611Y-60036379D01*
X188574609Y-60036378D01*
X188538871Y-60007048D01*
X188437414Y-59923786D01*
X188354033Y-59822185D01*
X188324822Y-59786591D01*
X188260162Y-59665622D01*
X188241157Y-59630067D01*
X188220456Y-59561825D01*
X188189637Y-59460227D01*
X188172241Y-59283600D01*
X188189637Y-59106973D01*
X188241157Y-58937134D01*
X188241157Y-58937133D01*
X188324821Y-58780611D01*
X188324822Y-58780609D01*
X188354152Y-58744871D01*
X188437414Y-58643414D01*
X188539486Y-58559647D01*
X188574609Y-58530822D01*
X188629354Y-58501560D01*
X188731133Y-58447157D01*
X188790261Y-58429221D01*
X188900973Y-58395637D01*
X188967158Y-58389118D01*
X189033340Y-58382600D01*
X189121860Y-58382600D01*
X189188042Y-58389118D01*
X189188042Y-58389118D01*
G37*
G36*
X169579242Y-58287518D02*
X169645427Y-58294037D01*
X169758653Y-58328384D01*
X169815267Y-58345557D01*
X169953887Y-58419652D01*
X169971791Y-58429222D01*
X170007529Y-58458552D01*
X170108986Y-58541814D01*
X170183344Y-58632421D01*
X170221578Y-58679009D01*
X170221579Y-58679011D01*
X170305243Y-58835533D01*
X170305243Y-58835534D01*
X170356763Y-59005373D01*
X170374159Y-59182000D01*
X170356763Y-59358627D01*
X170354781Y-59365160D01*
X170305243Y-59528467D01*
X170287411Y-59561827D01*
X170221578Y-59684991D01*
X170192248Y-59720729D01*
X170108986Y-59822186D01*
X170028557Y-59888191D01*
X169971791Y-59934778D01*
X169971789Y-59934779D01*
X169815267Y-60018443D01*
X169758653Y-60035616D01*
X169645427Y-60069963D01*
X169579242Y-60076482D01*
X169513060Y-60083000D01*
X169424540Y-60083000D01*
X169358358Y-60076482D01*
X169292173Y-60069963D01*
X169178947Y-60035616D01*
X169122333Y-60018443D01*
X168965811Y-59934779D01*
X168965809Y-59934778D01*
X168909043Y-59888191D01*
X168828614Y-59822186D01*
X168745352Y-59720729D01*
X168716022Y-59684991D01*
X168650189Y-59561827D01*
X168632357Y-59528467D01*
X168582819Y-59365160D01*
X168580837Y-59358627D01*
X168563441Y-59182000D01*
X168580837Y-59005373D01*
X168632357Y-58835534D01*
X168632357Y-58835533D01*
X168716021Y-58679011D01*
X168716022Y-58679009D01*
X168754256Y-58632421D01*
X168828614Y-58541814D01*
X168930071Y-58458552D01*
X168965809Y-58429222D01*
X168983713Y-58419652D01*
X169122333Y-58345557D01*
X169178947Y-58328384D01*
X169292173Y-58294037D01*
X169358358Y-58287518D01*
X169424540Y-58281000D01*
X169513060Y-58281000D01*
X169579242Y-58287518D01*
X169579242Y-58287518D01*
G37*
G36*
X172119242Y-58287518D02*
X172185427Y-58294037D01*
X172298653Y-58328384D01*
X172355267Y-58345557D01*
X172493887Y-58419652D01*
X172511791Y-58429222D01*
X172547529Y-58458552D01*
X172648986Y-58541814D01*
X172723344Y-58632421D01*
X172761578Y-58679009D01*
X172761579Y-58679011D01*
X172845243Y-58835533D01*
X172845243Y-58835534D01*
X172896763Y-59005373D01*
X172914159Y-59182000D01*
X172896763Y-59358627D01*
X172894781Y-59365160D01*
X172845243Y-59528467D01*
X172827411Y-59561827D01*
X172761578Y-59684991D01*
X172732248Y-59720729D01*
X172648986Y-59822186D01*
X172568557Y-59888191D01*
X172511791Y-59934778D01*
X172511789Y-59934779D01*
X172355267Y-60018443D01*
X172298653Y-60035616D01*
X172185427Y-60069963D01*
X172119242Y-60076482D01*
X172053060Y-60083000D01*
X171964540Y-60083000D01*
X171898358Y-60076482D01*
X171832173Y-60069963D01*
X171718947Y-60035616D01*
X171662333Y-60018443D01*
X171505811Y-59934779D01*
X171505809Y-59934778D01*
X171449043Y-59888191D01*
X171368614Y-59822186D01*
X171285352Y-59720729D01*
X171256022Y-59684991D01*
X171190189Y-59561827D01*
X171172357Y-59528467D01*
X171122819Y-59365160D01*
X171120837Y-59358627D01*
X171103441Y-59182000D01*
X171120837Y-59005373D01*
X171172357Y-58835534D01*
X171172357Y-58835533D01*
X171256021Y-58679011D01*
X171256022Y-58679009D01*
X171294256Y-58632421D01*
X171368614Y-58541814D01*
X171470071Y-58458552D01*
X171505809Y-58429222D01*
X171523713Y-58419652D01*
X171662333Y-58345557D01*
X171718947Y-58328384D01*
X171832173Y-58294037D01*
X171898358Y-58287518D01*
X171964540Y-58281000D01*
X172053060Y-58281000D01*
X172119242Y-58287518D01*
X172119242Y-58287518D01*
G37*
G36*
X174659242Y-58287518D02*
X174725427Y-58294037D01*
X174838653Y-58328384D01*
X174895267Y-58345557D01*
X175033887Y-58419652D01*
X175051791Y-58429222D01*
X175087529Y-58458552D01*
X175188986Y-58541814D01*
X175263344Y-58632421D01*
X175301578Y-58679009D01*
X175301579Y-58679011D01*
X175385243Y-58835533D01*
X175385243Y-58835534D01*
X175436763Y-59005373D01*
X175454159Y-59182000D01*
X175436763Y-59358627D01*
X175434781Y-59365160D01*
X175385243Y-59528467D01*
X175367411Y-59561827D01*
X175301578Y-59684991D01*
X175272248Y-59720729D01*
X175188986Y-59822186D01*
X175108557Y-59888191D01*
X175051791Y-59934778D01*
X175051789Y-59934779D01*
X174895267Y-60018443D01*
X174838653Y-60035616D01*
X174725427Y-60069963D01*
X174659242Y-60076482D01*
X174593060Y-60083000D01*
X174504540Y-60083000D01*
X174438358Y-60076482D01*
X174372173Y-60069963D01*
X174258947Y-60035616D01*
X174202333Y-60018443D01*
X174045811Y-59934779D01*
X174045809Y-59934778D01*
X173989043Y-59888191D01*
X173908614Y-59822186D01*
X173825352Y-59720729D01*
X173796022Y-59684991D01*
X173730189Y-59561827D01*
X173712357Y-59528467D01*
X173662819Y-59365160D01*
X173660837Y-59358627D01*
X173643441Y-59182000D01*
X173660837Y-59005373D01*
X173712357Y-58835534D01*
X173712357Y-58835533D01*
X173796021Y-58679011D01*
X173796022Y-58679009D01*
X173834256Y-58632421D01*
X173908614Y-58541814D01*
X174010071Y-58458552D01*
X174045809Y-58429222D01*
X174063713Y-58419652D01*
X174202333Y-58345557D01*
X174258947Y-58328384D01*
X174372173Y-58294037D01*
X174438358Y-58287518D01*
X174504540Y-58281000D01*
X174593060Y-58281000D01*
X174659242Y-58287518D01*
X174659242Y-58287518D01*
G37*
G36*
X177199242Y-58287518D02*
X177265427Y-58294037D01*
X177378653Y-58328384D01*
X177435267Y-58345557D01*
X177573887Y-58419652D01*
X177591791Y-58429222D01*
X177627529Y-58458552D01*
X177728986Y-58541814D01*
X177803344Y-58632421D01*
X177841578Y-58679009D01*
X177841579Y-58679011D01*
X177925243Y-58835533D01*
X177925243Y-58835534D01*
X177976763Y-59005373D01*
X177994159Y-59182000D01*
X177976763Y-59358627D01*
X177974781Y-59365160D01*
X177925243Y-59528467D01*
X177907411Y-59561827D01*
X177841578Y-59684991D01*
X177812248Y-59720729D01*
X177728986Y-59822186D01*
X177648557Y-59888191D01*
X177591791Y-59934778D01*
X177591789Y-59934779D01*
X177435267Y-60018443D01*
X177378653Y-60035616D01*
X177265427Y-60069963D01*
X177199242Y-60076482D01*
X177133060Y-60083000D01*
X177044540Y-60083000D01*
X176978358Y-60076482D01*
X176912173Y-60069963D01*
X176798947Y-60035616D01*
X176742333Y-60018443D01*
X176585811Y-59934779D01*
X176585809Y-59934778D01*
X176529043Y-59888191D01*
X176448614Y-59822186D01*
X176365352Y-59720729D01*
X176336022Y-59684991D01*
X176270189Y-59561827D01*
X176252357Y-59528467D01*
X176202819Y-59365160D01*
X176200837Y-59358627D01*
X176183441Y-59182000D01*
X176200837Y-59005373D01*
X176252357Y-58835534D01*
X176252357Y-58835533D01*
X176336021Y-58679011D01*
X176336022Y-58679009D01*
X176374256Y-58632421D01*
X176448614Y-58541814D01*
X176550071Y-58458552D01*
X176585809Y-58429222D01*
X176603713Y-58419652D01*
X176742333Y-58345557D01*
X176798947Y-58328384D01*
X176912173Y-58294037D01*
X176978358Y-58287518D01*
X177044540Y-58281000D01*
X177133060Y-58281000D01*
X177199242Y-58287518D01*
X177199242Y-58287518D01*
G37*
G36*
X167039242Y-58287518D02*
X167105427Y-58294037D01*
X167218653Y-58328384D01*
X167275267Y-58345557D01*
X167413887Y-58419652D01*
X167431791Y-58429222D01*
X167467529Y-58458552D01*
X167568986Y-58541814D01*
X167643344Y-58632421D01*
X167681578Y-58679009D01*
X167681579Y-58679011D01*
X167765243Y-58835533D01*
X167765243Y-58835534D01*
X167816763Y-59005373D01*
X167834159Y-59182000D01*
X167816763Y-59358627D01*
X167814781Y-59365160D01*
X167765243Y-59528467D01*
X167747411Y-59561827D01*
X167681578Y-59684991D01*
X167652248Y-59720729D01*
X167568986Y-59822186D01*
X167488557Y-59888191D01*
X167431791Y-59934778D01*
X167431789Y-59934779D01*
X167275267Y-60018443D01*
X167218653Y-60035616D01*
X167105427Y-60069963D01*
X167039242Y-60076482D01*
X166973060Y-60083000D01*
X166884540Y-60083000D01*
X166818358Y-60076482D01*
X166752173Y-60069963D01*
X166638947Y-60035616D01*
X166582333Y-60018443D01*
X166425811Y-59934779D01*
X166425809Y-59934778D01*
X166369043Y-59888191D01*
X166288614Y-59822186D01*
X166205352Y-59720729D01*
X166176022Y-59684991D01*
X166110189Y-59561827D01*
X166092357Y-59528467D01*
X166042819Y-59365160D01*
X166040837Y-59358627D01*
X166023441Y-59182000D01*
X166040837Y-59005373D01*
X166092357Y-58835534D01*
X166092357Y-58835533D01*
X166176021Y-58679011D01*
X166176022Y-58679009D01*
X166214256Y-58632421D01*
X166288614Y-58541814D01*
X166390071Y-58458552D01*
X166425809Y-58429222D01*
X166443713Y-58419652D01*
X166582333Y-58345557D01*
X166638947Y-58328384D01*
X166752173Y-58294037D01*
X166818358Y-58287518D01*
X166884540Y-58281000D01*
X166973060Y-58281000D01*
X167039242Y-58287518D01*
X167039242Y-58287518D01*
G37*
G36*
X165289800Y-60083000D02*
X163487800Y-60083000D01*
X163487800Y-58281000D01*
X165289800Y-58281000D01*
X165289800Y-60083000D01*
X165289800Y-60083000D01*
G37*
M02*
