%FSLAX45Y45*%
G04 Gerber Fmt 4.5, Leading zero omitted, Abs format (unit mm)*
G04 Created by KiCad (PCBNEW 5.0.2+dfsg1-1) date Fr 08 Jan 2021 16:22:00 CET*
%MOMM*%
%LPD*%
G01*
G04 APERTURE LIST*
%ADD10C,0.200000*%
%ADD11C,0.300000*%
G04 APERTURE END LIST*
D10*
X9845040Y-8939960D02*
X9845040Y-5643880D01*
X19800000Y-8939960D02*
X9845040Y-8939960D01*
X19800000Y-5648960D02*
X19800000Y-8939960D01*
X9850120Y-5648960D02*
X19800000Y-5648960D01*
D10*
X10211120Y-7742240D02*
X10251120Y-7782240D01*
X10251120Y-7742240D02*
X10211120Y-7782240D01*
X10470200Y-6980240D02*
X10510200Y-7020240D01*
X10510200Y-6980240D02*
X10470200Y-7020240D01*
X10800400Y-6584000D02*
X10840400Y-6624000D01*
X10840400Y-6584000D02*
X10800400Y-6624000D01*
X11201720Y-6634800D02*
X11241720Y-6674800D01*
X11241720Y-6634800D02*
X11201720Y-6674800D01*
X11201720Y-6634800D02*
X11241720Y-6674800D01*
X11241720Y-6634800D02*
X11201720Y-6674800D01*
X11201720Y-6634800D02*
X11241720Y-6674800D01*
X11241720Y-6634800D02*
X11201720Y-6674800D01*
X11277920Y-8138480D02*
X11317920Y-8178480D01*
X11317920Y-8138480D02*
X11277920Y-8178480D01*
X11780840Y-6553520D02*
X11820840Y-6593520D01*
X11820840Y-6553520D02*
X11780840Y-6593520D01*
X12405680Y-7544120D02*
X12445680Y-7584120D01*
X12445680Y-7544120D02*
X12405680Y-7584120D01*
X12563160Y-7340920D02*
X12603160Y-7380920D01*
X12603160Y-7340920D02*
X12563160Y-7380920D01*
X12659680Y-7696520D02*
X12699680Y-7736520D01*
X12699680Y-7696520D02*
X12659680Y-7736520D01*
X12710480Y-6441760D02*
X12750480Y-6481760D01*
X12750480Y-6441760D02*
X12710480Y-6481760D01*
X12827320Y-6700840D02*
X12867320Y-6740840D01*
X12867320Y-6700840D02*
X12827320Y-6740840D01*
X12923840Y-7457760D02*
X12963840Y-7497760D01*
X12963840Y-7457760D02*
X12923840Y-7497760D01*
X12959400Y-7244400D02*
X12999400Y-7284400D01*
X12999400Y-7244400D02*
X12959400Y-7284400D01*
X13162600Y-7711760D02*
X13202600Y-7751760D01*
X13202600Y-7711760D02*
X13162600Y-7751760D01*
X13162600Y-7991160D02*
X13202600Y-8031160D01*
X13202600Y-7991160D02*
X13162600Y-8031160D01*
X13360720Y-6451920D02*
X13400720Y-6491920D01*
X13400720Y-6451920D02*
X13360720Y-6491920D01*
X18719000Y-8646160D02*
G75*
G03X18719000Y-8646160I-50000J0D01*
G01*
X18973000Y-8646160D02*
G75*
G03X18973000Y-8646160I-50000J0D01*
G01*
X14954720Y-8580120D02*
G75*
G03X14954720Y-8580120I-50000J0D01*
G01*
X15208720Y-8580120D02*
G75*
G03X15208720Y-8580120I-50000J0D01*
G01*
X15462720Y-8580120D02*
G75*
G03X15462720Y-8580120I-50000J0D01*
G01*
X15716720Y-8580120D02*
G75*
G03X15716720Y-8580120I-50000J0D01*
G01*
X10545280Y-5938520D02*
G75*
G03X10545280Y-5938520I-50000J0D01*
G01*
X10799280Y-5938520D02*
G75*
G03X10799280Y-5938520I-50000J0D01*
G01*
X11053280Y-5938520D02*
G75*
G03X11053280Y-5938520I-50000J0D01*
G01*
X11307280Y-5938520D02*
G75*
G03X11307280Y-5938520I-50000J0D01*
G01*
X11561280Y-5938520D02*
G75*
G03X11561280Y-5938520I-50000J0D01*
G01*
X11815280Y-5938520D02*
G75*
G03X11815280Y-5938520I-50000J0D01*
G01*
X12069280Y-5938520D02*
G75*
G03X12069280Y-5938520I-50000J0D01*
G01*
X12323280Y-5938520D02*
G75*
G03X12323280Y-5938520I-50000J0D01*
G01*
X12577280Y-5938520D02*
G75*
G03X12577280Y-5938520I-50000J0D01*
G01*
X12831280Y-5938520D02*
G75*
G03X12831280Y-5938520I-50000J0D01*
G01*
X13085280Y-5938520D02*
G75*
G03X13085280Y-5938520I-50000J0D01*
G01*
X13339280Y-5938520D02*
G75*
G03X13339280Y-5938520I-50000J0D01*
G01*
X13593280Y-5938520D02*
G75*
G03X13593280Y-5938520I-50000J0D01*
G01*
X16488880Y-5918200D02*
G75*
G03X16488880Y-5918200I-50000J0D01*
G01*
X16742880Y-5918200D02*
G75*
G03X16742880Y-5918200I-50000J0D01*
G01*
X16996880Y-5918200D02*
G75*
G03X16996880Y-5918200I-50000J0D01*
G01*
X17250880Y-5918200D02*
G75*
G03X17250880Y-5918200I-50000J0D01*
G01*
X17504880Y-5918200D02*
G75*
G03X17504880Y-5918200I-50000J0D01*
G01*
X17758880Y-5918200D02*
G75*
G03X17758880Y-5918200I-50000J0D01*
G01*
X18195760Y-5928360D02*
G75*
G03X18195760Y-5928360I-50000J0D01*
G01*
X18449760Y-5928360D02*
G75*
G03X18449760Y-5928360I-50000J0D01*
G01*
X18703760Y-5928360D02*
G75*
G03X18703760Y-5928360I-50000J0D01*
G01*
X18957760Y-5928360D02*
G75*
G03X18957760Y-5928360I-50000J0D01*
G01*
X19211760Y-5928360D02*
G75*
G03X19211760Y-5928360I-50000J0D01*
G01*
X10550360Y-8570000D02*
G75*
G03X10550360Y-8570000I-50000J0D01*
G01*
X10804360Y-8570000D02*
G75*
G03X10804360Y-8570000I-50000J0D01*
G01*
X11058360Y-8570000D02*
G75*
G03X11058360Y-8570000I-50000J0D01*
G01*
X11312360Y-8570000D02*
G75*
G03X11312360Y-8570000I-50000J0D01*
G01*
X11566360Y-8570000D02*
G75*
G03X11566360Y-8570000I-50000J0D01*
G01*
X11820360Y-8570000D02*
G75*
G03X11820360Y-8570000I-50000J0D01*
G01*
X12074360Y-8570000D02*
G75*
G03X12074360Y-8570000I-50000J0D01*
G01*
X12328360Y-8570000D02*
G75*
G03X12328360Y-8570000I-50000J0D01*
G01*
X12582360Y-8570000D02*
G75*
G03X12582360Y-8570000I-50000J0D01*
G01*
X12836360Y-8570000D02*
G75*
G03X12836360Y-8570000I-50000J0D01*
G01*
X13090360Y-8570000D02*
G75*
G03X13090360Y-8570000I-50000J0D01*
G01*
X13344360Y-8570000D02*
G75*
G03X13344360Y-8570000I-50000J0D01*
G01*
X13598360Y-8570000D02*
G75*
G03X13598360Y-8570000I-50000J0D01*
G01*
X10073640Y-7671680D02*
X10073640Y-7781680D01*
X10018640Y-7726680D02*
X10128640Y-7726680D01*
X10073640Y-8121680D02*
X10073640Y-8231680D01*
X10018640Y-8176680D02*
X10128640Y-8176680D01*
X10723640Y-7671680D02*
X10723640Y-7781680D01*
X10668640Y-7726680D02*
X10778640Y-7726680D01*
X10723640Y-8121680D02*
X10723640Y-8231680D01*
X10668640Y-8176680D02*
X10778640Y-8176680D01*
X10073640Y-6340720D02*
X10073640Y-6450720D01*
X10018640Y-6395720D02*
X10128640Y-6395720D01*
X10073640Y-6790720D02*
X10073640Y-6900720D01*
X10018640Y-6845720D02*
X10128640Y-6845720D01*
X10723640Y-6340720D02*
X10723640Y-6450720D01*
X10668640Y-6395720D02*
X10778640Y-6395720D01*
X10723640Y-6790720D02*
X10723640Y-6900720D01*
X10668640Y-6845720D02*
X10778640Y-6845720D01*
X16608307Y-8531107D02*
X16608307Y-8446253D01*
X16523453Y-8446253D01*
X16523453Y-8531107D01*
X16608307Y-8531107D01*
X17908307Y-8531107D02*
X17908307Y-8446253D01*
X17823453Y-8446253D01*
X17823453Y-8531107D01*
X17908307Y-8531107D01*
D11*
X10121468Y-9415674D02*
X10121468Y-9115674D01*
X10192897Y-9115674D01*
X10235754Y-9129960D01*
X10264326Y-9158532D01*
X10278611Y-9187103D01*
X10292897Y-9244246D01*
X10292897Y-9287103D01*
X10278611Y-9344246D01*
X10264326Y-9372817D01*
X10235754Y-9401389D01*
X10192897Y-9415674D01*
X10121468Y-9415674D01*
X10421468Y-9415674D02*
X10421468Y-9215674D01*
X10421468Y-9272817D02*
X10435754Y-9244246D01*
X10450040Y-9229960D01*
X10478611Y-9215674D01*
X10507183Y-9215674D01*
X10607183Y-9415674D02*
X10607183Y-9215674D01*
X10607183Y-9115674D02*
X10592897Y-9129960D01*
X10607183Y-9144246D01*
X10621468Y-9129960D01*
X10607183Y-9115674D01*
X10607183Y-9144246D01*
X10792897Y-9415674D02*
X10764326Y-9401389D01*
X10750040Y-9372817D01*
X10750040Y-9115674D01*
X10950040Y-9415674D02*
X10921468Y-9401389D01*
X10907183Y-9372817D01*
X10907183Y-9115674D01*
X11292897Y-9415674D02*
X11292897Y-9115674D01*
X11392897Y-9329960D01*
X11492897Y-9115674D01*
X11492897Y-9415674D01*
X11764326Y-9415674D02*
X11764326Y-9258532D01*
X11750040Y-9229960D01*
X11721468Y-9215674D01*
X11664326Y-9215674D01*
X11635754Y-9229960D01*
X11764326Y-9401389D02*
X11735754Y-9415674D01*
X11664326Y-9415674D01*
X11635754Y-9401389D01*
X11621468Y-9372817D01*
X11621468Y-9344246D01*
X11635754Y-9315674D01*
X11664326Y-9301389D01*
X11735754Y-9301389D01*
X11764326Y-9287103D01*
X11907183Y-9215674D02*
X11907183Y-9515674D01*
X11907183Y-9229960D02*
X11935754Y-9215674D01*
X11992897Y-9215674D01*
X12021468Y-9229960D01*
X12035754Y-9244246D01*
X12050040Y-9272817D01*
X12050040Y-9358532D01*
X12035754Y-9387103D01*
X12021468Y-9401389D01*
X11992897Y-9415674D01*
X11935754Y-9415674D01*
X11907183Y-9401389D01*
X12178611Y-9387103D02*
X12192897Y-9401389D01*
X12178611Y-9415674D01*
X12164326Y-9401389D01*
X12178611Y-9387103D01*
X12178611Y-9415674D01*
X12178611Y-9229960D02*
X12192897Y-9244246D01*
X12178611Y-9258532D01*
X12164326Y-9244246D01*
X12178611Y-9229960D01*
X12178611Y-9258532D01*
X9795040Y-9889960D02*
X9835040Y-9929960D01*
X9835040Y-9889960D02*
X9795040Y-9929960D01*
X10178611Y-9745674D02*
X10207183Y-9745674D01*
X10235754Y-9759960D01*
X10250040Y-9774246D01*
X10264326Y-9802817D01*
X10278611Y-9859960D01*
X10278611Y-9931389D01*
X10264326Y-9988532D01*
X10250040Y-10017103D01*
X10235754Y-10031389D01*
X10207183Y-10045674D01*
X10178611Y-10045674D01*
X10150040Y-10031389D01*
X10135754Y-10017103D01*
X10121468Y-9988532D01*
X10107183Y-9931389D01*
X10107183Y-9859960D01*
X10121468Y-9802817D01*
X10135754Y-9774246D01*
X10150040Y-9759960D01*
X10178611Y-9745674D01*
X10407183Y-10017103D02*
X10421468Y-10031389D01*
X10407183Y-10045674D01*
X10392897Y-10031389D01*
X10407183Y-10017103D01*
X10407183Y-10045674D01*
X10678611Y-9845674D02*
X10678611Y-10045674D01*
X10607183Y-9731389D02*
X10535754Y-9945674D01*
X10721468Y-9945674D01*
X10892897Y-9745674D02*
X10921468Y-9745674D01*
X10950040Y-9759960D01*
X10964326Y-9774246D01*
X10978611Y-9802817D01*
X10992897Y-9859960D01*
X10992897Y-9931389D01*
X10978611Y-9988532D01*
X10964326Y-10017103D01*
X10950040Y-10031389D01*
X10921468Y-10045674D01*
X10892897Y-10045674D01*
X10864326Y-10031389D01*
X10850040Y-10017103D01*
X10835754Y-9988532D01*
X10821468Y-9931389D01*
X10821468Y-9859960D01*
X10835754Y-9802817D01*
X10850040Y-9774246D01*
X10864326Y-9759960D01*
X10892897Y-9745674D01*
X11121468Y-10045674D02*
X11121468Y-9845674D01*
X11121468Y-9874246D02*
X11135754Y-9859960D01*
X11164326Y-9845674D01*
X11207183Y-9845674D01*
X11235754Y-9859960D01*
X11250040Y-9888532D01*
X11250040Y-10045674D01*
X11250040Y-9888532D02*
X11264326Y-9859960D01*
X11292897Y-9845674D01*
X11335754Y-9845674D01*
X11364326Y-9859960D01*
X11378611Y-9888532D01*
X11378611Y-10045674D01*
X11521468Y-10045674D02*
X11521468Y-9845674D01*
X11521468Y-9874246D02*
X11535754Y-9859960D01*
X11564326Y-9845674D01*
X11607183Y-9845674D01*
X11635754Y-9859960D01*
X11650040Y-9888532D01*
X11650040Y-10045674D01*
X11650040Y-9888532D02*
X11664326Y-9859960D01*
X11692897Y-9845674D01*
X11735754Y-9845674D01*
X11764326Y-9859960D01*
X11778611Y-9888532D01*
X11778611Y-10045674D01*
X12364326Y-9731389D02*
X12107183Y-10117103D01*
X12750040Y-9745674D02*
X12778611Y-9745674D01*
X12807183Y-9759960D01*
X12821468Y-9774246D01*
X12835754Y-9802817D01*
X12850040Y-9859960D01*
X12850040Y-9931389D01*
X12835754Y-9988532D01*
X12821468Y-10017103D01*
X12807183Y-10031389D01*
X12778611Y-10045674D01*
X12750040Y-10045674D01*
X12721468Y-10031389D01*
X12707183Y-10017103D01*
X12692897Y-9988532D01*
X12678611Y-9931389D01*
X12678611Y-9859960D01*
X12692897Y-9802817D01*
X12707183Y-9774246D01*
X12721468Y-9759960D01*
X12750040Y-9745674D01*
X12978611Y-10017103D02*
X12992897Y-10031389D01*
X12978611Y-10045674D01*
X12964326Y-10031389D01*
X12978611Y-10017103D01*
X12978611Y-10045674D01*
X13178611Y-9745674D02*
X13207183Y-9745674D01*
X13235754Y-9759960D01*
X13250040Y-9774246D01*
X13264326Y-9802817D01*
X13278611Y-9859960D01*
X13278611Y-9931389D01*
X13264326Y-9988532D01*
X13250040Y-10017103D01*
X13235754Y-10031389D01*
X13207183Y-10045674D01*
X13178611Y-10045674D01*
X13150040Y-10031389D01*
X13135754Y-10017103D01*
X13121468Y-9988532D01*
X13107183Y-9931389D01*
X13107183Y-9859960D01*
X13121468Y-9802817D01*
X13135754Y-9774246D01*
X13150040Y-9759960D01*
X13178611Y-9745674D01*
X13564326Y-10045674D02*
X13392897Y-10045674D01*
X13478611Y-10045674D02*
X13478611Y-9745674D01*
X13450040Y-9788532D01*
X13421468Y-9817103D01*
X13392897Y-9831389D01*
X13821468Y-9745674D02*
X13764326Y-9745674D01*
X13735754Y-9759960D01*
X13721468Y-9774246D01*
X13692897Y-9817103D01*
X13678611Y-9874246D01*
X13678611Y-9988532D01*
X13692897Y-10017103D01*
X13707183Y-10031389D01*
X13735754Y-10045674D01*
X13792897Y-10045674D01*
X13821468Y-10031389D01*
X13835754Y-10017103D01*
X13850040Y-9988532D01*
X13850040Y-9917103D01*
X13835754Y-9888532D01*
X13821468Y-9874246D01*
X13792897Y-9859960D01*
X13735754Y-9859960D01*
X13707183Y-9874246D01*
X13692897Y-9888532D01*
X13678611Y-9917103D01*
X13964326Y-9745674D02*
X13964326Y-9802817D01*
X14078611Y-9745674D02*
X14078611Y-9802817D01*
X14521468Y-10159960D02*
X14507183Y-10145674D01*
X14478611Y-10102817D01*
X14464326Y-10074246D01*
X14450040Y-10031389D01*
X14435754Y-9959960D01*
X14435754Y-9902817D01*
X14450040Y-9831389D01*
X14464326Y-9788532D01*
X14478611Y-9759960D01*
X14507183Y-9717103D01*
X14521468Y-9702817D01*
X14792897Y-10045674D02*
X14621468Y-10045674D01*
X14707183Y-10045674D02*
X14707183Y-9745674D01*
X14678611Y-9788532D01*
X14650040Y-9817103D01*
X14621468Y-9831389D01*
X14964326Y-9874246D02*
X14935754Y-9859960D01*
X14921468Y-9845674D01*
X14907183Y-9817103D01*
X14907183Y-9802817D01*
X14921468Y-9774246D01*
X14935754Y-9759960D01*
X14964326Y-9745674D01*
X15021468Y-9745674D01*
X15050040Y-9759960D01*
X15064326Y-9774246D01*
X15078611Y-9802817D01*
X15078611Y-9817103D01*
X15064326Y-9845674D01*
X15050040Y-9859960D01*
X15021468Y-9874246D01*
X14964326Y-9874246D01*
X14935754Y-9888532D01*
X14921468Y-9902817D01*
X14907183Y-9931389D01*
X14907183Y-9988532D01*
X14921468Y-10017103D01*
X14935754Y-10031389D01*
X14964326Y-10045674D01*
X15021468Y-10045674D01*
X15050040Y-10031389D01*
X15064326Y-10017103D01*
X15078611Y-9988532D01*
X15078611Y-9931389D01*
X15064326Y-9902817D01*
X15050040Y-9888532D01*
X15021468Y-9874246D01*
X15435754Y-10045674D02*
X15435754Y-9745674D01*
X15564326Y-10045674D02*
X15564326Y-9888532D01*
X15550040Y-9859960D01*
X15521468Y-9845674D01*
X15478611Y-9845674D01*
X15450040Y-9859960D01*
X15435754Y-9874246D01*
X15750040Y-10045674D02*
X15721468Y-10031389D01*
X15707183Y-10017103D01*
X15692897Y-9988532D01*
X15692897Y-9902817D01*
X15707183Y-9874246D01*
X15721468Y-9859960D01*
X15750040Y-9845674D01*
X15792897Y-9845674D01*
X15821468Y-9859960D01*
X15835754Y-9874246D01*
X15850040Y-9902817D01*
X15850040Y-9988532D01*
X15835754Y-10017103D01*
X15821468Y-10031389D01*
X15792897Y-10045674D01*
X15750040Y-10045674D01*
X16021468Y-10045674D02*
X15992897Y-10031389D01*
X15978611Y-10002817D01*
X15978611Y-9745674D01*
X16250040Y-10031389D02*
X16221468Y-10045674D01*
X16164326Y-10045674D01*
X16135754Y-10031389D01*
X16121468Y-10002817D01*
X16121468Y-9888532D01*
X16135754Y-9859960D01*
X16164326Y-9845674D01*
X16221468Y-9845674D01*
X16250040Y-9859960D01*
X16264326Y-9888532D01*
X16264326Y-9917103D01*
X16121468Y-9945674D01*
X16378611Y-10031389D02*
X16407183Y-10045674D01*
X16464326Y-10045674D01*
X16492897Y-10031389D01*
X16507183Y-10002817D01*
X16507183Y-9988532D01*
X16492897Y-9959960D01*
X16464326Y-9945674D01*
X16421468Y-9945674D01*
X16392897Y-9931389D01*
X16378611Y-9902817D01*
X16378611Y-9888532D01*
X16392897Y-9859960D01*
X16421468Y-9845674D01*
X16464326Y-9845674D01*
X16492897Y-9859960D01*
X16607183Y-10159960D02*
X16621468Y-10145674D01*
X16650040Y-10102817D01*
X16664326Y-10074246D01*
X16678611Y-10031389D01*
X16692897Y-9959960D01*
X16692897Y-9902817D01*
X16678611Y-9831389D01*
X16664326Y-9788532D01*
X16650040Y-9759960D01*
X16621468Y-9717103D01*
X16607183Y-9702817D01*
X9835040Y-10305960D02*
G75*
G03X9835040Y-10305960I-50000J0D01*
G01*
X10278611Y-10441674D02*
X10107183Y-10441674D01*
X10192897Y-10441674D02*
X10192897Y-10141674D01*
X10164326Y-10184532D01*
X10135754Y-10213103D01*
X10107183Y-10227389D01*
X10407183Y-10413103D02*
X10421468Y-10427389D01*
X10407183Y-10441674D01*
X10392897Y-10427389D01*
X10407183Y-10413103D01*
X10407183Y-10441674D01*
X10607183Y-10141674D02*
X10635754Y-10141674D01*
X10664326Y-10155960D01*
X10678611Y-10170246D01*
X10692897Y-10198817D01*
X10707183Y-10255960D01*
X10707183Y-10327389D01*
X10692897Y-10384532D01*
X10678611Y-10413103D01*
X10664326Y-10427389D01*
X10635754Y-10441674D01*
X10607183Y-10441674D01*
X10578611Y-10427389D01*
X10564326Y-10413103D01*
X10550040Y-10384532D01*
X10535754Y-10327389D01*
X10535754Y-10255960D01*
X10550040Y-10198817D01*
X10564326Y-10170246D01*
X10578611Y-10155960D01*
X10607183Y-10141674D01*
X10892897Y-10141674D02*
X10921468Y-10141674D01*
X10950040Y-10155960D01*
X10964326Y-10170246D01*
X10978611Y-10198817D01*
X10992897Y-10255960D01*
X10992897Y-10327389D01*
X10978611Y-10384532D01*
X10964326Y-10413103D01*
X10950040Y-10427389D01*
X10921468Y-10441674D01*
X10892897Y-10441674D01*
X10864326Y-10427389D01*
X10850040Y-10413103D01*
X10835754Y-10384532D01*
X10821468Y-10327389D01*
X10821468Y-10255960D01*
X10835754Y-10198817D01*
X10850040Y-10170246D01*
X10864326Y-10155960D01*
X10892897Y-10141674D01*
X11121468Y-10441674D02*
X11121468Y-10241674D01*
X11121468Y-10270246D02*
X11135754Y-10255960D01*
X11164326Y-10241674D01*
X11207183Y-10241674D01*
X11235754Y-10255960D01*
X11250040Y-10284532D01*
X11250040Y-10441674D01*
X11250040Y-10284532D02*
X11264326Y-10255960D01*
X11292897Y-10241674D01*
X11335754Y-10241674D01*
X11364326Y-10255960D01*
X11378611Y-10284532D01*
X11378611Y-10441674D01*
X11521468Y-10441674D02*
X11521468Y-10241674D01*
X11521468Y-10270246D02*
X11535754Y-10255960D01*
X11564326Y-10241674D01*
X11607183Y-10241674D01*
X11635754Y-10255960D01*
X11650040Y-10284532D01*
X11650040Y-10441674D01*
X11650040Y-10284532D02*
X11664326Y-10255960D01*
X11692897Y-10241674D01*
X11735754Y-10241674D01*
X11764326Y-10255960D01*
X11778611Y-10284532D01*
X11778611Y-10441674D01*
X12364326Y-10127389D02*
X12107183Y-10513103D01*
X12750040Y-10141674D02*
X12778611Y-10141674D01*
X12807183Y-10155960D01*
X12821468Y-10170246D01*
X12835754Y-10198817D01*
X12850040Y-10255960D01*
X12850040Y-10327389D01*
X12835754Y-10384532D01*
X12821468Y-10413103D01*
X12807183Y-10427389D01*
X12778611Y-10441674D01*
X12750040Y-10441674D01*
X12721468Y-10427389D01*
X12707183Y-10413103D01*
X12692897Y-10384532D01*
X12678611Y-10327389D01*
X12678611Y-10255960D01*
X12692897Y-10198817D01*
X12707183Y-10170246D01*
X12721468Y-10155960D01*
X12750040Y-10141674D01*
X12978611Y-10413103D02*
X12992897Y-10427389D01*
X12978611Y-10441674D01*
X12964326Y-10427389D01*
X12978611Y-10413103D01*
X12978611Y-10441674D01*
X13178611Y-10141674D02*
X13207183Y-10141674D01*
X13235754Y-10155960D01*
X13250040Y-10170246D01*
X13264326Y-10198817D01*
X13278611Y-10255960D01*
X13278611Y-10327389D01*
X13264326Y-10384532D01*
X13250040Y-10413103D01*
X13235754Y-10427389D01*
X13207183Y-10441674D01*
X13178611Y-10441674D01*
X13150040Y-10427389D01*
X13135754Y-10413103D01*
X13121468Y-10384532D01*
X13107183Y-10327389D01*
X13107183Y-10255960D01*
X13121468Y-10198817D01*
X13135754Y-10170246D01*
X13150040Y-10155960D01*
X13178611Y-10141674D01*
X13378611Y-10141674D02*
X13564326Y-10141674D01*
X13464326Y-10255960D01*
X13507183Y-10255960D01*
X13535754Y-10270246D01*
X13550040Y-10284532D01*
X13564326Y-10313103D01*
X13564326Y-10384532D01*
X13550040Y-10413103D01*
X13535754Y-10427389D01*
X13507183Y-10441674D01*
X13421468Y-10441674D01*
X13392897Y-10427389D01*
X13378611Y-10413103D01*
X13707183Y-10441674D02*
X13764326Y-10441674D01*
X13792897Y-10427389D01*
X13807183Y-10413103D01*
X13835754Y-10370246D01*
X13850040Y-10313103D01*
X13850040Y-10198817D01*
X13835754Y-10170246D01*
X13821468Y-10155960D01*
X13792897Y-10141674D01*
X13735754Y-10141674D01*
X13707183Y-10155960D01*
X13692897Y-10170246D01*
X13678611Y-10198817D01*
X13678611Y-10270246D01*
X13692897Y-10298817D01*
X13707183Y-10313103D01*
X13735754Y-10327389D01*
X13792897Y-10327389D01*
X13821468Y-10313103D01*
X13835754Y-10298817D01*
X13850040Y-10270246D01*
X13964326Y-10141674D02*
X13964326Y-10198817D01*
X14078611Y-10141674D02*
X14078611Y-10198817D01*
X14521468Y-10555960D02*
X14507183Y-10541674D01*
X14478611Y-10498817D01*
X14464326Y-10470246D01*
X14450040Y-10427389D01*
X14435754Y-10355960D01*
X14435754Y-10298817D01*
X14450040Y-10227389D01*
X14464326Y-10184532D01*
X14478611Y-10155960D01*
X14507183Y-10113103D01*
X14521468Y-10098817D01*
X14764326Y-10241674D02*
X14764326Y-10441674D01*
X14692897Y-10127389D02*
X14621468Y-10341674D01*
X14807183Y-10341674D01*
X14892897Y-10141674D02*
X15078611Y-10141674D01*
X14978611Y-10255960D01*
X15021468Y-10255960D01*
X15050040Y-10270246D01*
X15064326Y-10284532D01*
X15078611Y-10313103D01*
X15078611Y-10384532D01*
X15064326Y-10413103D01*
X15050040Y-10427389D01*
X15021468Y-10441674D01*
X14935754Y-10441674D01*
X14907183Y-10427389D01*
X14892897Y-10413103D01*
X15435754Y-10441674D02*
X15435754Y-10141674D01*
X15564326Y-10441674D02*
X15564326Y-10284532D01*
X15550040Y-10255960D01*
X15521468Y-10241674D01*
X15478611Y-10241674D01*
X15450040Y-10255960D01*
X15435754Y-10270246D01*
X15750040Y-10441674D02*
X15721468Y-10427389D01*
X15707183Y-10413103D01*
X15692897Y-10384532D01*
X15692897Y-10298817D01*
X15707183Y-10270246D01*
X15721468Y-10255960D01*
X15750040Y-10241674D01*
X15792897Y-10241674D01*
X15821468Y-10255960D01*
X15835754Y-10270246D01*
X15850040Y-10298817D01*
X15850040Y-10384532D01*
X15835754Y-10413103D01*
X15821468Y-10427389D01*
X15792897Y-10441674D01*
X15750040Y-10441674D01*
X16021468Y-10441674D02*
X15992897Y-10427389D01*
X15978611Y-10398817D01*
X15978611Y-10141674D01*
X16250040Y-10427389D02*
X16221468Y-10441674D01*
X16164326Y-10441674D01*
X16135754Y-10427389D01*
X16121468Y-10398817D01*
X16121468Y-10284532D01*
X16135754Y-10255960D01*
X16164326Y-10241674D01*
X16221468Y-10241674D01*
X16250040Y-10255960D01*
X16264326Y-10284532D01*
X16264326Y-10313103D01*
X16121468Y-10341674D01*
X16378611Y-10427389D02*
X16407183Y-10441674D01*
X16464326Y-10441674D01*
X16492897Y-10427389D01*
X16507183Y-10398817D01*
X16507183Y-10384532D01*
X16492897Y-10355960D01*
X16464326Y-10341674D01*
X16421468Y-10341674D01*
X16392897Y-10327389D01*
X16378611Y-10298817D01*
X16378611Y-10284532D01*
X16392897Y-10255960D01*
X16421468Y-10241674D01*
X16464326Y-10241674D01*
X16492897Y-10255960D01*
X16607183Y-10555960D02*
X16621468Y-10541674D01*
X16650040Y-10498817D01*
X16664326Y-10470246D01*
X16678611Y-10427389D01*
X16692897Y-10355960D01*
X16692897Y-10298817D01*
X16678611Y-10227389D01*
X16664326Y-10184532D01*
X16650040Y-10155960D01*
X16621468Y-10113103D01*
X16607183Y-10098817D01*
X9780040Y-10646960D02*
X9780040Y-10756960D01*
X9725040Y-10701960D02*
X9835040Y-10701960D01*
X10278611Y-10837674D02*
X10107183Y-10837674D01*
X10192897Y-10837674D02*
X10192897Y-10537674D01*
X10164326Y-10580532D01*
X10135754Y-10609103D01*
X10107183Y-10623389D01*
X10407183Y-10809103D02*
X10421468Y-10823389D01*
X10407183Y-10837674D01*
X10392897Y-10823389D01*
X10407183Y-10809103D01*
X10407183Y-10837674D01*
X10707183Y-10837674D02*
X10535754Y-10837674D01*
X10621468Y-10837674D02*
X10621468Y-10537674D01*
X10592897Y-10580532D01*
X10564326Y-10609103D01*
X10535754Y-10623389D01*
X10892897Y-10537674D02*
X10921468Y-10537674D01*
X10950040Y-10551960D01*
X10964326Y-10566246D01*
X10978611Y-10594817D01*
X10992897Y-10651960D01*
X10992897Y-10723389D01*
X10978611Y-10780532D01*
X10964326Y-10809103D01*
X10950040Y-10823389D01*
X10921468Y-10837674D01*
X10892897Y-10837674D01*
X10864326Y-10823389D01*
X10850040Y-10809103D01*
X10835754Y-10780532D01*
X10821468Y-10723389D01*
X10821468Y-10651960D01*
X10835754Y-10594817D01*
X10850040Y-10566246D01*
X10864326Y-10551960D01*
X10892897Y-10537674D01*
X11121468Y-10837674D02*
X11121468Y-10637674D01*
X11121468Y-10666246D02*
X11135754Y-10651960D01*
X11164326Y-10637674D01*
X11207183Y-10637674D01*
X11235754Y-10651960D01*
X11250040Y-10680532D01*
X11250040Y-10837674D01*
X11250040Y-10680532D02*
X11264326Y-10651960D01*
X11292897Y-10637674D01*
X11335754Y-10637674D01*
X11364326Y-10651960D01*
X11378611Y-10680532D01*
X11378611Y-10837674D01*
X11521468Y-10837674D02*
X11521468Y-10637674D01*
X11521468Y-10666246D02*
X11535754Y-10651960D01*
X11564326Y-10637674D01*
X11607183Y-10637674D01*
X11635754Y-10651960D01*
X11650040Y-10680532D01*
X11650040Y-10837674D01*
X11650040Y-10680532D02*
X11664326Y-10651960D01*
X11692897Y-10637674D01*
X11735754Y-10637674D01*
X11764326Y-10651960D01*
X11778611Y-10680532D01*
X11778611Y-10837674D01*
X12364326Y-10523389D02*
X12107183Y-10909103D01*
X12750040Y-10537674D02*
X12778611Y-10537674D01*
X12807183Y-10551960D01*
X12821468Y-10566246D01*
X12835754Y-10594817D01*
X12850040Y-10651960D01*
X12850040Y-10723389D01*
X12835754Y-10780532D01*
X12821468Y-10809103D01*
X12807183Y-10823389D01*
X12778611Y-10837674D01*
X12750040Y-10837674D01*
X12721468Y-10823389D01*
X12707183Y-10809103D01*
X12692897Y-10780532D01*
X12678611Y-10723389D01*
X12678611Y-10651960D01*
X12692897Y-10594817D01*
X12707183Y-10566246D01*
X12721468Y-10551960D01*
X12750040Y-10537674D01*
X12978611Y-10809103D02*
X12992897Y-10823389D01*
X12978611Y-10837674D01*
X12964326Y-10823389D01*
X12978611Y-10809103D01*
X12978611Y-10837674D01*
X13178611Y-10537674D02*
X13207183Y-10537674D01*
X13235754Y-10551960D01*
X13250040Y-10566246D01*
X13264326Y-10594817D01*
X13278611Y-10651960D01*
X13278611Y-10723389D01*
X13264326Y-10780532D01*
X13250040Y-10809103D01*
X13235754Y-10823389D01*
X13207183Y-10837674D01*
X13178611Y-10837674D01*
X13150040Y-10823389D01*
X13135754Y-10809103D01*
X13121468Y-10780532D01*
X13107183Y-10723389D01*
X13107183Y-10651960D01*
X13121468Y-10594817D01*
X13135754Y-10566246D01*
X13150040Y-10551960D01*
X13178611Y-10537674D01*
X13535754Y-10637674D02*
X13535754Y-10837674D01*
X13464326Y-10523389D02*
X13392897Y-10737674D01*
X13578611Y-10737674D01*
X13664326Y-10537674D02*
X13850040Y-10537674D01*
X13750040Y-10651960D01*
X13792897Y-10651960D01*
X13821468Y-10666246D01*
X13835754Y-10680532D01*
X13850040Y-10709103D01*
X13850040Y-10780532D01*
X13835754Y-10809103D01*
X13821468Y-10823389D01*
X13792897Y-10837674D01*
X13707183Y-10837674D01*
X13678611Y-10823389D01*
X13664326Y-10809103D01*
X13964326Y-10537674D02*
X13964326Y-10594817D01*
X14078611Y-10537674D02*
X14078611Y-10594817D01*
X14521468Y-10951960D02*
X14507183Y-10937674D01*
X14478611Y-10894817D01*
X14464326Y-10866246D01*
X14450040Y-10823389D01*
X14435754Y-10751960D01*
X14435754Y-10694817D01*
X14450040Y-10623389D01*
X14464326Y-10580532D01*
X14478611Y-10551960D01*
X14507183Y-10509103D01*
X14521468Y-10494817D01*
X14678611Y-10666246D02*
X14650040Y-10651960D01*
X14635754Y-10637674D01*
X14621468Y-10609103D01*
X14621468Y-10594817D01*
X14635754Y-10566246D01*
X14650040Y-10551960D01*
X14678611Y-10537674D01*
X14735754Y-10537674D01*
X14764326Y-10551960D01*
X14778611Y-10566246D01*
X14792897Y-10594817D01*
X14792897Y-10609103D01*
X14778611Y-10637674D01*
X14764326Y-10651960D01*
X14735754Y-10666246D01*
X14678611Y-10666246D01*
X14650040Y-10680532D01*
X14635754Y-10694817D01*
X14621468Y-10723389D01*
X14621468Y-10780532D01*
X14635754Y-10809103D01*
X14650040Y-10823389D01*
X14678611Y-10837674D01*
X14735754Y-10837674D01*
X14764326Y-10823389D01*
X14778611Y-10809103D01*
X14792897Y-10780532D01*
X14792897Y-10723389D01*
X14778611Y-10694817D01*
X14764326Y-10680532D01*
X14735754Y-10666246D01*
X15150040Y-10837674D02*
X15150040Y-10537674D01*
X15278611Y-10837674D02*
X15278611Y-10680532D01*
X15264326Y-10651960D01*
X15235754Y-10637674D01*
X15192897Y-10637674D01*
X15164326Y-10651960D01*
X15150040Y-10666246D01*
X15464326Y-10837674D02*
X15435754Y-10823389D01*
X15421468Y-10809103D01*
X15407183Y-10780532D01*
X15407183Y-10694817D01*
X15421468Y-10666246D01*
X15435754Y-10651960D01*
X15464326Y-10637674D01*
X15507183Y-10637674D01*
X15535754Y-10651960D01*
X15550040Y-10666246D01*
X15564326Y-10694817D01*
X15564326Y-10780532D01*
X15550040Y-10809103D01*
X15535754Y-10823389D01*
X15507183Y-10837674D01*
X15464326Y-10837674D01*
X15735754Y-10837674D02*
X15707183Y-10823389D01*
X15692897Y-10794817D01*
X15692897Y-10537674D01*
X15964326Y-10823389D02*
X15935754Y-10837674D01*
X15878611Y-10837674D01*
X15850040Y-10823389D01*
X15835754Y-10794817D01*
X15835754Y-10680532D01*
X15850040Y-10651960D01*
X15878611Y-10637674D01*
X15935754Y-10637674D01*
X15964326Y-10651960D01*
X15978611Y-10680532D01*
X15978611Y-10709103D01*
X15835754Y-10737674D01*
X16092897Y-10823389D02*
X16121468Y-10837674D01*
X16178611Y-10837674D01*
X16207183Y-10823389D01*
X16221468Y-10794817D01*
X16221468Y-10780532D01*
X16207183Y-10751960D01*
X16178611Y-10737674D01*
X16135754Y-10737674D01*
X16107183Y-10723389D01*
X16092897Y-10694817D01*
X16092897Y-10680532D01*
X16107183Y-10651960D01*
X16135754Y-10637674D01*
X16178611Y-10637674D01*
X16207183Y-10651960D01*
X16321468Y-10951960D02*
X16335754Y-10937674D01*
X16364326Y-10894817D01*
X16378611Y-10866246D01*
X16392897Y-10823389D01*
X16407183Y-10751960D01*
X16407183Y-10694817D01*
X16392897Y-10623389D01*
X16378611Y-10580532D01*
X16364326Y-10551960D01*
X16335754Y-10509103D01*
X16321468Y-10494817D01*
X9817467Y-11140387D02*
X9817467Y-11055533D01*
X9732613Y-11055533D01*
X9732613Y-11140387D01*
X9817467Y-11140387D01*
X10278611Y-11233674D02*
X10107183Y-11233674D01*
X10192897Y-11233674D02*
X10192897Y-10933674D01*
X10164326Y-10976532D01*
X10135754Y-11005103D01*
X10107183Y-11019389D01*
X10407183Y-11205103D02*
X10421468Y-11219389D01*
X10407183Y-11233674D01*
X10392897Y-11219389D01*
X10407183Y-11205103D01*
X10407183Y-11233674D01*
X10535754Y-10962246D02*
X10550040Y-10947960D01*
X10578611Y-10933674D01*
X10650040Y-10933674D01*
X10678611Y-10947960D01*
X10692897Y-10962246D01*
X10707183Y-10990817D01*
X10707183Y-11019389D01*
X10692897Y-11062246D01*
X10521468Y-11233674D01*
X10707183Y-11233674D01*
X10892897Y-10933674D02*
X10921468Y-10933674D01*
X10950040Y-10947960D01*
X10964326Y-10962246D01*
X10978611Y-10990817D01*
X10992897Y-11047960D01*
X10992897Y-11119389D01*
X10978611Y-11176532D01*
X10964326Y-11205103D01*
X10950040Y-11219389D01*
X10921468Y-11233674D01*
X10892897Y-11233674D01*
X10864326Y-11219389D01*
X10850040Y-11205103D01*
X10835754Y-11176532D01*
X10821468Y-11119389D01*
X10821468Y-11047960D01*
X10835754Y-10990817D01*
X10850040Y-10962246D01*
X10864326Y-10947960D01*
X10892897Y-10933674D01*
X11121468Y-11233674D02*
X11121468Y-11033674D01*
X11121468Y-11062246D02*
X11135754Y-11047960D01*
X11164326Y-11033674D01*
X11207183Y-11033674D01*
X11235754Y-11047960D01*
X11250040Y-11076532D01*
X11250040Y-11233674D01*
X11250040Y-11076532D02*
X11264326Y-11047960D01*
X11292897Y-11033674D01*
X11335754Y-11033674D01*
X11364326Y-11047960D01*
X11378611Y-11076532D01*
X11378611Y-11233674D01*
X11521468Y-11233674D02*
X11521468Y-11033674D01*
X11521468Y-11062246D02*
X11535754Y-11047960D01*
X11564326Y-11033674D01*
X11607183Y-11033674D01*
X11635754Y-11047960D01*
X11650040Y-11076532D01*
X11650040Y-11233674D01*
X11650040Y-11076532D02*
X11664326Y-11047960D01*
X11692897Y-11033674D01*
X11735754Y-11033674D01*
X11764326Y-11047960D01*
X11778611Y-11076532D01*
X11778611Y-11233674D01*
X12364326Y-10919389D02*
X12107183Y-11305103D01*
X12750040Y-10933674D02*
X12778611Y-10933674D01*
X12807183Y-10947960D01*
X12821468Y-10962246D01*
X12835754Y-10990817D01*
X12850040Y-11047960D01*
X12850040Y-11119389D01*
X12835754Y-11176532D01*
X12821468Y-11205103D01*
X12807183Y-11219389D01*
X12778611Y-11233674D01*
X12750040Y-11233674D01*
X12721468Y-11219389D01*
X12707183Y-11205103D01*
X12692897Y-11176532D01*
X12678611Y-11119389D01*
X12678611Y-11047960D01*
X12692897Y-10990817D01*
X12707183Y-10962246D01*
X12721468Y-10947960D01*
X12750040Y-10933674D01*
X12978611Y-11205103D02*
X12992897Y-11219389D01*
X12978611Y-11233674D01*
X12964326Y-11219389D01*
X12978611Y-11205103D01*
X12978611Y-11233674D01*
X13178611Y-10933674D02*
X13207183Y-10933674D01*
X13235754Y-10947960D01*
X13250040Y-10962246D01*
X13264326Y-10990817D01*
X13278611Y-11047960D01*
X13278611Y-11119389D01*
X13264326Y-11176532D01*
X13250040Y-11205103D01*
X13235754Y-11219389D01*
X13207183Y-11233674D01*
X13178611Y-11233674D01*
X13150040Y-11219389D01*
X13135754Y-11205103D01*
X13121468Y-11176532D01*
X13107183Y-11119389D01*
X13107183Y-11047960D01*
X13121468Y-10990817D01*
X13135754Y-10962246D01*
X13150040Y-10947960D01*
X13178611Y-10933674D01*
X13535754Y-11033674D02*
X13535754Y-11233674D01*
X13464326Y-10919389D02*
X13392897Y-11133674D01*
X13578611Y-11133674D01*
X13664326Y-10933674D02*
X13864326Y-10933674D01*
X13735754Y-11233674D01*
X13964326Y-10933674D02*
X13964326Y-10990817D01*
X14078611Y-10933674D02*
X14078611Y-10990817D01*
X14521468Y-11347960D02*
X14507183Y-11333674D01*
X14478611Y-11290817D01*
X14464326Y-11262246D01*
X14450040Y-11219389D01*
X14435754Y-11147960D01*
X14435754Y-11090817D01*
X14450040Y-11019389D01*
X14464326Y-10976532D01*
X14478611Y-10947960D01*
X14507183Y-10905103D01*
X14521468Y-10890817D01*
X14621468Y-10962246D02*
X14635754Y-10947960D01*
X14664326Y-10933674D01*
X14735754Y-10933674D01*
X14764326Y-10947960D01*
X14778611Y-10962246D01*
X14792897Y-10990817D01*
X14792897Y-11019389D01*
X14778611Y-11062246D01*
X14607183Y-11233674D01*
X14792897Y-11233674D01*
X15150040Y-11233674D02*
X15150040Y-10933674D01*
X15278611Y-11233674D02*
X15278611Y-11076532D01*
X15264326Y-11047960D01*
X15235754Y-11033674D01*
X15192897Y-11033674D01*
X15164326Y-11047960D01*
X15150040Y-11062246D01*
X15464326Y-11233674D02*
X15435754Y-11219389D01*
X15421468Y-11205103D01*
X15407183Y-11176532D01*
X15407183Y-11090817D01*
X15421468Y-11062246D01*
X15435754Y-11047960D01*
X15464326Y-11033674D01*
X15507183Y-11033674D01*
X15535754Y-11047960D01*
X15550040Y-11062246D01*
X15564326Y-11090817D01*
X15564326Y-11176532D01*
X15550040Y-11205103D01*
X15535754Y-11219389D01*
X15507183Y-11233674D01*
X15464326Y-11233674D01*
X15735754Y-11233674D02*
X15707183Y-11219389D01*
X15692897Y-11190817D01*
X15692897Y-10933674D01*
X15964326Y-11219389D02*
X15935754Y-11233674D01*
X15878611Y-11233674D01*
X15850040Y-11219389D01*
X15835754Y-11190817D01*
X15835754Y-11076532D01*
X15850040Y-11047960D01*
X15878611Y-11033674D01*
X15935754Y-11033674D01*
X15964326Y-11047960D01*
X15978611Y-11076532D01*
X15978611Y-11105103D01*
X15835754Y-11133674D01*
X16092897Y-11219389D02*
X16121468Y-11233674D01*
X16178611Y-11233674D01*
X16207183Y-11219389D01*
X16221468Y-11190817D01*
X16221468Y-11176532D01*
X16207183Y-11147960D01*
X16178611Y-11133674D01*
X16135754Y-11133674D01*
X16107183Y-11119389D01*
X16092897Y-11090817D01*
X16092897Y-11076532D01*
X16107183Y-11047960D01*
X16135754Y-11033674D01*
X16178611Y-11033674D01*
X16207183Y-11047960D01*
X16321468Y-11347960D02*
X16335754Y-11333674D01*
X16364326Y-11290817D01*
X16378611Y-11262246D01*
X16392897Y-11219389D01*
X16407183Y-11147960D01*
X16407183Y-11090817D01*
X16392897Y-11019389D01*
X16378611Y-10976532D01*
X16364326Y-10947960D01*
X16335754Y-10905103D01*
X16321468Y-10890817D01*
M02*
