G04 #@! TF.GenerationSoftware,KiCad,Pcbnew,5.0.2+dfsg1-1*
G04 #@! TF.CreationDate,2021-01-08T16:21:55+01:00*
G04 #@! TF.ProjectId,TTGO_weatherboard,5454474f-5f77-4656-9174-686572626f61,rev?*
G04 #@! TF.SameCoordinates,Original*
G04 #@! TF.FileFunction,Paste,Bot*
G04 #@! TF.FilePolarity,Positive*
%FSLAX46Y46*%
G04 Gerber Fmt 4.6, Leading zero omitted, Abs format (unit mm)*
G04 Created by KiCad (PCBNEW 5.0.2+dfsg1-1) date Fr 08 Jan 2021 16:21:55 CET*
%MOMM*%
%LPD*%
G01*
G04 APERTURE LIST*
%ADD10C,0.100000*%
%ADD11C,1.150000*%
%ADD12R,1.200000X0.900000*%
%ADD13R,2.200000X2.800000*%
%ADD14R,2.800000X2.800000*%
%ADD15C,1.425000*%
%ADD16R,0.610000X0.180000*%
%ADD17R,0.180000X0.610000*%
%ADD18R,1.500000X0.800000*%
G04 APERTURE END LIST*
D10*
G04 #@! TO.C,C3*
G36*
X122472705Y-68998804D02*
X122496973Y-69002404D01*
X122520772Y-69008365D01*
X122543871Y-69016630D01*
X122566050Y-69027120D01*
X122587093Y-69039732D01*
X122606799Y-69054347D01*
X122624977Y-69070823D01*
X122641453Y-69089001D01*
X122656068Y-69108707D01*
X122668680Y-69129750D01*
X122679170Y-69151929D01*
X122687435Y-69175028D01*
X122693396Y-69198827D01*
X122696996Y-69223095D01*
X122698200Y-69247599D01*
X122698200Y-70147601D01*
X122696996Y-70172105D01*
X122693396Y-70196373D01*
X122687435Y-70220172D01*
X122679170Y-70243271D01*
X122668680Y-70265450D01*
X122656068Y-70286493D01*
X122641453Y-70306199D01*
X122624977Y-70324377D01*
X122606799Y-70340853D01*
X122587093Y-70355468D01*
X122566050Y-70368080D01*
X122543871Y-70378570D01*
X122520772Y-70386835D01*
X122496973Y-70392796D01*
X122472705Y-70396396D01*
X122448201Y-70397600D01*
X121798199Y-70397600D01*
X121773695Y-70396396D01*
X121749427Y-70392796D01*
X121725628Y-70386835D01*
X121702529Y-70378570D01*
X121680350Y-70368080D01*
X121659307Y-70355468D01*
X121639601Y-70340853D01*
X121621423Y-70324377D01*
X121604947Y-70306199D01*
X121590332Y-70286493D01*
X121577720Y-70265450D01*
X121567230Y-70243271D01*
X121558965Y-70220172D01*
X121553004Y-70196373D01*
X121549404Y-70172105D01*
X121548200Y-70147601D01*
X121548200Y-69247599D01*
X121549404Y-69223095D01*
X121553004Y-69198827D01*
X121558965Y-69175028D01*
X121567230Y-69151929D01*
X121577720Y-69129750D01*
X121590332Y-69108707D01*
X121604947Y-69089001D01*
X121621423Y-69070823D01*
X121639601Y-69054347D01*
X121659307Y-69039732D01*
X121680350Y-69027120D01*
X121702529Y-69016630D01*
X121725628Y-69008365D01*
X121749427Y-69002404D01*
X121773695Y-68998804D01*
X121798199Y-68997600D01*
X122448201Y-68997600D01*
X122472705Y-68998804D01*
X122472705Y-68998804D01*
G37*
D11*
X122123200Y-69697600D03*
D10*
G36*
X120422705Y-68998804D02*
X120446973Y-69002404D01*
X120470772Y-69008365D01*
X120493871Y-69016630D01*
X120516050Y-69027120D01*
X120537093Y-69039732D01*
X120556799Y-69054347D01*
X120574977Y-69070823D01*
X120591453Y-69089001D01*
X120606068Y-69108707D01*
X120618680Y-69129750D01*
X120629170Y-69151929D01*
X120637435Y-69175028D01*
X120643396Y-69198827D01*
X120646996Y-69223095D01*
X120648200Y-69247599D01*
X120648200Y-70147601D01*
X120646996Y-70172105D01*
X120643396Y-70196373D01*
X120637435Y-70220172D01*
X120629170Y-70243271D01*
X120618680Y-70265450D01*
X120606068Y-70286493D01*
X120591453Y-70306199D01*
X120574977Y-70324377D01*
X120556799Y-70340853D01*
X120537093Y-70355468D01*
X120516050Y-70368080D01*
X120493871Y-70378570D01*
X120470772Y-70386835D01*
X120446973Y-70392796D01*
X120422705Y-70396396D01*
X120398201Y-70397600D01*
X119748199Y-70397600D01*
X119723695Y-70396396D01*
X119699427Y-70392796D01*
X119675628Y-70386835D01*
X119652529Y-70378570D01*
X119630350Y-70368080D01*
X119609307Y-70355468D01*
X119589601Y-70340853D01*
X119571423Y-70324377D01*
X119554947Y-70306199D01*
X119540332Y-70286493D01*
X119527720Y-70265450D01*
X119517230Y-70243271D01*
X119508965Y-70220172D01*
X119503004Y-70196373D01*
X119499404Y-70172105D01*
X119498200Y-70147601D01*
X119498200Y-69247599D01*
X119499404Y-69223095D01*
X119503004Y-69198827D01*
X119508965Y-69175028D01*
X119517230Y-69151929D01*
X119527720Y-69129750D01*
X119540332Y-69108707D01*
X119554947Y-69089001D01*
X119571423Y-69070823D01*
X119589601Y-69054347D01*
X119609307Y-69039732D01*
X119630350Y-69027120D01*
X119652529Y-69016630D01*
X119675628Y-69008365D01*
X119699427Y-69002404D01*
X119723695Y-68998804D01*
X119748199Y-68997600D01*
X120398201Y-68997600D01*
X120422705Y-68998804D01*
X120422705Y-68998804D01*
G37*
D11*
X120073200Y-69697600D03*
G04 #@! TD*
D10*
G04 #@! TO.C,C4*
G36*
X114192305Y-63512404D02*
X114216573Y-63516004D01*
X114240372Y-63521965D01*
X114263471Y-63530230D01*
X114285650Y-63540720D01*
X114306693Y-63553332D01*
X114326399Y-63567947D01*
X114344577Y-63584423D01*
X114361053Y-63602601D01*
X114375668Y-63622307D01*
X114388280Y-63643350D01*
X114398770Y-63665529D01*
X114407035Y-63688628D01*
X114412996Y-63712427D01*
X114416596Y-63736695D01*
X114417800Y-63761199D01*
X114417800Y-64661201D01*
X114416596Y-64685705D01*
X114412996Y-64709973D01*
X114407035Y-64733772D01*
X114398770Y-64756871D01*
X114388280Y-64779050D01*
X114375668Y-64800093D01*
X114361053Y-64819799D01*
X114344577Y-64837977D01*
X114326399Y-64854453D01*
X114306693Y-64869068D01*
X114285650Y-64881680D01*
X114263471Y-64892170D01*
X114240372Y-64900435D01*
X114216573Y-64906396D01*
X114192305Y-64909996D01*
X114167801Y-64911200D01*
X113517799Y-64911200D01*
X113493295Y-64909996D01*
X113469027Y-64906396D01*
X113445228Y-64900435D01*
X113422129Y-64892170D01*
X113399950Y-64881680D01*
X113378907Y-64869068D01*
X113359201Y-64854453D01*
X113341023Y-64837977D01*
X113324547Y-64819799D01*
X113309932Y-64800093D01*
X113297320Y-64779050D01*
X113286830Y-64756871D01*
X113278565Y-64733772D01*
X113272604Y-64709973D01*
X113269004Y-64685705D01*
X113267800Y-64661201D01*
X113267800Y-63761199D01*
X113269004Y-63736695D01*
X113272604Y-63712427D01*
X113278565Y-63688628D01*
X113286830Y-63665529D01*
X113297320Y-63643350D01*
X113309932Y-63622307D01*
X113324547Y-63602601D01*
X113341023Y-63584423D01*
X113359201Y-63567947D01*
X113378907Y-63553332D01*
X113399950Y-63540720D01*
X113422129Y-63530230D01*
X113445228Y-63521965D01*
X113469027Y-63516004D01*
X113493295Y-63512404D01*
X113517799Y-63511200D01*
X114167801Y-63511200D01*
X114192305Y-63512404D01*
X114192305Y-63512404D01*
G37*
D11*
X113842800Y-64211200D03*
D10*
G36*
X116242305Y-63512404D02*
X116266573Y-63516004D01*
X116290372Y-63521965D01*
X116313471Y-63530230D01*
X116335650Y-63540720D01*
X116356693Y-63553332D01*
X116376399Y-63567947D01*
X116394577Y-63584423D01*
X116411053Y-63602601D01*
X116425668Y-63622307D01*
X116438280Y-63643350D01*
X116448770Y-63665529D01*
X116457035Y-63688628D01*
X116462996Y-63712427D01*
X116466596Y-63736695D01*
X116467800Y-63761199D01*
X116467800Y-64661201D01*
X116466596Y-64685705D01*
X116462996Y-64709973D01*
X116457035Y-64733772D01*
X116448770Y-64756871D01*
X116438280Y-64779050D01*
X116425668Y-64800093D01*
X116411053Y-64819799D01*
X116394577Y-64837977D01*
X116376399Y-64854453D01*
X116356693Y-64869068D01*
X116335650Y-64881680D01*
X116313471Y-64892170D01*
X116290372Y-64900435D01*
X116266573Y-64906396D01*
X116242305Y-64909996D01*
X116217801Y-64911200D01*
X115567799Y-64911200D01*
X115543295Y-64909996D01*
X115519027Y-64906396D01*
X115495228Y-64900435D01*
X115472129Y-64892170D01*
X115449950Y-64881680D01*
X115428907Y-64869068D01*
X115409201Y-64854453D01*
X115391023Y-64837977D01*
X115374547Y-64819799D01*
X115359932Y-64800093D01*
X115347320Y-64779050D01*
X115336830Y-64756871D01*
X115328565Y-64733772D01*
X115322604Y-64709973D01*
X115319004Y-64685705D01*
X115317800Y-64661201D01*
X115317800Y-63761199D01*
X115319004Y-63736695D01*
X115322604Y-63712427D01*
X115328565Y-63688628D01*
X115336830Y-63665529D01*
X115347320Y-63643350D01*
X115359932Y-63622307D01*
X115374547Y-63602601D01*
X115391023Y-63584423D01*
X115409201Y-63567947D01*
X115428907Y-63553332D01*
X115449950Y-63540720D01*
X115472129Y-63530230D01*
X115495228Y-63521965D01*
X115519027Y-63516004D01*
X115543295Y-63512404D01*
X115567799Y-63511200D01*
X116217801Y-63511200D01*
X116242305Y-63512404D01*
X116242305Y-63512404D01*
G37*
D11*
X115892800Y-64211200D03*
G04 #@! TD*
D10*
G04 #@! TO.C,C5*
G36*
X134281705Y-70597004D02*
X134305973Y-70600604D01*
X134329772Y-70606565D01*
X134352871Y-70614830D01*
X134375050Y-70625320D01*
X134396093Y-70637932D01*
X134415799Y-70652547D01*
X134433977Y-70669023D01*
X134450453Y-70687201D01*
X134465068Y-70706907D01*
X134477680Y-70727950D01*
X134488170Y-70750129D01*
X134496435Y-70773228D01*
X134502396Y-70797027D01*
X134505996Y-70821295D01*
X134507200Y-70845799D01*
X134507200Y-71495801D01*
X134505996Y-71520305D01*
X134502396Y-71544573D01*
X134496435Y-71568372D01*
X134488170Y-71591471D01*
X134477680Y-71613650D01*
X134465068Y-71634693D01*
X134450453Y-71654399D01*
X134433977Y-71672577D01*
X134415799Y-71689053D01*
X134396093Y-71703668D01*
X134375050Y-71716280D01*
X134352871Y-71726770D01*
X134329772Y-71735035D01*
X134305973Y-71740996D01*
X134281705Y-71744596D01*
X134257201Y-71745800D01*
X133357199Y-71745800D01*
X133332695Y-71744596D01*
X133308427Y-71740996D01*
X133284628Y-71735035D01*
X133261529Y-71726770D01*
X133239350Y-71716280D01*
X133218307Y-71703668D01*
X133198601Y-71689053D01*
X133180423Y-71672577D01*
X133163947Y-71654399D01*
X133149332Y-71634693D01*
X133136720Y-71613650D01*
X133126230Y-71591471D01*
X133117965Y-71568372D01*
X133112004Y-71544573D01*
X133108404Y-71520305D01*
X133107200Y-71495801D01*
X133107200Y-70845799D01*
X133108404Y-70821295D01*
X133112004Y-70797027D01*
X133117965Y-70773228D01*
X133126230Y-70750129D01*
X133136720Y-70727950D01*
X133149332Y-70706907D01*
X133163947Y-70687201D01*
X133180423Y-70669023D01*
X133198601Y-70652547D01*
X133218307Y-70637932D01*
X133239350Y-70625320D01*
X133261529Y-70614830D01*
X133284628Y-70606565D01*
X133308427Y-70600604D01*
X133332695Y-70597004D01*
X133357199Y-70595800D01*
X134257201Y-70595800D01*
X134281705Y-70597004D01*
X134281705Y-70597004D01*
G37*
D11*
X133807200Y-71170800D03*
D10*
G36*
X134281705Y-68547004D02*
X134305973Y-68550604D01*
X134329772Y-68556565D01*
X134352871Y-68564830D01*
X134375050Y-68575320D01*
X134396093Y-68587932D01*
X134415799Y-68602547D01*
X134433977Y-68619023D01*
X134450453Y-68637201D01*
X134465068Y-68656907D01*
X134477680Y-68677950D01*
X134488170Y-68700129D01*
X134496435Y-68723228D01*
X134502396Y-68747027D01*
X134505996Y-68771295D01*
X134507200Y-68795799D01*
X134507200Y-69445801D01*
X134505996Y-69470305D01*
X134502396Y-69494573D01*
X134496435Y-69518372D01*
X134488170Y-69541471D01*
X134477680Y-69563650D01*
X134465068Y-69584693D01*
X134450453Y-69604399D01*
X134433977Y-69622577D01*
X134415799Y-69639053D01*
X134396093Y-69653668D01*
X134375050Y-69666280D01*
X134352871Y-69676770D01*
X134329772Y-69685035D01*
X134305973Y-69690996D01*
X134281705Y-69694596D01*
X134257201Y-69695800D01*
X133357199Y-69695800D01*
X133332695Y-69694596D01*
X133308427Y-69690996D01*
X133284628Y-69685035D01*
X133261529Y-69676770D01*
X133239350Y-69666280D01*
X133218307Y-69653668D01*
X133198601Y-69639053D01*
X133180423Y-69622577D01*
X133163947Y-69604399D01*
X133149332Y-69584693D01*
X133136720Y-69563650D01*
X133126230Y-69541471D01*
X133117965Y-69518372D01*
X133112004Y-69494573D01*
X133108404Y-69470305D01*
X133107200Y-69445801D01*
X133107200Y-68795799D01*
X133108404Y-68771295D01*
X133112004Y-68747027D01*
X133117965Y-68723228D01*
X133126230Y-68700129D01*
X133136720Y-68677950D01*
X133149332Y-68656907D01*
X133163947Y-68637201D01*
X133180423Y-68619023D01*
X133198601Y-68602547D01*
X133218307Y-68587932D01*
X133239350Y-68575320D01*
X133261529Y-68564830D01*
X133284628Y-68556565D01*
X133308427Y-68550604D01*
X133332695Y-68547004D01*
X133357199Y-68545800D01*
X134257201Y-68545800D01*
X134281705Y-68547004D01*
X134281705Y-68547004D01*
G37*
D11*
X133807200Y-69120800D03*
G04 #@! TD*
D10*
G04 #@! TO.C,C6*
G36*
X128947705Y-67327804D02*
X128971973Y-67331404D01*
X128995772Y-67337365D01*
X129018871Y-67345630D01*
X129041050Y-67356120D01*
X129062093Y-67368732D01*
X129081799Y-67383347D01*
X129099977Y-67399823D01*
X129116453Y-67418001D01*
X129131068Y-67437707D01*
X129143680Y-67458750D01*
X129154170Y-67480929D01*
X129162435Y-67504028D01*
X129168396Y-67527827D01*
X129171996Y-67552095D01*
X129173200Y-67576599D01*
X129173200Y-68226601D01*
X129171996Y-68251105D01*
X129168396Y-68275373D01*
X129162435Y-68299172D01*
X129154170Y-68322271D01*
X129143680Y-68344450D01*
X129131068Y-68365493D01*
X129116453Y-68385199D01*
X129099977Y-68403377D01*
X129081799Y-68419853D01*
X129062093Y-68434468D01*
X129041050Y-68447080D01*
X129018871Y-68457570D01*
X128995772Y-68465835D01*
X128971973Y-68471796D01*
X128947705Y-68475396D01*
X128923201Y-68476600D01*
X128023199Y-68476600D01*
X127998695Y-68475396D01*
X127974427Y-68471796D01*
X127950628Y-68465835D01*
X127927529Y-68457570D01*
X127905350Y-68447080D01*
X127884307Y-68434468D01*
X127864601Y-68419853D01*
X127846423Y-68403377D01*
X127829947Y-68385199D01*
X127815332Y-68365493D01*
X127802720Y-68344450D01*
X127792230Y-68322271D01*
X127783965Y-68299172D01*
X127778004Y-68275373D01*
X127774404Y-68251105D01*
X127773200Y-68226601D01*
X127773200Y-67576599D01*
X127774404Y-67552095D01*
X127778004Y-67527827D01*
X127783965Y-67504028D01*
X127792230Y-67480929D01*
X127802720Y-67458750D01*
X127815332Y-67437707D01*
X127829947Y-67418001D01*
X127846423Y-67399823D01*
X127864601Y-67383347D01*
X127884307Y-67368732D01*
X127905350Y-67356120D01*
X127927529Y-67345630D01*
X127950628Y-67337365D01*
X127974427Y-67331404D01*
X127998695Y-67327804D01*
X128023199Y-67326600D01*
X128923201Y-67326600D01*
X128947705Y-67327804D01*
X128947705Y-67327804D01*
G37*
D11*
X128473200Y-67901600D03*
D10*
G36*
X128947705Y-69377804D02*
X128971973Y-69381404D01*
X128995772Y-69387365D01*
X129018871Y-69395630D01*
X129041050Y-69406120D01*
X129062093Y-69418732D01*
X129081799Y-69433347D01*
X129099977Y-69449823D01*
X129116453Y-69468001D01*
X129131068Y-69487707D01*
X129143680Y-69508750D01*
X129154170Y-69530929D01*
X129162435Y-69554028D01*
X129168396Y-69577827D01*
X129171996Y-69602095D01*
X129173200Y-69626599D01*
X129173200Y-70276601D01*
X129171996Y-70301105D01*
X129168396Y-70325373D01*
X129162435Y-70349172D01*
X129154170Y-70372271D01*
X129143680Y-70394450D01*
X129131068Y-70415493D01*
X129116453Y-70435199D01*
X129099977Y-70453377D01*
X129081799Y-70469853D01*
X129062093Y-70484468D01*
X129041050Y-70497080D01*
X129018871Y-70507570D01*
X128995772Y-70515835D01*
X128971973Y-70521796D01*
X128947705Y-70525396D01*
X128923201Y-70526600D01*
X128023199Y-70526600D01*
X127998695Y-70525396D01*
X127974427Y-70521796D01*
X127950628Y-70515835D01*
X127927529Y-70507570D01*
X127905350Y-70497080D01*
X127884307Y-70484468D01*
X127864601Y-70469853D01*
X127846423Y-70453377D01*
X127829947Y-70435199D01*
X127815332Y-70415493D01*
X127802720Y-70394450D01*
X127792230Y-70372271D01*
X127783965Y-70349172D01*
X127778004Y-70325373D01*
X127774404Y-70301105D01*
X127773200Y-70276601D01*
X127773200Y-69626599D01*
X127774404Y-69602095D01*
X127778004Y-69577827D01*
X127783965Y-69554028D01*
X127792230Y-69530929D01*
X127802720Y-69508750D01*
X127815332Y-69487707D01*
X127829947Y-69468001D01*
X127846423Y-69449823D01*
X127864601Y-69433347D01*
X127884307Y-69418732D01*
X127905350Y-69406120D01*
X127927529Y-69395630D01*
X127950628Y-69387365D01*
X127974427Y-69381404D01*
X127998695Y-69377804D01*
X128023199Y-69376600D01*
X128923201Y-69376600D01*
X128947705Y-69377804D01*
X128947705Y-69377804D01*
G37*
D11*
X128473200Y-69951600D03*
G04 #@! TD*
D10*
G04 #@! TO.C,C7*
G36*
X114977705Y-76540604D02*
X115001973Y-76544204D01*
X115025772Y-76550165D01*
X115048871Y-76558430D01*
X115071050Y-76568920D01*
X115092093Y-76581532D01*
X115111799Y-76596147D01*
X115129977Y-76612623D01*
X115146453Y-76630801D01*
X115161068Y-76650507D01*
X115173680Y-76671550D01*
X115184170Y-76693729D01*
X115192435Y-76716828D01*
X115198396Y-76740627D01*
X115201996Y-76764895D01*
X115203200Y-76789399D01*
X115203200Y-77439401D01*
X115201996Y-77463905D01*
X115198396Y-77488173D01*
X115192435Y-77511972D01*
X115184170Y-77535071D01*
X115173680Y-77557250D01*
X115161068Y-77578293D01*
X115146453Y-77597999D01*
X115129977Y-77616177D01*
X115111799Y-77632653D01*
X115092093Y-77647268D01*
X115071050Y-77659880D01*
X115048871Y-77670370D01*
X115025772Y-77678635D01*
X115001973Y-77684596D01*
X114977705Y-77688196D01*
X114953201Y-77689400D01*
X114053199Y-77689400D01*
X114028695Y-77688196D01*
X114004427Y-77684596D01*
X113980628Y-77678635D01*
X113957529Y-77670370D01*
X113935350Y-77659880D01*
X113914307Y-77647268D01*
X113894601Y-77632653D01*
X113876423Y-77616177D01*
X113859947Y-77597999D01*
X113845332Y-77578293D01*
X113832720Y-77557250D01*
X113822230Y-77535071D01*
X113813965Y-77511972D01*
X113808004Y-77488173D01*
X113804404Y-77463905D01*
X113803200Y-77439401D01*
X113803200Y-76789399D01*
X113804404Y-76764895D01*
X113808004Y-76740627D01*
X113813965Y-76716828D01*
X113822230Y-76693729D01*
X113832720Y-76671550D01*
X113845332Y-76650507D01*
X113859947Y-76630801D01*
X113876423Y-76612623D01*
X113894601Y-76596147D01*
X113914307Y-76581532D01*
X113935350Y-76568920D01*
X113957529Y-76558430D01*
X113980628Y-76550165D01*
X114004427Y-76544204D01*
X114028695Y-76540604D01*
X114053199Y-76539400D01*
X114953201Y-76539400D01*
X114977705Y-76540604D01*
X114977705Y-76540604D01*
G37*
D11*
X114503200Y-77114400D03*
D10*
G36*
X114977705Y-78590604D02*
X115001973Y-78594204D01*
X115025772Y-78600165D01*
X115048871Y-78608430D01*
X115071050Y-78618920D01*
X115092093Y-78631532D01*
X115111799Y-78646147D01*
X115129977Y-78662623D01*
X115146453Y-78680801D01*
X115161068Y-78700507D01*
X115173680Y-78721550D01*
X115184170Y-78743729D01*
X115192435Y-78766828D01*
X115198396Y-78790627D01*
X115201996Y-78814895D01*
X115203200Y-78839399D01*
X115203200Y-79489401D01*
X115201996Y-79513905D01*
X115198396Y-79538173D01*
X115192435Y-79561972D01*
X115184170Y-79585071D01*
X115173680Y-79607250D01*
X115161068Y-79628293D01*
X115146453Y-79647999D01*
X115129977Y-79666177D01*
X115111799Y-79682653D01*
X115092093Y-79697268D01*
X115071050Y-79709880D01*
X115048871Y-79720370D01*
X115025772Y-79728635D01*
X115001973Y-79734596D01*
X114977705Y-79738196D01*
X114953201Y-79739400D01*
X114053199Y-79739400D01*
X114028695Y-79738196D01*
X114004427Y-79734596D01*
X113980628Y-79728635D01*
X113957529Y-79720370D01*
X113935350Y-79709880D01*
X113914307Y-79697268D01*
X113894601Y-79682653D01*
X113876423Y-79666177D01*
X113859947Y-79647999D01*
X113845332Y-79628293D01*
X113832720Y-79607250D01*
X113822230Y-79585071D01*
X113813965Y-79561972D01*
X113808004Y-79538173D01*
X113804404Y-79513905D01*
X113803200Y-79489401D01*
X113803200Y-78839399D01*
X113804404Y-78814895D01*
X113808004Y-78790627D01*
X113813965Y-78766828D01*
X113822230Y-78743729D01*
X113832720Y-78721550D01*
X113845332Y-78700507D01*
X113859947Y-78680801D01*
X113876423Y-78662623D01*
X113894601Y-78646147D01*
X113914307Y-78631532D01*
X113935350Y-78618920D01*
X113957529Y-78608430D01*
X113980628Y-78600165D01*
X114004427Y-78594204D01*
X114028695Y-78590604D01*
X114053199Y-78589400D01*
X114953201Y-78589400D01*
X114977705Y-78590604D01*
X114977705Y-78590604D01*
G37*
D11*
X114503200Y-79164400D03*
G04 #@! TD*
D12*
G04 #@! TO.C,D1*
X130352800Y-65556400D03*
X130352800Y-62256400D03*
G04 #@! TD*
G04 #@! TO.C,D2*
X120115600Y-62358000D03*
X120115600Y-65658000D03*
G04 #@! TD*
D13*
G04 #@! TO.C,J2*
X192963600Y-67877200D03*
X194963600Y-75277200D03*
D14*
X185563600Y-75277200D03*
G04 #@! TD*
D10*
G04 #@! TO.C,R1*
G36*
X103303105Y-65392004D02*
X103327373Y-65395604D01*
X103351172Y-65401565D01*
X103374271Y-65409830D01*
X103396450Y-65420320D01*
X103417493Y-65432932D01*
X103437199Y-65447547D01*
X103455377Y-65464023D01*
X103471853Y-65482201D01*
X103486468Y-65501907D01*
X103499080Y-65522950D01*
X103509570Y-65545129D01*
X103517835Y-65568228D01*
X103523796Y-65592027D01*
X103527396Y-65616295D01*
X103528600Y-65640799D01*
X103528600Y-66540801D01*
X103527396Y-66565305D01*
X103523796Y-66589573D01*
X103517835Y-66613372D01*
X103509570Y-66636471D01*
X103499080Y-66658650D01*
X103486468Y-66679693D01*
X103471853Y-66699399D01*
X103455377Y-66717577D01*
X103437199Y-66734053D01*
X103417493Y-66748668D01*
X103396450Y-66761280D01*
X103374271Y-66771770D01*
X103351172Y-66780035D01*
X103327373Y-66785996D01*
X103303105Y-66789596D01*
X103278601Y-66790800D01*
X102628599Y-66790800D01*
X102604095Y-66789596D01*
X102579827Y-66785996D01*
X102556028Y-66780035D01*
X102532929Y-66771770D01*
X102510750Y-66761280D01*
X102489707Y-66748668D01*
X102470001Y-66734053D01*
X102451823Y-66717577D01*
X102435347Y-66699399D01*
X102420732Y-66679693D01*
X102408120Y-66658650D01*
X102397630Y-66636471D01*
X102389365Y-66613372D01*
X102383404Y-66589573D01*
X102379804Y-66565305D01*
X102378600Y-66540801D01*
X102378600Y-65640799D01*
X102379804Y-65616295D01*
X102383404Y-65592027D01*
X102389365Y-65568228D01*
X102397630Y-65545129D01*
X102408120Y-65522950D01*
X102420732Y-65501907D01*
X102435347Y-65482201D01*
X102451823Y-65464023D01*
X102470001Y-65447547D01*
X102489707Y-65432932D01*
X102510750Y-65420320D01*
X102532929Y-65409830D01*
X102556028Y-65401565D01*
X102579827Y-65395604D01*
X102604095Y-65392004D01*
X102628599Y-65390800D01*
X103278601Y-65390800D01*
X103303105Y-65392004D01*
X103303105Y-65392004D01*
G37*
D11*
X102953600Y-66090800D03*
D10*
G36*
X105353105Y-65392004D02*
X105377373Y-65395604D01*
X105401172Y-65401565D01*
X105424271Y-65409830D01*
X105446450Y-65420320D01*
X105467493Y-65432932D01*
X105487199Y-65447547D01*
X105505377Y-65464023D01*
X105521853Y-65482201D01*
X105536468Y-65501907D01*
X105549080Y-65522950D01*
X105559570Y-65545129D01*
X105567835Y-65568228D01*
X105573796Y-65592027D01*
X105577396Y-65616295D01*
X105578600Y-65640799D01*
X105578600Y-66540801D01*
X105577396Y-66565305D01*
X105573796Y-66589573D01*
X105567835Y-66613372D01*
X105559570Y-66636471D01*
X105549080Y-66658650D01*
X105536468Y-66679693D01*
X105521853Y-66699399D01*
X105505377Y-66717577D01*
X105487199Y-66734053D01*
X105467493Y-66748668D01*
X105446450Y-66761280D01*
X105424271Y-66771770D01*
X105401172Y-66780035D01*
X105377373Y-66785996D01*
X105353105Y-66789596D01*
X105328601Y-66790800D01*
X104678599Y-66790800D01*
X104654095Y-66789596D01*
X104629827Y-66785996D01*
X104606028Y-66780035D01*
X104582929Y-66771770D01*
X104560750Y-66761280D01*
X104539707Y-66748668D01*
X104520001Y-66734053D01*
X104501823Y-66717577D01*
X104485347Y-66699399D01*
X104470732Y-66679693D01*
X104458120Y-66658650D01*
X104447630Y-66636471D01*
X104439365Y-66613372D01*
X104433404Y-66589573D01*
X104429804Y-66565305D01*
X104428600Y-66540801D01*
X104428600Y-65640799D01*
X104429804Y-65616295D01*
X104433404Y-65592027D01*
X104439365Y-65568228D01*
X104447630Y-65545129D01*
X104458120Y-65522950D01*
X104470732Y-65501907D01*
X104485347Y-65482201D01*
X104501823Y-65464023D01*
X104520001Y-65447547D01*
X104539707Y-65432932D01*
X104560750Y-65420320D01*
X104582929Y-65409830D01*
X104606028Y-65401565D01*
X104629827Y-65395604D01*
X104654095Y-65392004D01*
X104678599Y-65390800D01*
X105328601Y-65390800D01*
X105353105Y-65392004D01*
X105353105Y-65392004D01*
G37*
D11*
X105003600Y-66090800D03*
G04 #@! TD*
D10*
G04 #@! TO.C,R2*
G36*
X103303105Y-79006404D02*
X103327373Y-79010004D01*
X103351172Y-79015965D01*
X103374271Y-79024230D01*
X103396450Y-79034720D01*
X103417493Y-79047332D01*
X103437199Y-79061947D01*
X103455377Y-79078423D01*
X103471853Y-79096601D01*
X103486468Y-79116307D01*
X103499080Y-79137350D01*
X103509570Y-79159529D01*
X103517835Y-79182628D01*
X103523796Y-79206427D01*
X103527396Y-79230695D01*
X103528600Y-79255199D01*
X103528600Y-80155201D01*
X103527396Y-80179705D01*
X103523796Y-80203973D01*
X103517835Y-80227772D01*
X103509570Y-80250871D01*
X103499080Y-80273050D01*
X103486468Y-80294093D01*
X103471853Y-80313799D01*
X103455377Y-80331977D01*
X103437199Y-80348453D01*
X103417493Y-80363068D01*
X103396450Y-80375680D01*
X103374271Y-80386170D01*
X103351172Y-80394435D01*
X103327373Y-80400396D01*
X103303105Y-80403996D01*
X103278601Y-80405200D01*
X102628599Y-80405200D01*
X102604095Y-80403996D01*
X102579827Y-80400396D01*
X102556028Y-80394435D01*
X102532929Y-80386170D01*
X102510750Y-80375680D01*
X102489707Y-80363068D01*
X102470001Y-80348453D01*
X102451823Y-80331977D01*
X102435347Y-80313799D01*
X102420732Y-80294093D01*
X102408120Y-80273050D01*
X102397630Y-80250871D01*
X102389365Y-80227772D01*
X102383404Y-80203973D01*
X102379804Y-80179705D01*
X102378600Y-80155201D01*
X102378600Y-79255199D01*
X102379804Y-79230695D01*
X102383404Y-79206427D01*
X102389365Y-79182628D01*
X102397630Y-79159529D01*
X102408120Y-79137350D01*
X102420732Y-79116307D01*
X102435347Y-79096601D01*
X102451823Y-79078423D01*
X102470001Y-79061947D01*
X102489707Y-79047332D01*
X102510750Y-79034720D01*
X102532929Y-79024230D01*
X102556028Y-79015965D01*
X102579827Y-79010004D01*
X102604095Y-79006404D01*
X102628599Y-79005200D01*
X103278601Y-79005200D01*
X103303105Y-79006404D01*
X103303105Y-79006404D01*
G37*
D11*
X102953600Y-79705200D03*
D10*
G36*
X105353105Y-79006404D02*
X105377373Y-79010004D01*
X105401172Y-79015965D01*
X105424271Y-79024230D01*
X105446450Y-79034720D01*
X105467493Y-79047332D01*
X105487199Y-79061947D01*
X105505377Y-79078423D01*
X105521853Y-79096601D01*
X105536468Y-79116307D01*
X105549080Y-79137350D01*
X105559570Y-79159529D01*
X105567835Y-79182628D01*
X105573796Y-79206427D01*
X105577396Y-79230695D01*
X105578600Y-79255199D01*
X105578600Y-80155201D01*
X105577396Y-80179705D01*
X105573796Y-80203973D01*
X105567835Y-80227772D01*
X105559570Y-80250871D01*
X105549080Y-80273050D01*
X105536468Y-80294093D01*
X105521853Y-80313799D01*
X105505377Y-80331977D01*
X105487199Y-80348453D01*
X105467493Y-80363068D01*
X105446450Y-80375680D01*
X105424271Y-80386170D01*
X105401172Y-80394435D01*
X105377373Y-80400396D01*
X105353105Y-80403996D01*
X105328601Y-80405200D01*
X104678599Y-80405200D01*
X104654095Y-80403996D01*
X104629827Y-80400396D01*
X104606028Y-80394435D01*
X104582929Y-80386170D01*
X104560750Y-80375680D01*
X104539707Y-80363068D01*
X104520001Y-80348453D01*
X104501823Y-80331977D01*
X104485347Y-80313799D01*
X104470732Y-80294093D01*
X104458120Y-80273050D01*
X104447630Y-80250871D01*
X104439365Y-80227772D01*
X104433404Y-80203973D01*
X104429804Y-80179705D01*
X104428600Y-80155201D01*
X104428600Y-79255199D01*
X104429804Y-79230695D01*
X104433404Y-79206427D01*
X104439365Y-79182628D01*
X104447630Y-79159529D01*
X104458120Y-79137350D01*
X104470732Y-79116307D01*
X104485347Y-79096601D01*
X104501823Y-79078423D01*
X104520001Y-79061947D01*
X104539707Y-79047332D01*
X104560750Y-79034720D01*
X104582929Y-79024230D01*
X104606028Y-79015965D01*
X104629827Y-79010004D01*
X104654095Y-79006404D01*
X104678599Y-79005200D01*
X105328601Y-79005200D01*
X105353105Y-79006404D01*
X105353105Y-79006404D01*
G37*
D11*
X105003600Y-79705200D03*
G04 #@! TD*
D10*
G04 #@! TO.C,R3*
G36*
X151548305Y-81597204D02*
X151572573Y-81600804D01*
X151596372Y-81606765D01*
X151619471Y-81615030D01*
X151641650Y-81625520D01*
X151662693Y-81638132D01*
X151682399Y-81652747D01*
X151700577Y-81669223D01*
X151717053Y-81687401D01*
X151731668Y-81707107D01*
X151744280Y-81728150D01*
X151754770Y-81750329D01*
X151763035Y-81773428D01*
X151768996Y-81797227D01*
X151772596Y-81821495D01*
X151773800Y-81845999D01*
X151773800Y-82746001D01*
X151772596Y-82770505D01*
X151768996Y-82794773D01*
X151763035Y-82818572D01*
X151754770Y-82841671D01*
X151744280Y-82863850D01*
X151731668Y-82884893D01*
X151717053Y-82904599D01*
X151700577Y-82922777D01*
X151682399Y-82939253D01*
X151662693Y-82953868D01*
X151641650Y-82966480D01*
X151619471Y-82976970D01*
X151596372Y-82985235D01*
X151572573Y-82991196D01*
X151548305Y-82994796D01*
X151523801Y-82996000D01*
X150873799Y-82996000D01*
X150849295Y-82994796D01*
X150825027Y-82991196D01*
X150801228Y-82985235D01*
X150778129Y-82976970D01*
X150755950Y-82966480D01*
X150734907Y-82953868D01*
X150715201Y-82939253D01*
X150697023Y-82922777D01*
X150680547Y-82904599D01*
X150665932Y-82884893D01*
X150653320Y-82863850D01*
X150642830Y-82841671D01*
X150634565Y-82818572D01*
X150628604Y-82794773D01*
X150625004Y-82770505D01*
X150623800Y-82746001D01*
X150623800Y-81845999D01*
X150625004Y-81821495D01*
X150628604Y-81797227D01*
X150634565Y-81773428D01*
X150642830Y-81750329D01*
X150653320Y-81728150D01*
X150665932Y-81707107D01*
X150680547Y-81687401D01*
X150697023Y-81669223D01*
X150715201Y-81652747D01*
X150734907Y-81638132D01*
X150755950Y-81625520D01*
X150778129Y-81615030D01*
X150801228Y-81606765D01*
X150825027Y-81600804D01*
X150849295Y-81597204D01*
X150873799Y-81596000D01*
X151523801Y-81596000D01*
X151548305Y-81597204D01*
X151548305Y-81597204D01*
G37*
D11*
X151198800Y-82296000D03*
D10*
G36*
X149498305Y-81597204D02*
X149522573Y-81600804D01*
X149546372Y-81606765D01*
X149569471Y-81615030D01*
X149591650Y-81625520D01*
X149612693Y-81638132D01*
X149632399Y-81652747D01*
X149650577Y-81669223D01*
X149667053Y-81687401D01*
X149681668Y-81707107D01*
X149694280Y-81728150D01*
X149704770Y-81750329D01*
X149713035Y-81773428D01*
X149718996Y-81797227D01*
X149722596Y-81821495D01*
X149723800Y-81845999D01*
X149723800Y-82746001D01*
X149722596Y-82770505D01*
X149718996Y-82794773D01*
X149713035Y-82818572D01*
X149704770Y-82841671D01*
X149694280Y-82863850D01*
X149681668Y-82884893D01*
X149667053Y-82904599D01*
X149650577Y-82922777D01*
X149632399Y-82939253D01*
X149612693Y-82953868D01*
X149591650Y-82966480D01*
X149569471Y-82976970D01*
X149546372Y-82985235D01*
X149522573Y-82991196D01*
X149498305Y-82994796D01*
X149473801Y-82996000D01*
X148823799Y-82996000D01*
X148799295Y-82994796D01*
X148775027Y-82991196D01*
X148751228Y-82985235D01*
X148728129Y-82976970D01*
X148705950Y-82966480D01*
X148684907Y-82953868D01*
X148665201Y-82939253D01*
X148647023Y-82922777D01*
X148630547Y-82904599D01*
X148615932Y-82884893D01*
X148603320Y-82863850D01*
X148592830Y-82841671D01*
X148584565Y-82818572D01*
X148578604Y-82794773D01*
X148575004Y-82770505D01*
X148573800Y-82746001D01*
X148573800Y-81845999D01*
X148575004Y-81821495D01*
X148578604Y-81797227D01*
X148584565Y-81773428D01*
X148592830Y-81750329D01*
X148603320Y-81728150D01*
X148615932Y-81707107D01*
X148630547Y-81687401D01*
X148647023Y-81669223D01*
X148665201Y-81652747D01*
X148684907Y-81638132D01*
X148705950Y-81625520D01*
X148728129Y-81615030D01*
X148751228Y-81606765D01*
X148775027Y-81600804D01*
X148799295Y-81597204D01*
X148823799Y-81596000D01*
X149473801Y-81596000D01*
X149498305Y-81597204D01*
X149498305Y-81597204D01*
G37*
D11*
X149148800Y-82296000D03*
G04 #@! TD*
D10*
G04 #@! TO.C,R4*
G36*
X114141505Y-68186004D02*
X114165773Y-68189604D01*
X114189572Y-68195565D01*
X114212671Y-68203830D01*
X114234850Y-68214320D01*
X114255893Y-68226932D01*
X114275599Y-68241547D01*
X114293777Y-68258023D01*
X114310253Y-68276201D01*
X114324868Y-68295907D01*
X114337480Y-68316950D01*
X114347970Y-68339129D01*
X114356235Y-68362228D01*
X114362196Y-68386027D01*
X114365796Y-68410295D01*
X114367000Y-68434799D01*
X114367000Y-69334801D01*
X114365796Y-69359305D01*
X114362196Y-69383573D01*
X114356235Y-69407372D01*
X114347970Y-69430471D01*
X114337480Y-69452650D01*
X114324868Y-69473693D01*
X114310253Y-69493399D01*
X114293777Y-69511577D01*
X114275599Y-69528053D01*
X114255893Y-69542668D01*
X114234850Y-69555280D01*
X114212671Y-69565770D01*
X114189572Y-69574035D01*
X114165773Y-69579996D01*
X114141505Y-69583596D01*
X114117001Y-69584800D01*
X113466999Y-69584800D01*
X113442495Y-69583596D01*
X113418227Y-69579996D01*
X113394428Y-69574035D01*
X113371329Y-69565770D01*
X113349150Y-69555280D01*
X113328107Y-69542668D01*
X113308401Y-69528053D01*
X113290223Y-69511577D01*
X113273747Y-69493399D01*
X113259132Y-69473693D01*
X113246520Y-69452650D01*
X113236030Y-69430471D01*
X113227765Y-69407372D01*
X113221804Y-69383573D01*
X113218204Y-69359305D01*
X113217000Y-69334801D01*
X113217000Y-68434799D01*
X113218204Y-68410295D01*
X113221804Y-68386027D01*
X113227765Y-68362228D01*
X113236030Y-68339129D01*
X113246520Y-68316950D01*
X113259132Y-68295907D01*
X113273747Y-68276201D01*
X113290223Y-68258023D01*
X113308401Y-68241547D01*
X113328107Y-68226932D01*
X113349150Y-68214320D01*
X113371329Y-68203830D01*
X113394428Y-68195565D01*
X113418227Y-68189604D01*
X113442495Y-68186004D01*
X113466999Y-68184800D01*
X114117001Y-68184800D01*
X114141505Y-68186004D01*
X114141505Y-68186004D01*
G37*
D11*
X113792000Y-68884800D03*
D10*
G36*
X112091505Y-68186004D02*
X112115773Y-68189604D01*
X112139572Y-68195565D01*
X112162671Y-68203830D01*
X112184850Y-68214320D01*
X112205893Y-68226932D01*
X112225599Y-68241547D01*
X112243777Y-68258023D01*
X112260253Y-68276201D01*
X112274868Y-68295907D01*
X112287480Y-68316950D01*
X112297970Y-68339129D01*
X112306235Y-68362228D01*
X112312196Y-68386027D01*
X112315796Y-68410295D01*
X112317000Y-68434799D01*
X112317000Y-69334801D01*
X112315796Y-69359305D01*
X112312196Y-69383573D01*
X112306235Y-69407372D01*
X112297970Y-69430471D01*
X112287480Y-69452650D01*
X112274868Y-69473693D01*
X112260253Y-69493399D01*
X112243777Y-69511577D01*
X112225599Y-69528053D01*
X112205893Y-69542668D01*
X112184850Y-69555280D01*
X112162671Y-69565770D01*
X112139572Y-69574035D01*
X112115773Y-69579996D01*
X112091505Y-69583596D01*
X112067001Y-69584800D01*
X111416999Y-69584800D01*
X111392495Y-69583596D01*
X111368227Y-69579996D01*
X111344428Y-69574035D01*
X111321329Y-69565770D01*
X111299150Y-69555280D01*
X111278107Y-69542668D01*
X111258401Y-69528053D01*
X111240223Y-69511577D01*
X111223747Y-69493399D01*
X111209132Y-69473693D01*
X111196520Y-69452650D01*
X111186030Y-69430471D01*
X111177765Y-69407372D01*
X111171804Y-69383573D01*
X111168204Y-69359305D01*
X111167000Y-69334801D01*
X111167000Y-68434799D01*
X111168204Y-68410295D01*
X111171804Y-68386027D01*
X111177765Y-68362228D01*
X111186030Y-68339129D01*
X111196520Y-68316950D01*
X111209132Y-68295907D01*
X111223747Y-68276201D01*
X111240223Y-68258023D01*
X111258401Y-68241547D01*
X111278107Y-68226932D01*
X111299150Y-68214320D01*
X111321329Y-68203830D01*
X111344428Y-68195565D01*
X111368227Y-68189604D01*
X111392495Y-68186004D01*
X111416999Y-68184800D01*
X112067001Y-68184800D01*
X112091505Y-68186004D01*
X112091505Y-68186004D01*
G37*
D11*
X111742000Y-68884800D03*
G04 #@! TD*
D10*
G04 #@! TO.C,R5*
G36*
X129122704Y-82513404D02*
X129146973Y-82517004D01*
X129170771Y-82522965D01*
X129193871Y-82531230D01*
X129216049Y-82541720D01*
X129237093Y-82554333D01*
X129256798Y-82568947D01*
X129274977Y-82585423D01*
X129291453Y-82603602D01*
X129306067Y-82623307D01*
X129318680Y-82644351D01*
X129329170Y-82666529D01*
X129337435Y-82689629D01*
X129343396Y-82713427D01*
X129346996Y-82737696D01*
X129348200Y-82762200D01*
X129348200Y-83687200D01*
X129346996Y-83711704D01*
X129343396Y-83735973D01*
X129337435Y-83759771D01*
X129329170Y-83782871D01*
X129318680Y-83805049D01*
X129306067Y-83826093D01*
X129291453Y-83845798D01*
X129274977Y-83863977D01*
X129256798Y-83880453D01*
X129237093Y-83895067D01*
X129216049Y-83907680D01*
X129193871Y-83918170D01*
X129170771Y-83926435D01*
X129146973Y-83932396D01*
X129122704Y-83935996D01*
X129098200Y-83937200D01*
X127848200Y-83937200D01*
X127823696Y-83935996D01*
X127799427Y-83932396D01*
X127775629Y-83926435D01*
X127752529Y-83918170D01*
X127730351Y-83907680D01*
X127709307Y-83895067D01*
X127689602Y-83880453D01*
X127671423Y-83863977D01*
X127654947Y-83845798D01*
X127640333Y-83826093D01*
X127627720Y-83805049D01*
X127617230Y-83782871D01*
X127608965Y-83759771D01*
X127603004Y-83735973D01*
X127599404Y-83711704D01*
X127598200Y-83687200D01*
X127598200Y-82762200D01*
X127599404Y-82737696D01*
X127603004Y-82713427D01*
X127608965Y-82689629D01*
X127617230Y-82666529D01*
X127627720Y-82644351D01*
X127640333Y-82623307D01*
X127654947Y-82603602D01*
X127671423Y-82585423D01*
X127689602Y-82568947D01*
X127709307Y-82554333D01*
X127730351Y-82541720D01*
X127752529Y-82531230D01*
X127775629Y-82522965D01*
X127799427Y-82517004D01*
X127823696Y-82513404D01*
X127848200Y-82512200D01*
X129098200Y-82512200D01*
X129122704Y-82513404D01*
X129122704Y-82513404D01*
G37*
D15*
X128473200Y-83224700D03*
D10*
G36*
X129122704Y-79538404D02*
X129146973Y-79542004D01*
X129170771Y-79547965D01*
X129193871Y-79556230D01*
X129216049Y-79566720D01*
X129237093Y-79579333D01*
X129256798Y-79593947D01*
X129274977Y-79610423D01*
X129291453Y-79628602D01*
X129306067Y-79648307D01*
X129318680Y-79669351D01*
X129329170Y-79691529D01*
X129337435Y-79714629D01*
X129343396Y-79738427D01*
X129346996Y-79762696D01*
X129348200Y-79787200D01*
X129348200Y-80712200D01*
X129346996Y-80736704D01*
X129343396Y-80760973D01*
X129337435Y-80784771D01*
X129329170Y-80807871D01*
X129318680Y-80830049D01*
X129306067Y-80851093D01*
X129291453Y-80870798D01*
X129274977Y-80888977D01*
X129256798Y-80905453D01*
X129237093Y-80920067D01*
X129216049Y-80932680D01*
X129193871Y-80943170D01*
X129170771Y-80951435D01*
X129146973Y-80957396D01*
X129122704Y-80960996D01*
X129098200Y-80962200D01*
X127848200Y-80962200D01*
X127823696Y-80960996D01*
X127799427Y-80957396D01*
X127775629Y-80951435D01*
X127752529Y-80943170D01*
X127730351Y-80932680D01*
X127709307Y-80920067D01*
X127689602Y-80905453D01*
X127671423Y-80888977D01*
X127654947Y-80870798D01*
X127640333Y-80851093D01*
X127627720Y-80830049D01*
X127617230Y-80807871D01*
X127608965Y-80784771D01*
X127603004Y-80760973D01*
X127599404Y-80736704D01*
X127598200Y-80712200D01*
X127598200Y-79787200D01*
X127599404Y-79762696D01*
X127603004Y-79738427D01*
X127608965Y-79714629D01*
X127617230Y-79691529D01*
X127627720Y-79669351D01*
X127640333Y-79648307D01*
X127654947Y-79628602D01*
X127671423Y-79610423D01*
X127689602Y-79593947D01*
X127709307Y-79579333D01*
X127730351Y-79566720D01*
X127752529Y-79556230D01*
X127775629Y-79547965D01*
X127799427Y-79542004D01*
X127823696Y-79538404D01*
X127848200Y-79537200D01*
X129098200Y-79537200D01*
X129122704Y-79538404D01*
X129122704Y-79538404D01*
G37*
D15*
X128473200Y-80249700D03*
G04 #@! TD*
D10*
G04 #@! TO.C,R6*
G36*
X115041004Y-80711004D02*
X115065273Y-80714604D01*
X115089071Y-80720565D01*
X115112171Y-80728830D01*
X115134349Y-80739320D01*
X115155393Y-80751933D01*
X115175098Y-80766547D01*
X115193277Y-80783023D01*
X115209753Y-80801202D01*
X115224367Y-80820907D01*
X115236980Y-80841951D01*
X115247470Y-80864129D01*
X115255735Y-80887229D01*
X115261696Y-80911027D01*
X115265296Y-80935296D01*
X115266500Y-80959800D01*
X115266500Y-82209800D01*
X115265296Y-82234304D01*
X115261696Y-82258573D01*
X115255735Y-82282371D01*
X115247470Y-82305471D01*
X115236980Y-82327649D01*
X115224367Y-82348693D01*
X115209753Y-82368398D01*
X115193277Y-82386577D01*
X115175098Y-82403053D01*
X115155393Y-82417667D01*
X115134349Y-82430280D01*
X115112171Y-82440770D01*
X115089071Y-82449035D01*
X115065273Y-82454996D01*
X115041004Y-82458596D01*
X115016500Y-82459800D01*
X114091500Y-82459800D01*
X114066996Y-82458596D01*
X114042727Y-82454996D01*
X114018929Y-82449035D01*
X113995829Y-82440770D01*
X113973651Y-82430280D01*
X113952607Y-82417667D01*
X113932902Y-82403053D01*
X113914723Y-82386577D01*
X113898247Y-82368398D01*
X113883633Y-82348693D01*
X113871020Y-82327649D01*
X113860530Y-82305471D01*
X113852265Y-82282371D01*
X113846304Y-82258573D01*
X113842704Y-82234304D01*
X113841500Y-82209800D01*
X113841500Y-80959800D01*
X113842704Y-80935296D01*
X113846304Y-80911027D01*
X113852265Y-80887229D01*
X113860530Y-80864129D01*
X113871020Y-80841951D01*
X113883633Y-80820907D01*
X113898247Y-80801202D01*
X113914723Y-80783023D01*
X113932902Y-80766547D01*
X113952607Y-80751933D01*
X113973651Y-80739320D01*
X113995829Y-80728830D01*
X114018929Y-80720565D01*
X114042727Y-80714604D01*
X114066996Y-80711004D01*
X114091500Y-80709800D01*
X115016500Y-80709800D01*
X115041004Y-80711004D01*
X115041004Y-80711004D01*
G37*
D15*
X114554000Y-81584800D03*
D10*
G36*
X118016004Y-80711004D02*
X118040273Y-80714604D01*
X118064071Y-80720565D01*
X118087171Y-80728830D01*
X118109349Y-80739320D01*
X118130393Y-80751933D01*
X118150098Y-80766547D01*
X118168277Y-80783023D01*
X118184753Y-80801202D01*
X118199367Y-80820907D01*
X118211980Y-80841951D01*
X118222470Y-80864129D01*
X118230735Y-80887229D01*
X118236696Y-80911027D01*
X118240296Y-80935296D01*
X118241500Y-80959800D01*
X118241500Y-82209800D01*
X118240296Y-82234304D01*
X118236696Y-82258573D01*
X118230735Y-82282371D01*
X118222470Y-82305471D01*
X118211980Y-82327649D01*
X118199367Y-82348693D01*
X118184753Y-82368398D01*
X118168277Y-82386577D01*
X118150098Y-82403053D01*
X118130393Y-82417667D01*
X118109349Y-82430280D01*
X118087171Y-82440770D01*
X118064071Y-82449035D01*
X118040273Y-82454996D01*
X118016004Y-82458596D01*
X117991500Y-82459800D01*
X117066500Y-82459800D01*
X117041996Y-82458596D01*
X117017727Y-82454996D01*
X116993929Y-82449035D01*
X116970829Y-82440770D01*
X116948651Y-82430280D01*
X116927607Y-82417667D01*
X116907902Y-82403053D01*
X116889723Y-82386577D01*
X116873247Y-82368398D01*
X116858633Y-82348693D01*
X116846020Y-82327649D01*
X116835530Y-82305471D01*
X116827265Y-82282371D01*
X116821304Y-82258573D01*
X116817704Y-82234304D01*
X116816500Y-82209800D01*
X116816500Y-80959800D01*
X116817704Y-80935296D01*
X116821304Y-80911027D01*
X116827265Y-80887229D01*
X116835530Y-80864129D01*
X116846020Y-80841951D01*
X116858633Y-80820907D01*
X116873247Y-80801202D01*
X116889723Y-80783023D01*
X116907902Y-80766547D01*
X116927607Y-80751933D01*
X116948651Y-80739320D01*
X116970829Y-80728830D01*
X116993929Y-80720565D01*
X117017727Y-80714604D01*
X117041996Y-80711004D01*
X117066500Y-80709800D01*
X117991500Y-80709800D01*
X118016004Y-80711004D01*
X118016004Y-80711004D01*
G37*
D15*
X117529000Y-81584800D03*
G04 #@! TD*
D10*
G04 #@! TO.C,R7*
G36*
X116625904Y-73471004D02*
X116650173Y-73474604D01*
X116673971Y-73480565D01*
X116697071Y-73488830D01*
X116719249Y-73499320D01*
X116740293Y-73511933D01*
X116759998Y-73526547D01*
X116778177Y-73543023D01*
X116794653Y-73561202D01*
X116809267Y-73580907D01*
X116821880Y-73601951D01*
X116832370Y-73624129D01*
X116840635Y-73647229D01*
X116846596Y-73671027D01*
X116850196Y-73695296D01*
X116851400Y-73719800D01*
X116851400Y-74644800D01*
X116850196Y-74669304D01*
X116846596Y-74693573D01*
X116840635Y-74717371D01*
X116832370Y-74740471D01*
X116821880Y-74762649D01*
X116809267Y-74783693D01*
X116794653Y-74803398D01*
X116778177Y-74821577D01*
X116759998Y-74838053D01*
X116740293Y-74852667D01*
X116719249Y-74865280D01*
X116697071Y-74875770D01*
X116673971Y-74884035D01*
X116650173Y-74889996D01*
X116625904Y-74893596D01*
X116601400Y-74894800D01*
X115351400Y-74894800D01*
X115326896Y-74893596D01*
X115302627Y-74889996D01*
X115278829Y-74884035D01*
X115255729Y-74875770D01*
X115233551Y-74865280D01*
X115212507Y-74852667D01*
X115192802Y-74838053D01*
X115174623Y-74821577D01*
X115158147Y-74803398D01*
X115143533Y-74783693D01*
X115130920Y-74762649D01*
X115120430Y-74740471D01*
X115112165Y-74717371D01*
X115106204Y-74693573D01*
X115102604Y-74669304D01*
X115101400Y-74644800D01*
X115101400Y-73719800D01*
X115102604Y-73695296D01*
X115106204Y-73671027D01*
X115112165Y-73647229D01*
X115120430Y-73624129D01*
X115130920Y-73601951D01*
X115143533Y-73580907D01*
X115158147Y-73561202D01*
X115174623Y-73543023D01*
X115192802Y-73526547D01*
X115212507Y-73511933D01*
X115233551Y-73499320D01*
X115255729Y-73488830D01*
X115278829Y-73480565D01*
X115302627Y-73474604D01*
X115326896Y-73471004D01*
X115351400Y-73469800D01*
X116601400Y-73469800D01*
X116625904Y-73471004D01*
X116625904Y-73471004D01*
G37*
D15*
X115976400Y-74182300D03*
D10*
G36*
X116625904Y-70496004D02*
X116650173Y-70499604D01*
X116673971Y-70505565D01*
X116697071Y-70513830D01*
X116719249Y-70524320D01*
X116740293Y-70536933D01*
X116759998Y-70551547D01*
X116778177Y-70568023D01*
X116794653Y-70586202D01*
X116809267Y-70605907D01*
X116821880Y-70626951D01*
X116832370Y-70649129D01*
X116840635Y-70672229D01*
X116846596Y-70696027D01*
X116850196Y-70720296D01*
X116851400Y-70744800D01*
X116851400Y-71669800D01*
X116850196Y-71694304D01*
X116846596Y-71718573D01*
X116840635Y-71742371D01*
X116832370Y-71765471D01*
X116821880Y-71787649D01*
X116809267Y-71808693D01*
X116794653Y-71828398D01*
X116778177Y-71846577D01*
X116759998Y-71863053D01*
X116740293Y-71877667D01*
X116719249Y-71890280D01*
X116697071Y-71900770D01*
X116673971Y-71909035D01*
X116650173Y-71914996D01*
X116625904Y-71918596D01*
X116601400Y-71919800D01*
X115351400Y-71919800D01*
X115326896Y-71918596D01*
X115302627Y-71914996D01*
X115278829Y-71909035D01*
X115255729Y-71900770D01*
X115233551Y-71890280D01*
X115212507Y-71877667D01*
X115192802Y-71863053D01*
X115174623Y-71846577D01*
X115158147Y-71828398D01*
X115143533Y-71808693D01*
X115130920Y-71787649D01*
X115120430Y-71765471D01*
X115112165Y-71742371D01*
X115106204Y-71718573D01*
X115102604Y-71694304D01*
X115101400Y-71669800D01*
X115101400Y-70744800D01*
X115102604Y-70720296D01*
X115106204Y-70696027D01*
X115112165Y-70672229D01*
X115120430Y-70649129D01*
X115130920Y-70626951D01*
X115143533Y-70605907D01*
X115158147Y-70586202D01*
X115174623Y-70568023D01*
X115192802Y-70551547D01*
X115212507Y-70536933D01*
X115233551Y-70524320D01*
X115255729Y-70513830D01*
X115278829Y-70505565D01*
X115302627Y-70499604D01*
X115326896Y-70496004D01*
X115351400Y-70494800D01*
X116601400Y-70494800D01*
X116625904Y-70496004D01*
X116625904Y-70496004D01*
G37*
D15*
X115976400Y-71207300D03*
G04 #@! TD*
D10*
G04 #@! TO.C,R8*
G36*
X120435904Y-74509204D02*
X120460173Y-74512804D01*
X120483971Y-74518765D01*
X120507071Y-74527030D01*
X120529249Y-74537520D01*
X120550293Y-74550133D01*
X120569998Y-74564747D01*
X120588177Y-74581223D01*
X120604653Y-74599402D01*
X120619267Y-74619107D01*
X120631880Y-74640151D01*
X120642370Y-74662329D01*
X120650635Y-74685429D01*
X120656596Y-74709227D01*
X120660196Y-74733496D01*
X120661400Y-74758000D01*
X120661400Y-75683000D01*
X120660196Y-75707504D01*
X120656596Y-75731773D01*
X120650635Y-75755571D01*
X120642370Y-75778671D01*
X120631880Y-75800849D01*
X120619267Y-75821893D01*
X120604653Y-75841598D01*
X120588177Y-75859777D01*
X120569998Y-75876253D01*
X120550293Y-75890867D01*
X120529249Y-75903480D01*
X120507071Y-75913970D01*
X120483971Y-75922235D01*
X120460173Y-75928196D01*
X120435904Y-75931796D01*
X120411400Y-75933000D01*
X119161400Y-75933000D01*
X119136896Y-75931796D01*
X119112627Y-75928196D01*
X119088829Y-75922235D01*
X119065729Y-75913970D01*
X119043551Y-75903480D01*
X119022507Y-75890867D01*
X119002802Y-75876253D01*
X118984623Y-75859777D01*
X118968147Y-75841598D01*
X118953533Y-75821893D01*
X118940920Y-75800849D01*
X118930430Y-75778671D01*
X118922165Y-75755571D01*
X118916204Y-75731773D01*
X118912604Y-75707504D01*
X118911400Y-75683000D01*
X118911400Y-74758000D01*
X118912604Y-74733496D01*
X118916204Y-74709227D01*
X118922165Y-74685429D01*
X118930430Y-74662329D01*
X118940920Y-74640151D01*
X118953533Y-74619107D01*
X118968147Y-74599402D01*
X118984623Y-74581223D01*
X119002802Y-74564747D01*
X119022507Y-74550133D01*
X119043551Y-74537520D01*
X119065729Y-74527030D01*
X119088829Y-74518765D01*
X119112627Y-74512804D01*
X119136896Y-74509204D01*
X119161400Y-74508000D01*
X120411400Y-74508000D01*
X120435904Y-74509204D01*
X120435904Y-74509204D01*
G37*
D15*
X119786400Y-75220500D03*
D10*
G36*
X120435904Y-77484204D02*
X120460173Y-77487804D01*
X120483971Y-77493765D01*
X120507071Y-77502030D01*
X120529249Y-77512520D01*
X120550293Y-77525133D01*
X120569998Y-77539747D01*
X120588177Y-77556223D01*
X120604653Y-77574402D01*
X120619267Y-77594107D01*
X120631880Y-77615151D01*
X120642370Y-77637329D01*
X120650635Y-77660429D01*
X120656596Y-77684227D01*
X120660196Y-77708496D01*
X120661400Y-77733000D01*
X120661400Y-78658000D01*
X120660196Y-78682504D01*
X120656596Y-78706773D01*
X120650635Y-78730571D01*
X120642370Y-78753671D01*
X120631880Y-78775849D01*
X120619267Y-78796893D01*
X120604653Y-78816598D01*
X120588177Y-78834777D01*
X120569998Y-78851253D01*
X120550293Y-78865867D01*
X120529249Y-78878480D01*
X120507071Y-78888970D01*
X120483971Y-78897235D01*
X120460173Y-78903196D01*
X120435904Y-78906796D01*
X120411400Y-78908000D01*
X119161400Y-78908000D01*
X119136896Y-78906796D01*
X119112627Y-78903196D01*
X119088829Y-78897235D01*
X119065729Y-78888970D01*
X119043551Y-78878480D01*
X119022507Y-78865867D01*
X119002802Y-78851253D01*
X118984623Y-78834777D01*
X118968147Y-78816598D01*
X118953533Y-78796893D01*
X118940920Y-78775849D01*
X118930430Y-78753671D01*
X118922165Y-78730571D01*
X118916204Y-78706773D01*
X118912604Y-78682504D01*
X118911400Y-78658000D01*
X118911400Y-77733000D01*
X118912604Y-77708496D01*
X118916204Y-77684227D01*
X118922165Y-77660429D01*
X118930430Y-77637329D01*
X118940920Y-77615151D01*
X118953533Y-77594107D01*
X118968147Y-77574402D01*
X118984623Y-77556223D01*
X119002802Y-77539747D01*
X119022507Y-77525133D01*
X119043551Y-77512520D01*
X119065729Y-77502030D01*
X119088829Y-77493765D01*
X119112627Y-77487804D01*
X119136896Y-77484204D01*
X119161400Y-77483000D01*
X120411400Y-77483000D01*
X120435904Y-77484204D01*
X120435904Y-77484204D01*
G37*
D15*
X119786400Y-78195500D03*
G04 #@! TD*
D10*
G04 #@! TO.C,R9*
G36*
X135182204Y-80887804D02*
X135206473Y-80891404D01*
X135230271Y-80897365D01*
X135253371Y-80905630D01*
X135275549Y-80916120D01*
X135296593Y-80928733D01*
X135316298Y-80943347D01*
X135334477Y-80959823D01*
X135350953Y-80978002D01*
X135365567Y-80997707D01*
X135378180Y-81018751D01*
X135388670Y-81040929D01*
X135396935Y-81064029D01*
X135402896Y-81087827D01*
X135406496Y-81112096D01*
X135407700Y-81136600D01*
X135407700Y-82061600D01*
X135406496Y-82086104D01*
X135402896Y-82110373D01*
X135396935Y-82134171D01*
X135388670Y-82157271D01*
X135378180Y-82179449D01*
X135365567Y-82200493D01*
X135350953Y-82220198D01*
X135334477Y-82238377D01*
X135316298Y-82254853D01*
X135296593Y-82269467D01*
X135275549Y-82282080D01*
X135253371Y-82292570D01*
X135230271Y-82300835D01*
X135206473Y-82306796D01*
X135182204Y-82310396D01*
X135157700Y-82311600D01*
X133907700Y-82311600D01*
X133883196Y-82310396D01*
X133858927Y-82306796D01*
X133835129Y-82300835D01*
X133812029Y-82292570D01*
X133789851Y-82282080D01*
X133768807Y-82269467D01*
X133749102Y-82254853D01*
X133730923Y-82238377D01*
X133714447Y-82220198D01*
X133699833Y-82200493D01*
X133687220Y-82179449D01*
X133676730Y-82157271D01*
X133668465Y-82134171D01*
X133662504Y-82110373D01*
X133658904Y-82086104D01*
X133657700Y-82061600D01*
X133657700Y-81136600D01*
X133658904Y-81112096D01*
X133662504Y-81087827D01*
X133668465Y-81064029D01*
X133676730Y-81040929D01*
X133687220Y-81018751D01*
X133699833Y-80997707D01*
X133714447Y-80978002D01*
X133730923Y-80959823D01*
X133749102Y-80943347D01*
X133768807Y-80928733D01*
X133789851Y-80916120D01*
X133812029Y-80905630D01*
X133835129Y-80897365D01*
X133858927Y-80891404D01*
X133883196Y-80887804D01*
X133907700Y-80886600D01*
X135157700Y-80886600D01*
X135182204Y-80887804D01*
X135182204Y-80887804D01*
G37*
D15*
X134532700Y-81599100D03*
D10*
G36*
X135182204Y-77912804D02*
X135206473Y-77916404D01*
X135230271Y-77922365D01*
X135253371Y-77930630D01*
X135275549Y-77941120D01*
X135296593Y-77953733D01*
X135316298Y-77968347D01*
X135334477Y-77984823D01*
X135350953Y-78003002D01*
X135365567Y-78022707D01*
X135378180Y-78043751D01*
X135388670Y-78065929D01*
X135396935Y-78089029D01*
X135402896Y-78112827D01*
X135406496Y-78137096D01*
X135407700Y-78161600D01*
X135407700Y-79086600D01*
X135406496Y-79111104D01*
X135402896Y-79135373D01*
X135396935Y-79159171D01*
X135388670Y-79182271D01*
X135378180Y-79204449D01*
X135365567Y-79225493D01*
X135350953Y-79245198D01*
X135334477Y-79263377D01*
X135316298Y-79279853D01*
X135296593Y-79294467D01*
X135275549Y-79307080D01*
X135253371Y-79317570D01*
X135230271Y-79325835D01*
X135206473Y-79331796D01*
X135182204Y-79335396D01*
X135157700Y-79336600D01*
X133907700Y-79336600D01*
X133883196Y-79335396D01*
X133858927Y-79331796D01*
X133835129Y-79325835D01*
X133812029Y-79317570D01*
X133789851Y-79307080D01*
X133768807Y-79294467D01*
X133749102Y-79279853D01*
X133730923Y-79263377D01*
X133714447Y-79245198D01*
X133699833Y-79225493D01*
X133687220Y-79204449D01*
X133676730Y-79182271D01*
X133668465Y-79159171D01*
X133662504Y-79135373D01*
X133658904Y-79111104D01*
X133657700Y-79086600D01*
X133657700Y-78161600D01*
X133658904Y-78137096D01*
X133662504Y-78112827D01*
X133668465Y-78089029D01*
X133676730Y-78065929D01*
X133687220Y-78043751D01*
X133699833Y-78022707D01*
X133714447Y-78003002D01*
X133730923Y-77984823D01*
X133749102Y-77968347D01*
X133768807Y-77953733D01*
X133789851Y-77941120D01*
X133812029Y-77930630D01*
X133835129Y-77922365D01*
X133858927Y-77916404D01*
X133883196Y-77912804D01*
X133907700Y-77911600D01*
X135157700Y-77911600D01*
X135182204Y-77912804D01*
X135182204Y-77912804D01*
G37*
D15*
X134532700Y-78624100D03*
G04 #@! TD*
D16*
G04 #@! TO.C,U2*
X126752200Y-75984800D03*
X126752200Y-75484800D03*
X126752200Y-74984800D03*
X126752200Y-74484800D03*
X130702200Y-74484800D03*
X130702200Y-75484800D03*
X130702200Y-75984800D03*
D17*
X127977200Y-73259800D03*
X128477200Y-73259800D03*
X128977200Y-73259800D03*
X129477200Y-73259800D03*
X129477200Y-77209800D03*
X128977200Y-77209800D03*
X127977200Y-77209800D03*
D18*
X128392200Y-74399800D03*
X128392200Y-75339800D03*
D16*
X130702200Y-74984800D03*
D17*
X128473200Y-77209800D03*
G04 #@! TD*
M02*
