G04 #@! TF.GenerationSoftware,KiCad,Pcbnew,5.0.2+dfsg1-1*
G04 #@! TF.CreationDate,2021-01-08T16:21:55+01:00*
G04 #@! TF.ProjectId,TTGO_weatherboard,5454474f-5f77-4656-9174-686572626f61,rev?*
G04 #@! TF.SameCoordinates,Original*
G04 #@! TF.FileFunction,Paste,Top*
G04 #@! TF.FilePolarity,Positive*
%FSLAX46Y46*%
G04 Gerber Fmt 4.6, Leading zero omitted, Abs format (unit mm)*
G04 Created by KiCad (PCBNEW 5.0.2+dfsg1-1) date Fr 08 Jan 2021 16:21:55 CET*
%MOMM*%
%LPD*%
G01*
G04 APERTURE LIST*
%ADD10C,0.100000*%
%ADD11C,1.150000*%
%ADD12R,1.200000X0.900000*%
G04 APERTURE END LIST*
D10*
G04 #@! TO.C,C1*
G36*
X108475305Y-71908804D02*
X108499573Y-71912404D01*
X108523372Y-71918365D01*
X108546471Y-71926630D01*
X108568650Y-71937120D01*
X108589693Y-71949732D01*
X108609399Y-71964347D01*
X108627577Y-71980823D01*
X108644053Y-71999001D01*
X108658668Y-72018707D01*
X108671280Y-72039750D01*
X108681770Y-72061929D01*
X108690035Y-72085028D01*
X108695996Y-72108827D01*
X108699596Y-72133095D01*
X108700800Y-72157599D01*
X108700800Y-72807601D01*
X108699596Y-72832105D01*
X108695996Y-72856373D01*
X108690035Y-72880172D01*
X108681770Y-72903271D01*
X108671280Y-72925450D01*
X108658668Y-72946493D01*
X108644053Y-72966199D01*
X108627577Y-72984377D01*
X108609399Y-73000853D01*
X108589693Y-73015468D01*
X108568650Y-73028080D01*
X108546471Y-73038570D01*
X108523372Y-73046835D01*
X108499573Y-73052796D01*
X108475305Y-73056396D01*
X108450801Y-73057600D01*
X107550799Y-73057600D01*
X107526295Y-73056396D01*
X107502027Y-73052796D01*
X107478228Y-73046835D01*
X107455129Y-73038570D01*
X107432950Y-73028080D01*
X107411907Y-73015468D01*
X107392201Y-73000853D01*
X107374023Y-72984377D01*
X107357547Y-72966199D01*
X107342932Y-72946493D01*
X107330320Y-72925450D01*
X107319830Y-72903271D01*
X107311565Y-72880172D01*
X107305604Y-72856373D01*
X107302004Y-72832105D01*
X107300800Y-72807601D01*
X107300800Y-72157599D01*
X107302004Y-72133095D01*
X107305604Y-72108827D01*
X107311565Y-72085028D01*
X107319830Y-72061929D01*
X107330320Y-72039750D01*
X107342932Y-72018707D01*
X107357547Y-71999001D01*
X107374023Y-71980823D01*
X107392201Y-71964347D01*
X107411907Y-71949732D01*
X107432950Y-71937120D01*
X107455129Y-71926630D01*
X107478228Y-71918365D01*
X107502027Y-71912404D01*
X107526295Y-71908804D01*
X107550799Y-71907600D01*
X108450801Y-71907600D01*
X108475305Y-71908804D01*
X108475305Y-71908804D01*
G37*
D11*
X108000800Y-72482600D03*
D10*
G36*
X108475305Y-73958804D02*
X108499573Y-73962404D01*
X108523372Y-73968365D01*
X108546471Y-73976630D01*
X108568650Y-73987120D01*
X108589693Y-73999732D01*
X108609399Y-74014347D01*
X108627577Y-74030823D01*
X108644053Y-74049001D01*
X108658668Y-74068707D01*
X108671280Y-74089750D01*
X108681770Y-74111929D01*
X108690035Y-74135028D01*
X108695996Y-74158827D01*
X108699596Y-74183095D01*
X108700800Y-74207599D01*
X108700800Y-74857601D01*
X108699596Y-74882105D01*
X108695996Y-74906373D01*
X108690035Y-74930172D01*
X108681770Y-74953271D01*
X108671280Y-74975450D01*
X108658668Y-74996493D01*
X108644053Y-75016199D01*
X108627577Y-75034377D01*
X108609399Y-75050853D01*
X108589693Y-75065468D01*
X108568650Y-75078080D01*
X108546471Y-75088570D01*
X108523372Y-75096835D01*
X108499573Y-75102796D01*
X108475305Y-75106396D01*
X108450801Y-75107600D01*
X107550799Y-75107600D01*
X107526295Y-75106396D01*
X107502027Y-75102796D01*
X107478228Y-75096835D01*
X107455129Y-75088570D01*
X107432950Y-75078080D01*
X107411907Y-75065468D01*
X107392201Y-75050853D01*
X107374023Y-75034377D01*
X107357547Y-75016199D01*
X107342932Y-74996493D01*
X107330320Y-74975450D01*
X107319830Y-74953271D01*
X107311565Y-74930172D01*
X107305604Y-74906373D01*
X107302004Y-74882105D01*
X107300800Y-74857601D01*
X107300800Y-74207599D01*
X107302004Y-74183095D01*
X107305604Y-74158827D01*
X107311565Y-74135028D01*
X107319830Y-74111929D01*
X107330320Y-74089750D01*
X107342932Y-74068707D01*
X107357547Y-74049001D01*
X107374023Y-74030823D01*
X107392201Y-74014347D01*
X107411907Y-73999732D01*
X107432950Y-73987120D01*
X107455129Y-73976630D01*
X107478228Y-73968365D01*
X107502027Y-73962404D01*
X107526295Y-73958804D01*
X107550799Y-73957600D01*
X108450801Y-73957600D01*
X108475305Y-73958804D01*
X108475305Y-73958804D01*
G37*
D11*
X108000800Y-74532600D03*
G04 #@! TD*
D10*
G04 #@! TO.C,C2*
G36*
X101261705Y-71705604D02*
X101285973Y-71709204D01*
X101309772Y-71715165D01*
X101332871Y-71723430D01*
X101355050Y-71733920D01*
X101376093Y-71746532D01*
X101395799Y-71761147D01*
X101413977Y-71777623D01*
X101430453Y-71795801D01*
X101445068Y-71815507D01*
X101457680Y-71836550D01*
X101468170Y-71858729D01*
X101476435Y-71881828D01*
X101482396Y-71905627D01*
X101485996Y-71929895D01*
X101487200Y-71954399D01*
X101487200Y-72604401D01*
X101485996Y-72628905D01*
X101482396Y-72653173D01*
X101476435Y-72676972D01*
X101468170Y-72700071D01*
X101457680Y-72722250D01*
X101445068Y-72743293D01*
X101430453Y-72762999D01*
X101413977Y-72781177D01*
X101395799Y-72797653D01*
X101376093Y-72812268D01*
X101355050Y-72824880D01*
X101332871Y-72835370D01*
X101309772Y-72843635D01*
X101285973Y-72849596D01*
X101261705Y-72853196D01*
X101237201Y-72854400D01*
X100337199Y-72854400D01*
X100312695Y-72853196D01*
X100288427Y-72849596D01*
X100264628Y-72843635D01*
X100241529Y-72835370D01*
X100219350Y-72824880D01*
X100198307Y-72812268D01*
X100178601Y-72797653D01*
X100160423Y-72781177D01*
X100143947Y-72762999D01*
X100129332Y-72743293D01*
X100116720Y-72722250D01*
X100106230Y-72700071D01*
X100097965Y-72676972D01*
X100092004Y-72653173D01*
X100088404Y-72628905D01*
X100087200Y-72604401D01*
X100087200Y-71954399D01*
X100088404Y-71929895D01*
X100092004Y-71905627D01*
X100097965Y-71881828D01*
X100106230Y-71858729D01*
X100116720Y-71836550D01*
X100129332Y-71815507D01*
X100143947Y-71795801D01*
X100160423Y-71777623D01*
X100178601Y-71761147D01*
X100198307Y-71746532D01*
X100219350Y-71733920D01*
X100241529Y-71723430D01*
X100264628Y-71715165D01*
X100288427Y-71709204D01*
X100312695Y-71705604D01*
X100337199Y-71704400D01*
X101237201Y-71704400D01*
X101261705Y-71705604D01*
X101261705Y-71705604D01*
G37*
D11*
X100787200Y-72279400D03*
D10*
G36*
X101261705Y-73755604D02*
X101285973Y-73759204D01*
X101309772Y-73765165D01*
X101332871Y-73773430D01*
X101355050Y-73783920D01*
X101376093Y-73796532D01*
X101395799Y-73811147D01*
X101413977Y-73827623D01*
X101430453Y-73845801D01*
X101445068Y-73865507D01*
X101457680Y-73886550D01*
X101468170Y-73908729D01*
X101476435Y-73931828D01*
X101482396Y-73955627D01*
X101485996Y-73979895D01*
X101487200Y-74004399D01*
X101487200Y-74654401D01*
X101485996Y-74678905D01*
X101482396Y-74703173D01*
X101476435Y-74726972D01*
X101468170Y-74750071D01*
X101457680Y-74772250D01*
X101445068Y-74793293D01*
X101430453Y-74812999D01*
X101413977Y-74831177D01*
X101395799Y-74847653D01*
X101376093Y-74862268D01*
X101355050Y-74874880D01*
X101332871Y-74885370D01*
X101309772Y-74893635D01*
X101285973Y-74899596D01*
X101261705Y-74903196D01*
X101237201Y-74904400D01*
X100337199Y-74904400D01*
X100312695Y-74903196D01*
X100288427Y-74899596D01*
X100264628Y-74893635D01*
X100241529Y-74885370D01*
X100219350Y-74874880D01*
X100198307Y-74862268D01*
X100178601Y-74847653D01*
X100160423Y-74831177D01*
X100143947Y-74812999D01*
X100129332Y-74793293D01*
X100116720Y-74772250D01*
X100106230Y-74750071D01*
X100097965Y-74726972D01*
X100092004Y-74703173D01*
X100088404Y-74678905D01*
X100087200Y-74654401D01*
X100087200Y-74004399D01*
X100088404Y-73979895D01*
X100092004Y-73955627D01*
X100097965Y-73931828D01*
X100106230Y-73908729D01*
X100116720Y-73886550D01*
X100129332Y-73865507D01*
X100143947Y-73845801D01*
X100160423Y-73827623D01*
X100178601Y-73811147D01*
X100198307Y-73796532D01*
X100219350Y-73783920D01*
X100241529Y-73773430D01*
X100264628Y-73765165D01*
X100288427Y-73759204D01*
X100312695Y-73755604D01*
X100337199Y-73754400D01*
X101237201Y-73754400D01*
X101261705Y-73755604D01*
X101261705Y-73755604D01*
G37*
D11*
X100787200Y-74329400D03*
G04 #@! TD*
D12*
G04 #@! TO.C,D3*
X140309600Y-84429600D03*
X140309600Y-87729600D03*
G04 #@! TD*
M02*
