M48
;DRILL file {KiCad 5.0.2+dfsg1-1} date Fr 08 Jan 2021 16:21:59 CET
;FORMAT={-:-/ absolute / metric / decimal}
FMAT,2
METRIC,TZ
T1C0.400
T2C1.000
T3C1.100
T4C1.200
%
G90
G05
T1
X102.311Y-77.622
X104.902Y-70.002
X108.204Y-66.04
X112.217Y-66.548
X112.217Y-66.548
X112.217Y-66.548
X112.979Y-81.585
X118.008Y-65.735
X124.257Y-75.641
X125.832Y-73.609
X126.797Y-77.165
X127.305Y-64.618
X128.473Y-67.208
X129.438Y-74.778
X129.794Y-72.644
X131.826Y-77.318
X131.826Y-80.112
X133.807Y-64.719
T2
X186.69Y-86.462
X189.23Y-86.462
X149.047Y-85.801
X151.587Y-85.801
X154.127Y-85.801
X156.667Y-85.801
X104.953Y-59.385
X107.493Y-59.385
X110.033Y-59.385
X112.573Y-59.385
X115.113Y-59.385
X117.653Y-59.385
X120.193Y-59.385
X122.733Y-59.385
X125.273Y-59.385
X127.813Y-59.385
X130.353Y-59.385
X132.893Y-59.385
X135.433Y-59.385
X164.389Y-59.182
X166.929Y-59.182
X169.469Y-59.182
X172.009Y-59.182
X174.549Y-59.182
X177.089Y-59.182
X181.458Y-59.284
X183.998Y-59.284
X186.538Y-59.284
X189.078Y-59.284
X191.618Y-59.284
X105.004Y-85.7
X107.544Y-85.7
X110.084Y-85.7
X112.624Y-85.7
X115.164Y-85.7
X117.704Y-85.7
X120.244Y-85.7
X122.784Y-85.7
X125.324Y-85.7
X127.864Y-85.7
X130.404Y-85.7
X132.944Y-85.7
X135.484Y-85.7
T3
X100.736Y-77.267
X100.736Y-81.767
X107.236Y-77.267
X107.236Y-81.767
X100.736Y-63.957
X100.736Y-68.457
X107.236Y-63.957
X107.236Y-68.457
T4
X165.659Y-84.887
X178.659Y-84.887
T0
M30
